<?xml version="1.0" encoding="utf-8" standalone="no"?>
<!DOCTYPE svg PUBLIC "-//W3C//DTD SVG 1.1//EN"
  "http://www.w3.org/Graphics/SVG/1.1/DTD/svg11.dtd">
<svg xmlns:xlink="http://www.w3.org/1999/xlink" width="288.498437pt" height="184.808106pt" viewBox="0 0 288.498437 184.808106" xmlns="http://www.w3.org/2000/svg" version="1.1">
 <metadata>
  <rdf:RDF xmlns:dc="http://purl.org/dc/elements/1.1/" xmlns:cc="http://creativecommons.org/ns#" xmlns:rdf="http://www.w3.org/1999/02/22-rdf-syntax-ns#">
   <cc:Work>
    <dc:type rdf:resource="http://purl.org/dc/dcmitype/StillImage"/>
    <dc:date>2025-06-06T15:17:56.961373</dc:date>
    <dc:format>image/svg+xml</dc:format>
    <dc:creator>
     <cc:Agent>
      <dc:title>Matplotlib v3.9.4, https://matplotlib.org/</dc:title>
     </cc:Agent>
    </dc:creator>
   </cc:Work>
  </rdf:RDF>
 </metadata>
 <defs>
  <style type="text/css">*{stroke-linejoin: round; stroke-linecap: butt}</style>
 </defs>
 <g id="figure_1">
  <g id="patch_1">
   <path d="M 0 184.808106 
L 288.498437 184.808106 
L 288.498437 0 
L 0 0 
L 0 184.808106 
z
" style="fill: none"/>
  </g>
  <g id="axes_1">
   <g id="patch_2">
    <path d="M 46.965625 147.251856 
L 270.165625 147.251856 
L 270.165625 36.371856 
L 46.965625 36.371856 
L 46.965625 147.251856 
z
" style="fill: none"/>
   </g>
   <g id="matplotlib.axis_1">
    <g id="xtick_1">
     <g id="line2d_1">
      <defs>
       <path id="md877c2d34d" d="M 0 0 
L 0 3.5 
" style="stroke: #000000; stroke-width: 0.8"/>
      </defs>
      <g>
       <use xlink:href="#md877c2d34d" x="59.03049" y="147.251856" style="stroke: #000000; stroke-width: 0.8"/>
      </g>
     </g>
     <g id="text_1">
      <!-- 0.0 -->
      <g transform="translate(51.078927 161.850294) scale(0.1 -0.1)">
       <defs>
        <path id="DejaVuSans-30" d="M 2034 4250 
Q 1547 4250 1301 3770 
Q 1056 3291 1056 2328 
Q 1056 1369 1301 889 
Q 1547 409 2034 409 
Q 2525 409 2770 889 
Q 3016 1369 3016 2328 
Q 3016 3291 2770 3770 
Q 2525 4250 2034 4250 
z
M 2034 4750 
Q 2819 4750 3233 4129 
Q 3647 3509 3647 2328 
Q 3647 1150 3233 529 
Q 2819 -91 2034 -91 
Q 1250 -91 836 529 
Q 422 1150 422 2328 
Q 422 3509 836 4129 
Q 1250 4750 2034 4750 
z
" transform="scale(0.015625)"/>
        <path id="DejaVuSans-2e" d="M 684 794 
L 1344 794 
L 1344 0 
L 684 0 
L 684 794 
z
" transform="scale(0.015625)"/>
       </defs>
       <use xlink:href="#DejaVuSans-30"/>
       <use xlink:href="#DejaVuSans-2e" x="63.623047"/>
       <use xlink:href="#DejaVuSans-30" x="95.410156"/>
      </g>
     </g>
    </g>
    <g id="xtick_2">
     <g id="line2d_2">
      <g>
       <use xlink:href="#md877c2d34d" x="89.192652" y="147.251856" style="stroke: #000000; stroke-width: 0.8"/>
      </g>
     </g>
     <g id="text_2">
      <!-- 2.5 -->
      <g transform="translate(81.24109 161.850294) scale(0.1 -0.1)">
       <defs>
        <path id="DejaVuSans-32" d="M 1228 531 
L 3431 531 
L 3431 0 
L 469 0 
L 469 531 
Q 828 903 1448 1529 
Q 2069 2156 2228 2338 
Q 2531 2678 2651 2914 
Q 2772 3150 2772 3378 
Q 2772 3750 2511 3984 
Q 2250 4219 1831 4219 
Q 1534 4219 1204 4116 
Q 875 4013 500 3803 
L 500 4441 
Q 881 4594 1212 4672 
Q 1544 4750 1819 4750 
Q 2544 4750 2975 4387 
Q 3406 4025 3406 3419 
Q 3406 3131 3298 2873 
Q 3191 2616 2906 2266 
Q 2828 2175 2409 1742 
Q 1991 1309 1228 531 
z
" transform="scale(0.015625)"/>
        <path id="DejaVuSans-35" d="M 691 4666 
L 3169 4666 
L 3169 4134 
L 1269 4134 
L 1269 2991 
Q 1406 3038 1543 3061 
Q 1681 3084 1819 3084 
Q 2600 3084 3056 2656 
Q 3513 2228 3513 1497 
Q 3513 744 3044 326 
Q 2575 -91 1722 -91 
Q 1428 -91 1123 -41 
Q 819 9 494 109 
L 494 744 
Q 775 591 1075 516 
Q 1375 441 1709 441 
Q 2250 441 2565 725 
Q 2881 1009 2881 1497 
Q 2881 1984 2565 2268 
Q 2250 2553 1709 2553 
Q 1456 2553 1204 2497 
Q 953 2441 691 2322 
L 691 4666 
z
" transform="scale(0.015625)"/>
       </defs>
       <use xlink:href="#DejaVuSans-32"/>
       <use xlink:href="#DejaVuSans-2e" x="63.623047"/>
       <use xlink:href="#DejaVuSans-35" x="95.410156"/>
      </g>
     </g>
    </g>
    <g id="xtick_3">
     <g id="line2d_3">
      <g>
       <use xlink:href="#md877c2d34d" x="119.354814" y="147.251856" style="stroke: #000000; stroke-width: 0.8"/>
      </g>
     </g>
     <g id="text_3">
      <!-- 5.0 -->
      <g transform="translate(111.403252 161.850294) scale(0.1 -0.1)">
       <use xlink:href="#DejaVuSans-35"/>
       <use xlink:href="#DejaVuSans-2e" x="63.623047"/>
       <use xlink:href="#DejaVuSans-30" x="95.410156"/>
      </g>
     </g>
    </g>
    <g id="xtick_4">
     <g id="line2d_4">
      <g>
       <use xlink:href="#md877c2d34d" x="149.516976" y="147.251856" style="stroke: #000000; stroke-width: 0.8"/>
      </g>
     </g>
     <g id="text_4">
      <!-- 7.5 -->
      <g transform="translate(141.565414 161.850294) scale(0.1 -0.1)">
       <defs>
        <path id="DejaVuSans-37" d="M 525 4666 
L 3525 4666 
L 3525 4397 
L 1831 0 
L 1172 0 
L 2766 4134 
L 525 4134 
L 525 4666 
z
" transform="scale(0.015625)"/>
       </defs>
       <use xlink:href="#DejaVuSans-37"/>
       <use xlink:href="#DejaVuSans-2e" x="63.623047"/>
       <use xlink:href="#DejaVuSans-35" x="95.410156"/>
      </g>
     </g>
    </g>
    <g id="xtick_5">
     <g id="line2d_5">
      <g>
       <use xlink:href="#md877c2d34d" x="179.679139" y="147.251856" style="stroke: #000000; stroke-width: 0.8"/>
      </g>
     </g>
     <g id="text_5">
      <!-- 10.0 -->
      <g transform="translate(168.546326 161.850294) scale(0.1 -0.1)">
       <defs>
        <path id="DejaVuSans-31" d="M 794 531 
L 1825 531 
L 1825 4091 
L 703 3866 
L 703 4441 
L 1819 4666 
L 2450 4666 
L 2450 531 
L 3481 531 
L 3481 0 
L 794 0 
L 794 531 
z
" transform="scale(0.015625)"/>
       </defs>
       <use xlink:href="#DejaVuSans-31"/>
       <use xlink:href="#DejaVuSans-30" x="63.623047"/>
       <use xlink:href="#DejaVuSans-2e" x="127.246094"/>
       <use xlink:href="#DejaVuSans-30" x="159.033203"/>
      </g>
     </g>
    </g>
    <g id="xtick_6">
     <g id="line2d_6">
      <g>
       <use xlink:href="#md877c2d34d" x="209.841301" y="147.251856" style="stroke: #000000; stroke-width: 0.8"/>
      </g>
     </g>
     <g id="text_6">
      <!-- 12.5 -->
      <g transform="translate(198.708488 161.850294) scale(0.1 -0.1)">
       <use xlink:href="#DejaVuSans-31"/>
       <use xlink:href="#DejaVuSans-32" x="63.623047"/>
       <use xlink:href="#DejaVuSans-2e" x="127.246094"/>
       <use xlink:href="#DejaVuSans-35" x="159.033203"/>
      </g>
     </g>
    </g>
    <g id="xtick_7">
     <g id="line2d_7">
      <g>
       <use xlink:href="#md877c2d34d" x="240.003463" y="147.251856" style="stroke: #000000; stroke-width: 0.8"/>
      </g>
     </g>
     <g id="text_7">
      <!-- 15.0 -->
      <g transform="translate(228.87065 161.850294) scale(0.1 -0.1)">
       <use xlink:href="#DejaVuSans-31"/>
       <use xlink:href="#DejaVuSans-35" x="63.623047"/>
       <use xlink:href="#DejaVuSans-2e" x="127.246094"/>
       <use xlink:href="#DejaVuSans-30" x="159.033203"/>
      </g>
     </g>
    </g>
    <g id="xtick_8">
     <g id="line2d_8">
      <g>
       <use xlink:href="#md877c2d34d" x="270.165625" y="147.251856" style="stroke: #000000; stroke-width: 0.8"/>
      </g>
     </g>
     <g id="text_8">
      <!-- 17.5 -->
      <g transform="translate(259.032812 161.850294) scale(0.1 -0.1)">
       <use xlink:href="#DejaVuSans-31"/>
       <use xlink:href="#DejaVuSans-37" x="63.623047"/>
       <use xlink:href="#DejaVuSans-2e" x="127.246094"/>
       <use xlink:href="#DejaVuSans-35" x="159.033203"/>
      </g>
     </g>
    </g>
    <g id="text_9">
     <!-- Time [s] -->
     <g transform="translate(138.236719 175.528419) scale(0.1 -0.1)">
      <defs>
       <path id="DejaVuSans-54" d="M -19 4666 
L 3928 4666 
L 3928 4134 
L 2272 4134 
L 2272 0 
L 1638 0 
L 1638 4134 
L -19 4134 
L -19 4666 
z
" transform="scale(0.015625)"/>
       <path id="DejaVuSans-69" d="M 603 3500 
L 1178 3500 
L 1178 0 
L 603 0 
L 603 3500 
z
M 603 4863 
L 1178 4863 
L 1178 4134 
L 603 4134 
L 603 4863 
z
" transform="scale(0.015625)"/>
       <path id="DejaVuSans-6d" d="M 3328 2828 
Q 3544 3216 3844 3400 
Q 4144 3584 4550 3584 
Q 5097 3584 5394 3201 
Q 5691 2819 5691 2113 
L 5691 0 
L 5113 0 
L 5113 2094 
Q 5113 2597 4934 2840 
Q 4756 3084 4391 3084 
Q 3944 3084 3684 2787 
Q 3425 2491 3425 1978 
L 3425 0 
L 2847 0 
L 2847 2094 
Q 2847 2600 2669 2842 
Q 2491 3084 2119 3084 
Q 1678 3084 1418 2786 
Q 1159 2488 1159 1978 
L 1159 0 
L 581 0 
L 581 3500 
L 1159 3500 
L 1159 2956 
Q 1356 3278 1631 3431 
Q 1906 3584 2284 3584 
Q 2666 3584 2933 3390 
Q 3200 3197 3328 2828 
z
" transform="scale(0.015625)"/>
       <path id="DejaVuSans-65" d="M 3597 1894 
L 3597 1613 
L 953 1613 
Q 991 1019 1311 708 
Q 1631 397 2203 397 
Q 2534 397 2845 478 
Q 3156 559 3463 722 
L 3463 178 
Q 3153 47 2828 -22 
Q 2503 -91 2169 -91 
Q 1331 -91 842 396 
Q 353 884 353 1716 
Q 353 2575 817 3079 
Q 1281 3584 2069 3584 
Q 2775 3584 3186 3129 
Q 3597 2675 3597 1894 
z
M 3022 2063 
Q 3016 2534 2758 2815 
Q 2500 3097 2075 3097 
Q 1594 3097 1305 2825 
Q 1016 2553 972 2059 
L 3022 2063 
z
" transform="scale(0.015625)"/>
       <path id="DejaVuSans-20" transform="scale(0.015625)"/>
       <path id="DejaVuSans-5b" d="M 550 4863 
L 1875 4863 
L 1875 4416 
L 1125 4416 
L 1125 -397 
L 1875 -397 
L 1875 -844 
L 550 -844 
L 550 4863 
z
" transform="scale(0.015625)"/>
       <path id="DejaVuSans-73" d="M 2834 3397 
L 2834 2853 
Q 2591 2978 2328 3040 
Q 2066 3103 1784 3103 
Q 1356 3103 1142 2972 
Q 928 2841 928 2578 
Q 928 2378 1081 2264 
Q 1234 2150 1697 2047 
L 1894 2003 
Q 2506 1872 2764 1633 
Q 3022 1394 3022 966 
Q 3022 478 2636 193 
Q 2250 -91 1575 -91 
Q 1294 -91 989 -36 
Q 684 19 347 128 
L 347 722 
Q 666 556 975 473 
Q 1284 391 1588 391 
Q 1994 391 2212 530 
Q 2431 669 2431 922 
Q 2431 1156 2273 1281 
Q 2116 1406 1581 1522 
L 1381 1569 
Q 847 1681 609 1914 
Q 372 2147 372 2553 
Q 372 3047 722 3315 
Q 1072 3584 1716 3584 
Q 2034 3584 2315 3537 
Q 2597 3491 2834 3397 
z
" transform="scale(0.015625)"/>
       <path id="DejaVuSans-5d" d="M 1947 4863 
L 1947 -844 
L 622 -844 
L 622 -397 
L 1369 -397 
L 1369 4416 
L 622 4416 
L 622 4863 
L 1947 4863 
z
" transform="scale(0.015625)"/>
      </defs>
      <use xlink:href="#DejaVuSans-54"/>
      <use xlink:href="#DejaVuSans-69" x="57.958984"/>
      <use xlink:href="#DejaVuSans-6d" x="85.742188"/>
      <use xlink:href="#DejaVuSans-65" x="183.154297"/>
      <use xlink:href="#DejaVuSans-20" x="244.677734"/>
      <use xlink:href="#DejaVuSans-5b" x="276.464844"/>
      <use xlink:href="#DejaVuSans-73" x="315.478516"/>
      <use xlink:href="#DejaVuSans-5d" x="367.578125"/>
     </g>
    </g>
   </g>
   <g id="matplotlib.axis_2">
    <g id="ytick_1">
     <g id="line2d_9">
      <defs>
       <path id="mb4c494f01b" d="M 0 0 
L -3.5 0 
" style="stroke: #000000; stroke-width: 0.8"/>
      </defs>
      <g>
       <use xlink:href="#mb4c494f01b" x="46.965625" y="142.308811" style="stroke: #000000; stroke-width: 0.8"/>
      </g>
     </g>
     <g id="text_10">
      <!-- 0 -->
      <g transform="translate(33.603125 146.10803) scale(0.1 -0.1)">
       <use xlink:href="#DejaVuSans-30"/>
      </g>
     </g>
    </g>
    <g id="ytick_2">
     <g id="line2d_10">
      <g>
       <use xlink:href="#mb4c494f01b" x="46.965625" y="117.077087" style="stroke: #000000; stroke-width: 0.8"/>
      </g>
     </g>
     <g id="text_11">
      <!-- 40 -->
      <g transform="translate(27.240625 120.876305) scale(0.1 -0.1)">
       <defs>
        <path id="DejaVuSans-34" d="M 2419 4116 
L 825 1625 
L 2419 1625 
L 2419 4116 
z
M 2253 4666 
L 3047 4666 
L 3047 1625 
L 3713 1625 
L 3713 1100 
L 3047 1100 
L 3047 0 
L 2419 0 
L 2419 1100 
L 313 1100 
L 313 1709 
L 2253 4666 
z
" transform="scale(0.015625)"/>
       </defs>
       <use xlink:href="#DejaVuSans-34"/>
       <use xlink:href="#DejaVuSans-30" x="63.623047"/>
      </g>
     </g>
    </g>
    <g id="ytick_3">
     <g id="line2d_11">
      <g>
       <use xlink:href="#mb4c494f01b" x="46.965625" y="91.845362" style="stroke: #000000; stroke-width: 0.8"/>
      </g>
     </g>
     <g id="text_12">
      <!-- 80 -->
      <g transform="translate(27.240625 95.644581) scale(0.1 -0.1)">
       <defs>
        <path id="DejaVuSans-38" d="M 2034 2216 
Q 1584 2216 1326 1975 
Q 1069 1734 1069 1313 
Q 1069 891 1326 650 
Q 1584 409 2034 409 
Q 2484 409 2743 651 
Q 3003 894 3003 1313 
Q 3003 1734 2745 1975 
Q 2488 2216 2034 2216 
z
M 1403 2484 
Q 997 2584 770 2862 
Q 544 3141 544 3541 
Q 544 4100 942 4425 
Q 1341 4750 2034 4750 
Q 2731 4750 3128 4425 
Q 3525 4100 3525 3541 
Q 3525 3141 3298 2862 
Q 3072 2584 2669 2484 
Q 3125 2378 3379 2068 
Q 3634 1759 3634 1313 
Q 3634 634 3220 271 
Q 2806 -91 2034 -91 
Q 1263 -91 848 271 
Q 434 634 434 1313 
Q 434 1759 690 2068 
Q 947 2378 1403 2484 
z
M 1172 3481 
Q 1172 3119 1398 2916 
Q 1625 2713 2034 2713 
Q 2441 2713 2670 2916 
Q 2900 3119 2900 3481 
Q 2900 3844 2670 4047 
Q 2441 4250 2034 4250 
Q 1625 4250 1398 4047 
Q 1172 3844 1172 3481 
z
" transform="scale(0.015625)"/>
       </defs>
       <use xlink:href="#DejaVuSans-38"/>
       <use xlink:href="#DejaVuSans-30" x="63.623047"/>
      </g>
     </g>
    </g>
    <g id="ytick_4">
     <g id="line2d_12">
      <g>
       <use xlink:href="#mb4c494f01b" x="46.965625" y="66.613637" style="stroke: #000000; stroke-width: 0.8"/>
      </g>
     </g>
     <g id="text_13">
      <!-- 120 -->
      <g transform="translate(20.878125 70.412856) scale(0.1 -0.1)">
       <use xlink:href="#DejaVuSans-31"/>
       <use xlink:href="#DejaVuSans-32" x="63.623047"/>
       <use xlink:href="#DejaVuSans-30" x="127.246094"/>
      </g>
     </g>
    </g>
    <g id="ytick_5">
     <g id="line2d_13">
      <g>
       <use xlink:href="#mb4c494f01b" x="46.965625" y="41.381912" style="stroke: #000000; stroke-width: 0.8"/>
      </g>
     </g>
     <g id="text_14">
      <!-- 160 -->
      <g transform="translate(20.878125 45.181131) scale(0.1 -0.1)">
       <defs>
        <path id="DejaVuSans-36" d="M 2113 2584 
Q 1688 2584 1439 2293 
Q 1191 2003 1191 1497 
Q 1191 994 1439 701 
Q 1688 409 2113 409 
Q 2538 409 2786 701 
Q 3034 994 3034 1497 
Q 3034 2003 2786 2293 
Q 2538 2584 2113 2584 
z
M 3366 4563 
L 3366 3988 
Q 3128 4100 2886 4159 
Q 2644 4219 2406 4219 
Q 1781 4219 1451 3797 
Q 1122 3375 1075 2522 
Q 1259 2794 1537 2939 
Q 1816 3084 2150 3084 
Q 2853 3084 3261 2657 
Q 3669 2231 3669 1497 
Q 3669 778 3244 343 
Q 2819 -91 2113 -91 
Q 1303 -91 875 529 
Q 447 1150 447 2328 
Q 447 3434 972 4092 
Q 1497 4750 2381 4750 
Q 2619 4750 2861 4703 
Q 3103 4656 3366 4563 
z
" transform="scale(0.015625)"/>
       </defs>
       <use xlink:href="#DejaVuSans-31"/>
       <use xlink:href="#DejaVuSans-36" x="63.623047"/>
       <use xlink:href="#DejaVuSans-30" x="127.246094"/>
      </g>
     </g>
    </g>
    <g id="text_15">
     <!-- Position [cm] -->
     <g transform="translate(14.798437 124.386075) rotate(-90) scale(0.1 -0.1)">
      <defs>
       <path id="DejaVuSans-50" d="M 1259 4147 
L 1259 2394 
L 2053 2394 
Q 2494 2394 2734 2622 
Q 2975 2850 2975 3272 
Q 2975 3691 2734 3919 
Q 2494 4147 2053 4147 
L 1259 4147 
z
M 628 4666 
L 2053 4666 
Q 2838 4666 3239 4311 
Q 3641 3956 3641 3272 
Q 3641 2581 3239 2228 
Q 2838 1875 2053 1875 
L 1259 1875 
L 1259 0 
L 628 0 
L 628 4666 
z
" transform="scale(0.015625)"/>
       <path id="DejaVuSans-6f" d="M 1959 3097 
Q 1497 3097 1228 2736 
Q 959 2375 959 1747 
Q 959 1119 1226 758 
Q 1494 397 1959 397 
Q 2419 397 2687 759 
Q 2956 1122 2956 1747 
Q 2956 2369 2687 2733 
Q 2419 3097 1959 3097 
z
M 1959 3584 
Q 2709 3584 3137 3096 
Q 3566 2609 3566 1747 
Q 3566 888 3137 398 
Q 2709 -91 1959 -91 
Q 1206 -91 779 398 
Q 353 888 353 1747 
Q 353 2609 779 3096 
Q 1206 3584 1959 3584 
z
" transform="scale(0.015625)"/>
       <path id="DejaVuSans-74" d="M 1172 4494 
L 1172 3500 
L 2356 3500 
L 2356 3053 
L 1172 3053 
L 1172 1153 
Q 1172 725 1289 603 
Q 1406 481 1766 481 
L 2356 481 
L 2356 0 
L 1766 0 
Q 1100 0 847 248 
Q 594 497 594 1153 
L 594 3053 
L 172 3053 
L 172 3500 
L 594 3500 
L 594 4494 
L 1172 4494 
z
" transform="scale(0.015625)"/>
       <path id="DejaVuSans-6e" d="M 3513 2113 
L 3513 0 
L 2938 0 
L 2938 2094 
Q 2938 2591 2744 2837 
Q 2550 3084 2163 3084 
Q 1697 3084 1428 2787 
Q 1159 2491 1159 1978 
L 1159 0 
L 581 0 
L 581 3500 
L 1159 3500 
L 1159 2956 
Q 1366 3272 1645 3428 
Q 1925 3584 2291 3584 
Q 2894 3584 3203 3211 
Q 3513 2838 3513 2113 
z
" transform="scale(0.015625)"/>
       <path id="DejaVuSans-63" d="M 3122 3366 
L 3122 2828 
Q 2878 2963 2633 3030 
Q 2388 3097 2138 3097 
Q 1578 3097 1268 2742 
Q 959 2388 959 1747 
Q 959 1106 1268 751 
Q 1578 397 2138 397 
Q 2388 397 2633 464 
Q 2878 531 3122 666 
L 3122 134 
Q 2881 22 2623 -34 
Q 2366 -91 2075 -91 
Q 1284 -91 818 406 
Q 353 903 353 1747 
Q 353 2603 823 3093 
Q 1294 3584 2113 3584 
Q 2378 3584 2631 3529 
Q 2884 3475 3122 3366 
z
" transform="scale(0.015625)"/>
      </defs>
      <use xlink:href="#DejaVuSans-50"/>
      <use xlink:href="#DejaVuSans-6f" x="56.677734"/>
      <use xlink:href="#DejaVuSans-73" x="117.859375"/>
      <use xlink:href="#DejaVuSans-69" x="169.958984"/>
      <use xlink:href="#DejaVuSans-74" x="197.742188"/>
      <use xlink:href="#DejaVuSans-69" x="236.951172"/>
      <use xlink:href="#DejaVuSans-6f" x="264.734375"/>
      <use xlink:href="#DejaVuSans-6e" x="325.916016"/>
      <use xlink:href="#DejaVuSans-20" x="389.294922"/>
      <use xlink:href="#DejaVuSans-5b" x="421.082031"/>
      <use xlink:href="#DejaVuSans-63" x="460.095703"/>
      <use xlink:href="#DejaVuSans-6d" x="515.076172"/>
      <use xlink:href="#DejaVuSans-5d" x="612.488281"/>
     </g>
    </g>
   </g>
   <g id="line2d_14">
    <path d="M 59.03049 140.706481 
L 59.633733 139.509539 
L 60.236976 138.779701 
L 62.649949 134.540325 
L 63.253193 132.829499 
L 63.856436 131.518538 
L 64.459679 129.75872 
L 65.062922 127.052418 
L 65.666166 125.576924 
L 66.269409 122.848701 
L 67.475895 118.803709 
L 68.682382 112.874287 
L 74.111571 88.937858 
L 74.714814 86.91602 
L 75.921301 81.721645 
L 76.524544 80.217395 
L 78.937517 68.279378 
L 79.54076 65.072527 
L 80.144003 62.745376 
L 81.35049 58.89442 
L 83.16022 52.350115 
L 83.763463 49.547957 
L 84.366706 47.73077 
L 85.573193 42.602322 
L 86.176436 41.964965 
L 86.779679 43.207888 
L 87.382922 44.708784 
L 87.986166 46.531689 
L 88.589409 47.791581 
L 89.192652 48.657151 
L 89.795895 49.957806 
L 90.399139 52.317149 
L 92.208868 61.257257 
L 94.018598 70.819149 
L 95.225084 76.420186 
L 95.828328 78.33992 
L 98.241301 89.877627 
L 100.05103 97.8337 
L 100.654274 99.812152 
L 101.257517 102.749449 
L 103.67049 112.48045 
L 104.273733 115.235478 
L 105.48022 119.474706 
L 107.289949 127.620432 
L 107.893193 129.374608 
L 108.496436 131.917582 
L 109.099679 133.86204 
L 109.702922 135.260726 
L 110.306166 137.300469 
L 110.909409 138.687325 
L 111.512652 140.361066 
L 112.115895 141.662459 
L 112.719139 141.622252 
L 113.322382 140.714802 
L 113.925625 140.46539 
L 114.528868 139.452924 
L 115.132111 137.550772 
L 116.338598 133.028234 
L 118.148328 127.4138 
L 118.751571 126.368472 
L 119.354814 124.598399 
L 121.164544 118.0323 
L 122.37103 113.766775 
L 122.974274 111.27268 
L 123.577517 109.373999 
L 124.784003 104.071502 
L 126.593733 94.934988 
L 127.80022 89.730266 
L 131.419679 74.768031 
L 132.022922 71.823114 
L 132.626166 69.688191 
L 134.435895 60.99321 
L 136.848868 50.171878 
L 138.658598 43.726125 
L 139.261841 41.411856 
L 139.865084 43.515055 
L 140.468328 46.574357 
L 142.881301 56.224532 
L 143.484544 58.679981 
L 145.897517 71.8408 
L 147.104003 77.050368 
L 148.31049 83.594967 
L 150.723463 95.504123 
L 151.326706 97.570741 
L 151.929949 100.823061 
L 153.136436 106.189115 
L 155.549409 116.406852 
L 156.152652 118.698316 
L 157.962382 126.911358 
L 159.168868 131.778486 
L 159.772111 133.583248 
L 160.375355 135.903567 
L 161.581841 139.148474 
L 162.185084 141.42883 
L 162.788328 141.609312 
L 163.391571 140.2779 
L 164.598057 138.740497 
L 165.201301 138.358785 
L 165.804544 137.588198 
L 166.407787 136.324819 
L 167.614274 134.609657 
L 168.82076 132.860198 
L 170.027247 131.431688 
L 170.63049 131.028697 
L 171.836976 128.763072 
L 172.44022 127.534623 
L 173.043463 125.555815 
L 173.646706 124.57362 
L 174.249949 123.114293 
L 175.456436 118.955584 
L 176.059679 117.19749 
L 177.266166 112.244786 
L 183.298598 90.472004 
L 183.901841 88.392545 
L 185.711571 80.392818 
L 186.314814 76.554081 
L 188.124544 67.810475 
L 188.727787 63.769043 
L 191.14076 51.494122 
L 193.553733 41.445689 
L 194.156976 45.01906 
L 195.363463 49.724723 
L 198.982922 68.304327 
L 200.792652 79.346026 
L 201.395895 83.06301 
L 202.602382 89.079939 
L 203.808868 96.231008 
L 205.015355 103.079172 
L 206.221841 109.111406 
L 207.428328 114.351023 
L 208.031571 117.605353 
L 211.047787 130.686019 
L 211.65103 132.510512 
L 213.46076 140.850352 
L 214.064003 141.658146 
L 214.667247 142.211856 
L 215.27049 140.80962 
L 215.873733 140.317779 
L 216.476976 139.258491 
L 217.08022 138.57691 
L 218.286706 136.287717 
L 218.889949 134.614109 
L 219.493193 132.009043 
L 221.302922 126.351765 
L 221.906166 124.641639 
L 224.319139 115.140357 
L 224.922382 112.475149 
L 226.128868 106.035452 
L 227.335355 100.745738 
L 229.748328 89.447711 
L 230.954814 83.958297 
L 231.558057 81.990379 
L 232.764544 75.1328 
L 234.574274 68.909132 
L 235.177517 67.008152 
L 235.78076 64.333139 
L 236.384003 62.484188 
L 236.987247 60.156093 
L 238.193733 53.988256 
L 240.003463 44.413225 
L 240.606706 42.063007 
L 241.209949 42.141028 
L 241.813193 43.27099 
L 243.019679 47.982631 
L 244.226166 54.268742 
L 249.655355 85.848024 
L 250.258598 89.065386 
L 251.465084 94.093655 
L 252.068328 97.039737 
L 252.671571 99.402405 
L 253.878057 105.081562 
L 255.084544 110.207634 
L 256.29103 113.947516 
L 258.10076 121.803562 
L 258.704003 123.838978 
L 259.307247 126.499127 
L 259.91049 128.574228 
L 260.513733 129.903363 
L 261.72022 135.06467 
L 262.323463 137.083374 
L 263.529949 141.485637 
L 264.133193 141.955119 
L 264.736436 141.113121 
L 265.339679 139.871424 
L 265.942922 138.997278 
L 266.546166 138.481964 
L 267.149409 138.642742 
L 267.752652 136.930899 
L 268.355895 134.439749 
L 268.959139 133.311719 
L 269.562382 133.107701 
L 269.562382 133.107701 
" clip-path="url(#p1fe35358a2)" style="fill: none; stroke: #000000; stroke-width: 2; stroke-linecap: square"/>
   </g>
   <g id="line2d_15">
    <path d="M 59.03049 138.082588 
L 59.633733 138.526073 
L 60.236976 139.181204 
L 60.84022 138.461732 
L 61.443463 138.173023 
L 62.649949 138.433946 
L 63.253193 136.396593 
L 63.856436 136.491999 
L 64.459679 135.616618 
L 65.062922 132.198315 
L 65.666166 125.779975 
L 66.269409 125.786662 
L 66.872652 125.906923 
L 67.475895 124.822725 
L 68.079139 120.134644 
L 68.682382 117.578672 
L 69.285625 113.447678 
L 69.888868 113.769059 
L 70.492111 114.425178 
L 71.095355 111.093207 
L 71.698598 109.225418 
L 72.301841 106.534106 
L 72.905084 102.360107 
L 73.508328 104.635788 
L 74.111571 98.501064 
L 74.714814 86.396046 
L 75.318057 91.789782 
L 75.921301 103.082009 
L 76.524544 101.59839 
L 77.127787 95.759362 
L 77.73103 92.417702 
L 78.334274 88.050737 
L 78.937517 89.869427 
L 79.54076 88.116366 
L 80.144003 84.523211 
L 80.747247 81.949569 
L 81.35049 74.481876 
L 81.953733 70.915747 
L 82.556976 66.65375 
L 83.16022 48.367502 
L 83.763463 43.258872 
L 84.366706 42.48145 
L 84.969949 43.145758 
L 85.573193 42.655299 
L 86.176436 45.466417 
L 86.779679 51.68676 
L 87.382922 50.600726 
L 87.986166 52.696427 
L 88.589409 50.198261 
L 89.192652 49.444362 
L 89.795895 50.685071 
L 90.399139 44.697166 
L 91.002382 42.543484 
L 91.605625 46.720717 
L 92.208868 54.435622 
L 92.812111 56.962424 
L 93.415355 63.403836 
L 94.018598 63.416411 
L 94.621841 60.403449 
L 95.225084 62.500911 
L 95.828328 69.333682 
L 96.431571 80.774397 
L 97.034814 96.77428 
L 97.638057 100.369948 
L 98.241301 101.007561 
L 98.844544 106.987378 
L 99.447787 108.205059 
L 100.05103 92.040512 
L 100.654274 95.054778 
L 101.86076 107.432502 
L 102.464003 113.755949 
L 103.067247 112.953641 
L 103.67049 108.712316 
L 104.273733 108.323025 
L 104.876976 102.589727 
L 105.48022 100.633614 
L 106.083463 97.896076 
L 106.686706 111.378665 
L 107.289949 114.407246 
L 107.893193 116.115213 
L 108.496436 118.867526 
L 109.099679 125.963342 
L 109.702922 127.447195 
L 110.306166 128.102068 
L 110.909409 135.884503 
L 111.512652 134.314405 
L 112.115895 135.226757 
L 112.719139 138.849474 
L 113.322382 138.323272 
L 113.925625 137.349841 
L 114.528868 137.831461 
L 115.735355 135.450143 
L 116.338598 131.996236 
L 116.941841 131.416201 
L 117.545084 131.429697 
L 118.148328 129.962021 
L 118.751571 131.663624 
L 119.354814 131.220709 
L 120.561301 121.077083 
L 121.164544 116.119207 
L 121.767787 109.356859 
L 122.37103 109.271893 
L 122.974274 106.901443 
L 123.577517 105.867532 
L 124.18076 101.818479 
L 124.784003 98.936029 
L 125.387247 95.508035 
L 125.99049 98.924156 
L 126.593733 98.988558 
L 127.196976 97.640764 
L 129.006706 83.887557 
L 129.609949 81.813936 
L 130.213193 84.145029 
L 130.816436 89.57984 
L 131.419679 86.22636 
L 132.022922 75.087023 
L 132.626166 68.775236 
L 133.229409 60.821575 
L 133.832652 51.15705 
L 134.435895 52.060898 
L 135.642382 57.948856 
L 136.848868 44.445151 
L 137.452111 64.571058 
L 138.055355 59.128888 
L 138.658598 49.420482 
L 139.261841 48.00808 
L 139.865084 45.765913 
L 140.468328 42.515042 
L 141.071571 44.180374 
L 141.674814 46.816141 
L 142.278057 47.879006 
L 142.881301 49.542067 
L 143.484544 57.210252 
L 144.087787 59.576169 
L 145.294274 62.098326 
L 145.897517 65.267436 
L 147.104003 70.43617 
L 147.707247 75.204719 
L 148.31049 85.886525 
L 148.913733 89.727682 
L 149.516976 95.057406 
L 150.12022 95.534582 
L 150.723463 97.86182 
L 151.326706 97.820331 
L 151.929949 94.182471 
L 153.136436 105.050661 
L 153.739679 107.193455 
L 154.342922 106.393846 
L 154.946166 106.430309 
L 155.549409 108.840446 
L 156.152652 112.605454 
L 156.755895 120.997803 
L 157.359139 124.117868 
L 157.962382 122.463295 
L 158.565625 121.160605 
L 159.168868 119.238082 
L 159.772111 124.680634 
L 160.375355 133.689389 
L 161.581841 135.540907 
L 162.185084 138.925127 
L 162.788328 140.855791 
L 163.391571 137.621727 
L 163.994814 136.942858 
L 165.201301 139.733131 
L 165.804544 138.488989 
L 166.407787 135.404079 
L 167.01103 135.532232 
L 167.614274 131.681777 
L 168.217517 136.363021 
L 168.82076 136.604645 
L 169.424003 135.752259 
L 170.027247 140.670979 
L 170.63049 137.448388 
L 171.233733 135.534479 
L 172.44022 124.527801 
L 173.043463 127.347715 
L 173.646706 133.073032 
L 174.249949 131.824294 
L 174.853193 125.709329 
L 175.456436 121.908656 
L 176.059679 114.142362 
L 176.662922 107.872263 
L 177.266166 106.741494 
L 177.869409 105.035989 
L 178.472652 102.452968 
L 179.075895 103.078094 
L 179.679139 100.238618 
L 180.282382 93.854181 
L 180.885625 89.191961 
L 181.488868 88.783841 
L 182.092111 90.168802 
L 182.695355 93.431498 
L 183.298598 90.039152 
L 183.901841 91.1153 
L 184.505084 86.682038 
L 185.108328 87.775059 
L 185.711571 78.239207 
L 186.314814 71.692453 
L 186.918057 71.327732 
L 187.521301 75.294906 
L 188.124544 77.258536 
L 188.727787 70.552619 
L 189.33103 58.281972 
L 189.934274 51.111571 
L 190.537517 52.837512 
L 191.14076 51.058652 
L 191.744003 49.992899 
L 192.347247 43.058477 
L 192.95049 43.230882 
L 193.553733 42.606548 
L 194.156976 44.395101 
L 194.76022 46.57531 
L 195.363463 48.290818 
L 195.966706 51.003481 
L 196.569949 56.59073 
L 197.173193 57.166265 
L 197.776436 56.746089 
L 199.586166 74.787556 
L 200.189409 76.723287 
L 200.792652 82.130675 
L 201.999139 87.965988 
L 202.602382 89.974596 
L 203.205625 91.419984 
L 203.808868 94.300355 
L 205.015355 104.38 
L 205.618598 106.501665 
L 206.221841 107.544428 
L 206.825084 108.899999 
L 208.031571 116.697223 
L 208.634814 122.130045 
L 209.238057 122.658546 
L 209.841301 123.4275 
L 210.444544 125.635017 
L 211.047787 128.397008 
L 211.65103 126.18426 
L 212.254274 128.872241 
L 212.857517 130.411146 
L 213.46076 138.36282 
L 214.064003 139.480983 
L 214.667247 139.708715 
L 215.27049 140.313411 
L 215.873733 140.662275 
L 216.476976 138.408988 
L 217.08022 136.844986 
L 217.683463 137.359905 
L 218.286706 136.065011 
L 218.889949 135.816388 
L 219.493193 134.765227 
L 220.096436 135.31263 
L 220.699679 129.415048 
L 221.302922 127.624569 
L 222.509409 125.384802 
L 223.112652 123.237344 
L 223.715895 118.767803 
L 224.319139 116.972226 
L 224.922382 109.095806 
L 225.525625 106.974105 
L 226.128868 100.775672 
L 226.732111 100.417468 
L 227.335355 96.806361 
L 228.541841 93.278627 
L 229.145084 89.817278 
L 229.748328 87.811784 
L 230.351571 87.06162 
L 232.161301 86.355683 
L 232.764544 81.357526 
L 233.367787 78.420497 
L 233.97103 70.645305 
L 234.574274 73.050454 
L 235.78076 64.249804 
L 236.987247 53.929292 
L 237.59049 54.283025 
L 238.193733 53.391362 
L 238.796976 51.658288 
L 239.40022 50.841066 
L 240.606706 42.243314 
L 241.209949 42.391214 
L 242.416436 44.845625 
L 243.019679 43.502783 
L 243.622922 43.133043 
L 244.829409 51.355934 
L 245.432652 51.564588 
L 246.035895 55.258841 
L 247.242382 74.513961 
L 247.845625 77.449797 
L 248.448868 75.836065 
L 249.052111 78.668248 
L 250.258598 90.302957 
L 250.861841 94.316015 
L 251.465084 94.566379 
L 252.068328 94.111726 
L 252.671571 101.514069 
L 253.274814 104.618797 
L 253.878057 109.704581 
L 254.481301 111.696355 
L 255.687787 114.739453 
L 256.894274 118.84771 
L 257.497517 112.931414 
L 258.704003 118.123077 
L 259.307247 125.384342 
L 259.91049 126.831162 
L 260.513733 130.171831 
L 261.116976 134.343082 
L 261.72022 133.101041 
L 262.323463 133.48714 
L 262.926706 136.663585 
L 263.529949 136.15984 
L 264.133193 140.238231 
L 264.736436 136.028049 
L 265.339679 138.209901 
L 265.942922 138.742131 
L 266.546166 136.440181 
L 267.149409 135.072219 
L 267.752652 137.074815 
L 268.355895 136.076694 
L 268.959139 136.961777 
L 269.562382 137.49033 
L 269.562382 137.49033 
" clip-path="url(#p1fe35358a2)" style="fill: none; stroke: #6235e0; stroke-width: 2; stroke-linecap: square"/>
   </g>
   <g id="line2d_16">
    <path d="M 59.633733 92.75474 
L 62.649949 90.821545 
L 65.666166 101.069927 
L 68.682382 95.670041 
L 71.698598 98.924074 
L 74.714814 106.252063 
L 77.73103 102.484177 
L 80.747247 100.107115 
L 83.763463 84.651158 
L 86.779679 100.506996 
L 89.795895 95.337314 
L 92.812111 100.012807 
L 95.828328 88.985906 
L 98.844544 96.74295 
L 101.86076 94.923058 
L 104.876976 104.613597 
L 107.893193 104.215901 
L 110.909409 103.480798 
L 113.925625 105.420598 
L 116.941841 98.315145 
L 119.958057 92.09357 
L 122.974274 90.168321 
L 125.99049 102.479516 
L 129.006706 98.187881 
L 132.022922 95.246516 
L 135.039139 93.262967 
L 138.055355 99.448871 
L 141.071571 106.57053 
L 144.087787 97.084243 
L 147.104003 89.845075 
L 150.12022 96.719499 
L 153.136436 91.160553 
L 156.152652 106.359124 
L 159.168868 89.42513 
L 162.185084 105.640727 
L 165.201301 101.062304 
L 168.217517 110.955534 
L 171.233733 97.739306 
L 174.249949 97.897856 
L 177.266166 95.019406 
L 180.282382 95.491586 
L 183.298598 97.741684 
L 186.314814 101.120521 
L 189.33103 90.932663 
L 192.347247 99.003948 
L 195.363463 86.206041 
L 198.379679 92.646154 
L 201.395895 94.968965 
L 204.412111 101.22969 
L 207.428328 103.822697 
L 210.444544 104.8495 
L 213.46076 101.627978 
L 216.476976 92.655154 
L 219.493193 98.307488 
L 222.509409 92.332428 
L 225.525625 106.880209 
L 228.541841 91.363657 
L 231.558057 96.392307 
L 234.574274 103.589824 
L 237.59049 107.172142 
L 240.606706 100.147709 
L 243.622922 99.132078 
L 246.639139 103.712773 
L 249.655355 92.726644 
L 252.671571 93.470634 
L 255.687787 94.002413 
L 258.704003 96.595748 
L 261.72022 102.342454 
L 264.736436 102.997111 
L 267.752652 109.612721 
" clip-path="url(#p1fe35358a2)" style="fill: none; stroke-dasharray: 7.4,3.2; stroke-dashoffset: 0; stroke: #808080; stroke-width: 2"/>
   </g>
   <g id="patch_3">
    <path d="M 46.965625 142.308811 
L 46.965625 41.381912 
" style="fill: none; stroke: #000000; stroke-width: 0.8; stroke-linejoin: miter; stroke-linecap: square"/>
   </g>
   <g id="patch_4">
    <path d="M 59.03049 147.251856 
L 270.165625 147.251856 
" style="fill: none; stroke: #000000; stroke-width: 0.8; stroke-linejoin: miter; stroke-linecap: square"/>
   </g>
   <g id="legend_1">
    <g id="line2d_17">
     <path d="M 183.661625 12.820316 
L 188.866625 12.820316 
L 194.071625 12.820316 
" style="fill: none; stroke: #000000; stroke-width: 2; stroke-linecap: square"/>
    </g>
    <g id="text_16">
     <!-- Ground Truth -->
     <g transform="translate(199.623625 15.249316) scale(0.0694 -0.0694)">
      <defs>
       <path id="DejaVuSans-47" d="M 3809 666 
L 3809 1919 
L 2778 1919 
L 2778 2438 
L 4434 2438 
L 4434 434 
Q 4069 175 3628 42 
Q 3188 -91 2688 -91 
Q 1594 -91 976 548 
Q 359 1188 359 2328 
Q 359 3472 976 4111 
Q 1594 4750 2688 4750 
Q 3144 4750 3555 4637 
Q 3966 4525 4313 4306 
L 4313 3634 
Q 3963 3931 3569 4081 
Q 3175 4231 2741 4231 
Q 1884 4231 1454 3753 
Q 1025 3275 1025 2328 
Q 1025 1384 1454 906 
Q 1884 428 2741 428 
Q 3075 428 3337 486 
Q 3600 544 3809 666 
z
" transform="scale(0.015625)"/>
       <path id="DejaVuSans-72" d="M 2631 2963 
Q 2534 3019 2420 3045 
Q 2306 3072 2169 3072 
Q 1681 3072 1420 2755 
Q 1159 2438 1159 1844 
L 1159 0 
L 581 0 
L 581 3500 
L 1159 3500 
L 1159 2956 
Q 1341 3275 1631 3429 
Q 1922 3584 2338 3584 
Q 2397 3584 2469 3576 
Q 2541 3569 2628 3553 
L 2631 2963 
z
" transform="scale(0.015625)"/>
       <path id="DejaVuSans-75" d="M 544 1381 
L 544 3500 
L 1119 3500 
L 1119 1403 
Q 1119 906 1312 657 
Q 1506 409 1894 409 
Q 2359 409 2629 706 
Q 2900 1003 2900 1516 
L 2900 3500 
L 3475 3500 
L 3475 0 
L 2900 0 
L 2900 538 
Q 2691 219 2414 64 
Q 2138 -91 1772 -91 
Q 1169 -91 856 284 
Q 544 659 544 1381 
z
M 1991 3584 
L 1991 3584 
z
" transform="scale(0.015625)"/>
       <path id="DejaVuSans-64" d="M 2906 2969 
L 2906 4863 
L 3481 4863 
L 3481 0 
L 2906 0 
L 2906 525 
Q 2725 213 2448 61 
Q 2172 -91 1784 -91 
Q 1150 -91 751 415 
Q 353 922 353 1747 
Q 353 2572 751 3078 
Q 1150 3584 1784 3584 
Q 2172 3584 2448 3432 
Q 2725 3281 2906 2969 
z
M 947 1747 
Q 947 1113 1208 752 
Q 1469 391 1925 391 
Q 2381 391 2643 752 
Q 2906 1113 2906 1747 
Q 2906 2381 2643 2742 
Q 2381 3103 1925 3103 
Q 1469 3103 1208 2742 
Q 947 2381 947 1747 
z
" transform="scale(0.015625)"/>
       <path id="DejaVuSans-68" d="M 3513 2113 
L 3513 0 
L 2938 0 
L 2938 2094 
Q 2938 2591 2744 2837 
Q 2550 3084 2163 3084 
Q 1697 3084 1428 2787 
Q 1159 2491 1159 1978 
L 1159 0 
L 581 0 
L 581 4863 
L 1159 4863 
L 1159 2956 
Q 1366 3272 1645 3428 
Q 1925 3584 2291 3584 
Q 2894 3584 3203 3211 
Q 3513 2838 3513 2113 
z
" transform="scale(0.015625)"/>
      </defs>
      <use xlink:href="#DejaVuSans-47"/>
      <use xlink:href="#DejaVuSans-72" x="77.490234"/>
      <use xlink:href="#DejaVuSans-6f" x="116.353516"/>
      <use xlink:href="#DejaVuSans-75" x="177.535156"/>
      <use xlink:href="#DejaVuSans-6e" x="240.914062"/>
      <use xlink:href="#DejaVuSans-64" x="304.292969"/>
      <use xlink:href="#DejaVuSans-20" x="367.769531"/>
      <use xlink:href="#DejaVuSans-54" x="399.556641"/>
      <use xlink:href="#DejaVuSans-72" x="445.890625"/>
      <use xlink:href="#DejaVuSans-75" x="487.003906"/>
      <use xlink:href="#DejaVuSans-74" x="550.382812"/>
      <use xlink:href="#DejaVuSans-68" x="589.591797"/>
     </g>
    </g>
    <g id="line2d_18">
     <path d="M 183.661625 21.271934 
L 188.866625 21.271934 
L 194.071625 21.271934 
" style="fill: none; stroke: #6235e0; stroke-width: 2; stroke-linecap: square"/>
    </g>
    <g id="text_17">
     <!-- CEBRA-Behavior -->
     <g transform="translate(199.623625 23.700934) scale(0.0694 -0.0694)">
      <defs>
       <path id="DejaVuSans-43" d="M 4122 4306 
L 4122 3641 
Q 3803 3938 3442 4084 
Q 3081 4231 2675 4231 
Q 1875 4231 1450 3742 
Q 1025 3253 1025 2328 
Q 1025 1406 1450 917 
Q 1875 428 2675 428 
Q 3081 428 3442 575 
Q 3803 722 4122 1019 
L 4122 359 
Q 3791 134 3420 21 
Q 3050 -91 2638 -91 
Q 1578 -91 968 557 
Q 359 1206 359 2328 
Q 359 3453 968 4101 
Q 1578 4750 2638 4750 
Q 3056 4750 3426 4639 
Q 3797 4528 4122 4306 
z
" transform="scale(0.015625)"/>
       <path id="DejaVuSans-45" d="M 628 4666 
L 3578 4666 
L 3578 4134 
L 1259 4134 
L 1259 2753 
L 3481 2753 
L 3481 2222 
L 1259 2222 
L 1259 531 
L 3634 531 
L 3634 0 
L 628 0 
L 628 4666 
z
" transform="scale(0.015625)"/>
       <path id="DejaVuSans-42" d="M 1259 2228 
L 1259 519 
L 2272 519 
Q 2781 519 3026 730 
Q 3272 941 3272 1375 
Q 3272 1813 3026 2020 
Q 2781 2228 2272 2228 
L 1259 2228 
z
M 1259 4147 
L 1259 2741 
L 2194 2741 
Q 2656 2741 2882 2914 
Q 3109 3088 3109 3444 
Q 3109 3797 2882 3972 
Q 2656 4147 2194 4147 
L 1259 4147 
z
M 628 4666 
L 2241 4666 
Q 2963 4666 3353 4366 
Q 3744 4066 3744 3513 
Q 3744 3084 3544 2831 
Q 3344 2578 2956 2516 
Q 3422 2416 3680 2098 
Q 3938 1781 3938 1306 
Q 3938 681 3513 340 
Q 3088 0 2303 0 
L 628 0 
L 628 4666 
z
" transform="scale(0.015625)"/>
       <path id="DejaVuSans-52" d="M 2841 2188 
Q 3044 2119 3236 1894 
Q 3428 1669 3622 1275 
L 4263 0 
L 3584 0 
L 2988 1197 
Q 2756 1666 2539 1819 
Q 2322 1972 1947 1972 
L 1259 1972 
L 1259 0 
L 628 0 
L 628 4666 
L 2053 4666 
Q 2853 4666 3247 4331 
Q 3641 3997 3641 3322 
Q 3641 2881 3436 2590 
Q 3231 2300 2841 2188 
z
M 1259 4147 
L 1259 2491 
L 2053 2491 
Q 2509 2491 2742 2702 
Q 2975 2913 2975 3322 
Q 2975 3731 2742 3939 
Q 2509 4147 2053 4147 
L 1259 4147 
z
" transform="scale(0.015625)"/>
       <path id="DejaVuSans-41" d="M 2188 4044 
L 1331 1722 
L 3047 1722 
L 2188 4044 
z
M 1831 4666 
L 2547 4666 
L 4325 0 
L 3669 0 
L 3244 1197 
L 1141 1197 
L 716 0 
L 50 0 
L 1831 4666 
z
" transform="scale(0.015625)"/>
       <path id="DejaVuSans-2d" d="M 313 2009 
L 1997 2009 
L 1997 1497 
L 313 1497 
L 313 2009 
z
" transform="scale(0.015625)"/>
       <path id="DejaVuSans-61" d="M 2194 1759 
Q 1497 1759 1228 1600 
Q 959 1441 959 1056 
Q 959 750 1161 570 
Q 1363 391 1709 391 
Q 2188 391 2477 730 
Q 2766 1069 2766 1631 
L 2766 1759 
L 2194 1759 
z
M 3341 1997 
L 3341 0 
L 2766 0 
L 2766 531 
Q 2569 213 2275 61 
Q 1981 -91 1556 -91 
Q 1019 -91 701 211 
Q 384 513 384 1019 
Q 384 1609 779 1909 
Q 1175 2209 1959 2209 
L 2766 2209 
L 2766 2266 
Q 2766 2663 2505 2880 
Q 2244 3097 1772 3097 
Q 1472 3097 1187 3025 
Q 903 2953 641 2809 
L 641 3341 
Q 956 3463 1253 3523 
Q 1550 3584 1831 3584 
Q 2591 3584 2966 3190 
Q 3341 2797 3341 1997 
z
" transform="scale(0.015625)"/>
       <path id="DejaVuSans-76" d="M 191 3500 
L 800 3500 
L 1894 563 
L 2988 3500 
L 3597 3500 
L 2284 0 
L 1503 0 
L 191 3500 
z
" transform="scale(0.015625)"/>
      </defs>
      <use xlink:href="#DejaVuSans-43"/>
      <use xlink:href="#DejaVuSans-45" x="69.824219"/>
      <use xlink:href="#DejaVuSans-42" x="133.007812"/>
      <use xlink:href="#DejaVuSans-52" x="201.611328"/>
      <use xlink:href="#DejaVuSans-41" x="267.09375"/>
      <use xlink:href="#DejaVuSans-2d" x="333.251953"/>
      <use xlink:href="#DejaVuSans-42" x="365.710938"/>
      <use xlink:href="#DejaVuSans-65" x="434.314453"/>
      <use xlink:href="#DejaVuSans-68" x="495.837891"/>
      <use xlink:href="#DejaVuSans-61" x="559.216797"/>
      <use xlink:href="#DejaVuSans-76" x="620.496094"/>
      <use xlink:href="#DejaVuSans-69" x="679.675781"/>
      <use xlink:href="#DejaVuSans-6f" x="707.458984"/>
      <use xlink:href="#DejaVuSans-72" x="768.640625"/>
     </g>
    </g>
    <g id="line2d_19">
     <path d="M 183.661625 29.723553 
L 188.866625 29.723553 
L 194.071625 29.723553 
" style="fill: none; stroke-dasharray: 7.4,3.2; stroke-dashoffset: 0; stroke: #808080; stroke-width: 2"/>
    </g>
    <g id="text_18">
     <!-- CEBRA-Shuffle -->
     <g transform="translate(199.623625 32.152553) scale(0.0694 -0.0694)">
      <defs>
       <path id="DejaVuSans-53" d="M 3425 4513 
L 3425 3897 
Q 3066 4069 2747 4153 
Q 2428 4238 2131 4238 
Q 1616 4238 1336 4038 
Q 1056 3838 1056 3469 
Q 1056 3159 1242 3001 
Q 1428 2844 1947 2747 
L 2328 2669 
Q 3034 2534 3370 2195 
Q 3706 1856 3706 1288 
Q 3706 609 3251 259 
Q 2797 -91 1919 -91 
Q 1588 -91 1214 -16 
Q 841 59 441 206 
L 441 856 
Q 825 641 1194 531 
Q 1563 422 1919 422 
Q 2459 422 2753 634 
Q 3047 847 3047 1241 
Q 3047 1584 2836 1778 
Q 2625 1972 2144 2069 
L 1759 2144 
Q 1053 2284 737 2584 
Q 422 2884 422 3419 
Q 422 4038 858 4394 
Q 1294 4750 2059 4750 
Q 2388 4750 2728 4690 
Q 3069 4631 3425 4513 
z
" transform="scale(0.015625)"/>
       <path id="DejaVuSans-66" d="M 2375 4863 
L 2375 4384 
L 1825 4384 
Q 1516 4384 1395 4259 
Q 1275 4134 1275 3809 
L 1275 3500 
L 2222 3500 
L 2222 3053 
L 1275 3053 
L 1275 0 
L 697 0 
L 697 3053 
L 147 3053 
L 147 3500 
L 697 3500 
L 697 3744 
Q 697 4328 969 4595 
Q 1241 4863 1831 4863 
L 2375 4863 
z
" transform="scale(0.015625)"/>
       <path id="DejaVuSans-6c" d="M 603 4863 
L 1178 4863 
L 1178 0 
L 603 0 
L 603 4863 
z
" transform="scale(0.015625)"/>
      </defs>
      <use xlink:href="#DejaVuSans-43"/>
      <use xlink:href="#DejaVuSans-45" x="69.824219"/>
      <use xlink:href="#DejaVuSans-42" x="133.007812"/>
      <use xlink:href="#DejaVuSans-52" x="201.611328"/>
      <use xlink:href="#DejaVuSans-41" x="267.09375"/>
      <use xlink:href="#DejaVuSans-2d" x="333.251953"/>
      <use xlink:href="#DejaVuSans-53" x="369.335938"/>
      <use xlink:href="#DejaVuSans-68" x="432.8125"/>
      <use xlink:href="#DejaVuSans-75" x="496.191406"/>
      <use xlink:href="#DejaVuSans-66" x="559.570312"/>
      <use xlink:href="#DejaVuSans-66" x="594.775391"/>
      <use xlink:href="#DejaVuSans-6c" x="629.980469"/>
      <use xlink:href="#DejaVuSans-65" x="657.763672"/>
     </g>
    </g>
   </g>
  </g>
 </g>
 <defs>
  <clipPath id="p1fe35358a2">
   <rect x="46.965625" y="36.371856" width="223.2" height="110.88"/>
  </clipPath>
 </defs>
</svg>
