<?xml version="1.0" encoding="utf-8" standalone="no"?>
<!DOCTYPE svg PUBLIC "-//W3C//DTD SVG 1.1//EN"
  "http://www.w3.org/Graphics/SVG/1.1/DTD/svg11.dtd">
<svg xmlns:xlink="http://www.w3.org/1999/xlink" width="178.438929pt" height="241.355585pt" viewBox="0 0 178.438929 241.355585" xmlns="http://www.w3.org/2000/svg" version="1.1">
 <metadata>
  <rdf:RDF xmlns:dc="http://purl.org/dc/elements/1.1/" xmlns:cc="http://creativecommons.org/ns#" xmlns:rdf="http://www.w3.org/1999/02/22-rdf-syntax-ns#">
   <cc:Work>
    <dc:type rdf:resource="http://purl.org/dc/dcmitype/StillImage"/>
    <dc:date>2025-06-06T15:20:38.030866</dc:date>
    <dc:format>image/svg+xml</dc:format>
    <dc:creator>
     <cc:Agent>
      <dc:title>Matplotlib v3.9.4, https://matplotlib.org/</dc:title>
     </cc:Agent>
    </dc:creator>
   </cc:Work>
  </rdf:RDF>
 </metadata>
 <defs>
  <style type="text/css">*{stroke-linejoin: round; stroke-linecap: butt}</style>
 </defs>
 <g id="figure_1">
  <g id="patch_1">
   <path d="M 0 241.355585 
L 178.438929 241.355585 
L 178.438929 0 
L 0 0 
L 0 241.355585 
z
" style="fill: none"/>
  </g>
  <g id="axes_1">
   <g id="patch_2">
    <path d="M 46.965625 188.638125 
L 164.145625 188.638125 
L 164.145625 22.318125 
L 46.965625 22.318125 
L 46.965625 188.638125 
z
" style="fill: none"/>
   </g>
   <g id="matplotlib.axis_1">
    <g id="xtick_1">
     <g id="line2d_1">
      <defs>
       <path id="mde532ada30" d="M 0 0 
L 0 3.5 
" style="stroke: #000000; stroke-width: 0.8"/>
      </defs>
      <g>
       <use xlink:href="#mde532ada30" x="52.291989" y="188.638125" style="stroke: #000000; stroke-width: 0.8"/>
      </g>
     </g>
     <g id="text_1">
      <!-- 10 -->
      <g transform="translate(49.744195 210.008965) rotate(-45) scale(0.1 -0.1)">
       <defs>
        <path id="DejaVuSans-31" d="M 794 531 
L 1825 531 
L 1825 4091 
L 703 3866 
L 703 4441 
L 1819 4666 
L 2450 4666 
L 2450 531 
L 3481 531 
L 3481 0 
L 794 0 
L 794 531 
z
" transform="scale(0.015625)"/>
        <path id="DejaVuSans-30" d="M 2034 4250 
Q 1547 4250 1301 3770 
Q 1056 3291 1056 2328 
Q 1056 1369 1301 889 
Q 1547 409 2034 409 
Q 2525 409 2770 889 
Q 3016 1369 3016 2328 
Q 3016 3291 2770 3770 
Q 2525 4250 2034 4250 
z
M 2034 4750 
Q 2819 4750 3233 4129 
Q 3647 3509 3647 2328 
Q 3647 1150 3233 529 
Q 2819 -91 2034 -91 
Q 1250 -91 836 529 
Q 422 1150 422 2328 
Q 422 3509 836 4129 
Q 1250 4750 2034 4750 
z
" transform="scale(0.015625)"/>
       </defs>
       <use xlink:href="#DejaVuSans-31"/>
       <use xlink:href="#DejaVuSans-30" x="63.623047"/>
      </g>
     </g>
    </g>
    <g id="xtick_2">
     <g id="line2d_2">
      <g>
       <use xlink:href="#mde532ada30" x="72.736617" y="188.638125" style="stroke: #000000; stroke-width: 0.8"/>
      </g>
     </g>
     <g id="text_2">
      <!-- 200 -->
      <g transform="translate(67.939339 214.507932) rotate(-45) scale(0.1 -0.1)">
       <defs>
        <path id="DejaVuSans-32" d="M 1228 531 
L 3431 531 
L 3431 0 
L 469 0 
L 469 531 
Q 828 903 1448 1529 
Q 2069 2156 2228 2338 
Q 2531 2678 2651 2914 
Q 2772 3150 2772 3378 
Q 2772 3750 2511 3984 
Q 2250 4219 1831 4219 
Q 1534 4219 1204 4116 
Q 875 4013 500 3803 
L 500 4441 
Q 881 4594 1212 4672 
Q 1544 4750 1819 4750 
Q 2544 4750 2975 4387 
Q 3406 4025 3406 3419 
Q 3406 3131 3298 2873 
Q 3191 2616 2906 2266 
Q 2828 2175 2409 1742 
Q 1991 1309 1228 531 
z
" transform="scale(0.015625)"/>
       </defs>
       <use xlink:href="#DejaVuSans-32"/>
       <use xlink:href="#DejaVuSans-30" x="63.623047"/>
       <use xlink:href="#DejaVuSans-30" x="127.246094"/>
      </g>
     </g>
    </g>
    <g id="xtick_3">
     <g id="line2d_3">
      <g>
       <use xlink:href="#mde532ada30" x="94.257278" y="188.638125" style="stroke: #000000; stroke-width: 0.8"/>
      </g>
     </g>
     <g id="text_3">
      <!-- 400 -->
      <g transform="translate(89.46 214.507932) rotate(-45) scale(0.1 -0.1)">
       <defs>
        <path id="DejaVuSans-34" d="M 2419 4116 
L 825 1625 
L 2419 1625 
L 2419 4116 
z
M 2253 4666 
L 3047 4666 
L 3047 1625 
L 3713 1625 
L 3713 1100 
L 3047 1100 
L 3047 0 
L 2419 0 
L 2419 1100 
L 313 1100 
L 313 1709 
L 2253 4666 
z
" transform="scale(0.015625)"/>
       </defs>
       <use xlink:href="#DejaVuSans-34"/>
       <use xlink:href="#DejaVuSans-30" x="63.623047"/>
       <use xlink:href="#DejaVuSans-30" x="127.246094"/>
      </g>
     </g>
    </g>
    <g id="xtick_4">
     <g id="line2d_4">
      <g>
       <use xlink:href="#mde532ada30" x="115.777939" y="188.638125" style="stroke: #000000; stroke-width: 0.8"/>
      </g>
     </g>
     <g id="text_4">
      <!-- 600 -->
      <g transform="translate(110.980661 214.507932) rotate(-45) scale(0.1 -0.1)">
       <defs>
        <path id="DejaVuSans-36" d="M 2113 2584 
Q 1688 2584 1439 2293 
Q 1191 2003 1191 1497 
Q 1191 994 1439 701 
Q 1688 409 2113 409 
Q 2538 409 2786 701 
Q 3034 994 3034 1497 
Q 3034 2003 2786 2293 
Q 2538 2584 2113 2584 
z
M 3366 4563 
L 3366 3988 
Q 3128 4100 2886 4159 
Q 2644 4219 2406 4219 
Q 1781 4219 1451 3797 
Q 1122 3375 1075 2522 
Q 1259 2794 1537 2939 
Q 1816 3084 2150 3084 
Q 2853 3084 3261 2657 
Q 3669 2231 3669 1497 
Q 3669 778 3244 343 
Q 2819 -91 2113 -91 
Q 1303 -91 875 529 
Q 447 1150 447 2328 
Q 447 3434 972 4092 
Q 1497 4750 2381 4750 
Q 2619 4750 2861 4703 
Q 3103 4656 3366 4563 
z
" transform="scale(0.015625)"/>
       </defs>
       <use xlink:href="#DejaVuSans-36"/>
       <use xlink:href="#DejaVuSans-30" x="63.623047"/>
       <use xlink:href="#DejaVuSans-30" x="127.246094"/>
      </g>
     </g>
    </g>
    <g id="xtick_5">
     <g id="line2d_5">
      <g>
       <use xlink:href="#mde532ada30" x="137.2986" y="188.638125" style="stroke: #000000; stroke-width: 0.8"/>
      </g>
     </g>
     <g id="text_5">
      <!-- 800 -->
      <g transform="translate(132.501323 214.507932) rotate(-45) scale(0.1 -0.1)">
       <defs>
        <path id="DejaVuSans-38" d="M 2034 2216 
Q 1584 2216 1326 1975 
Q 1069 1734 1069 1313 
Q 1069 891 1326 650 
Q 1584 409 2034 409 
Q 2484 409 2743 651 
Q 3003 894 3003 1313 
Q 3003 1734 2745 1975 
Q 2488 2216 2034 2216 
z
M 1403 2484 
Q 997 2584 770 2862 
Q 544 3141 544 3541 
Q 544 4100 942 4425 
Q 1341 4750 2034 4750 
Q 2731 4750 3128 4425 
Q 3525 4100 3525 3541 
Q 3525 3141 3298 2862 
Q 3072 2584 2669 2484 
Q 3125 2378 3379 2068 
Q 3634 1759 3634 1313 
Q 3634 634 3220 271 
Q 2806 -91 2034 -91 
Q 1263 -91 848 271 
Q 434 634 434 1313 
Q 434 1759 690 2068 
Q 947 2378 1403 2484 
z
M 1172 3481 
Q 1172 3119 1398 2916 
Q 1625 2713 2034 2713 
Q 2441 2713 2670 2916 
Q 2900 3119 2900 3481 
Q 2900 3844 2670 4047 
Q 2441 4250 2034 4250 
Q 1625 4250 1398 4047 
Q 1172 3844 1172 3481 
z
" transform="scale(0.015625)"/>
       </defs>
       <use xlink:href="#DejaVuSans-38"/>
       <use xlink:href="#DejaVuSans-30" x="63.623047"/>
       <use xlink:href="#DejaVuSans-30" x="127.246094"/>
      </g>
     </g>
    </g>
    <g id="xtick_6">
     <g id="line2d_6">
      <g>
       <use xlink:href="#mde532ada30" x="158.819261" y="188.638125" style="stroke: #000000; stroke-width: 0.8"/>
      </g>
     </g>
     <g id="text_6">
      <!-- 1000 -->
      <g transform="translate(151.7725 219.006899) rotate(-45) scale(0.1 -0.1)">
       <use xlink:href="#DejaVuSans-31"/>
       <use xlink:href="#DejaVuSans-30" x="63.623047"/>
       <use xlink:href="#DejaVuSans-30" x="127.246094"/>
       <use xlink:href="#DejaVuSans-30" x="190.869141"/>
      </g>
     </g>
    </g>
    <g id="text_7">
     <!-- # Neurons -->
     <g transform="translate(79.015 232.075898) scale(0.1 -0.1)">
      <defs>
       <path id="DejaVuSans-23" d="M 3272 2816 
L 2363 2816 
L 2100 1772 
L 3016 1772 
L 3272 2816 
z
M 2803 4594 
L 2478 3297 
L 3391 3297 
L 3719 4594 
L 4219 4594 
L 3897 3297 
L 4872 3297 
L 4872 2816 
L 3775 2816 
L 3519 1772 
L 4513 1772 
L 4513 1294 
L 3397 1294 
L 3072 0 
L 2572 0 
L 2894 1294 
L 1978 1294 
L 1656 0 
L 1153 0 
L 1478 1294 
L 494 1294 
L 494 1772 
L 1594 1772 
L 1856 2816 
L 850 2816 
L 850 3297 
L 1978 3297 
L 2297 4594 
L 2803 4594 
z
" transform="scale(0.015625)"/>
       <path id="DejaVuSans-20" transform="scale(0.015625)"/>
       <path id="DejaVuSans-4e" d="M 628 4666 
L 1478 4666 
L 3547 763 
L 3547 4666 
L 4159 4666 
L 4159 0 
L 3309 0 
L 1241 3903 
L 1241 0 
L 628 0 
L 628 4666 
z
" transform="scale(0.015625)"/>
       <path id="DejaVuSans-65" d="M 3597 1894 
L 3597 1613 
L 953 1613 
Q 991 1019 1311 708 
Q 1631 397 2203 397 
Q 2534 397 2845 478 
Q 3156 559 3463 722 
L 3463 178 
Q 3153 47 2828 -22 
Q 2503 -91 2169 -91 
Q 1331 -91 842 396 
Q 353 884 353 1716 
Q 353 2575 817 3079 
Q 1281 3584 2069 3584 
Q 2775 3584 3186 3129 
Q 3597 2675 3597 1894 
z
M 3022 2063 
Q 3016 2534 2758 2815 
Q 2500 3097 2075 3097 
Q 1594 3097 1305 2825 
Q 1016 2553 972 2059 
L 3022 2063 
z
" transform="scale(0.015625)"/>
       <path id="DejaVuSans-75" d="M 544 1381 
L 544 3500 
L 1119 3500 
L 1119 1403 
Q 1119 906 1312 657 
Q 1506 409 1894 409 
Q 2359 409 2629 706 
Q 2900 1003 2900 1516 
L 2900 3500 
L 3475 3500 
L 3475 0 
L 2900 0 
L 2900 538 
Q 2691 219 2414 64 
Q 2138 -91 1772 -91 
Q 1169 -91 856 284 
Q 544 659 544 1381 
z
M 1991 3584 
L 1991 3584 
z
" transform="scale(0.015625)"/>
       <path id="DejaVuSans-72" d="M 2631 2963 
Q 2534 3019 2420 3045 
Q 2306 3072 2169 3072 
Q 1681 3072 1420 2755 
Q 1159 2438 1159 1844 
L 1159 0 
L 581 0 
L 581 3500 
L 1159 3500 
L 1159 2956 
Q 1341 3275 1631 3429 
Q 1922 3584 2338 3584 
Q 2397 3584 2469 3576 
Q 2541 3569 2628 3553 
L 2631 2963 
z
" transform="scale(0.015625)"/>
       <path id="DejaVuSans-6f" d="M 1959 3097 
Q 1497 3097 1228 2736 
Q 959 2375 959 1747 
Q 959 1119 1226 758 
Q 1494 397 1959 397 
Q 2419 397 2687 759 
Q 2956 1122 2956 1747 
Q 2956 2369 2687 2733 
Q 2419 3097 1959 3097 
z
M 1959 3584 
Q 2709 3584 3137 3096 
Q 3566 2609 3566 1747 
Q 3566 888 3137 398 
Q 2709 -91 1959 -91 
Q 1206 -91 779 398 
Q 353 888 353 1747 
Q 353 2609 779 3096 
Q 1206 3584 1959 3584 
z
" transform="scale(0.015625)"/>
       <path id="DejaVuSans-6e" d="M 3513 2113 
L 3513 0 
L 2938 0 
L 2938 2094 
Q 2938 2591 2744 2837 
Q 2550 3084 2163 3084 
Q 1697 3084 1428 2787 
Q 1159 2491 1159 1978 
L 1159 0 
L 581 0 
L 581 3500 
L 1159 3500 
L 1159 2956 
Q 1366 3272 1645 3428 
Q 1925 3584 2291 3584 
Q 2894 3584 3203 3211 
Q 3513 2838 3513 2113 
z
" transform="scale(0.015625)"/>
       <path id="DejaVuSans-73" d="M 2834 3397 
L 2834 2853 
Q 2591 2978 2328 3040 
Q 2066 3103 1784 3103 
Q 1356 3103 1142 2972 
Q 928 2841 928 2578 
Q 928 2378 1081 2264 
Q 1234 2150 1697 2047 
L 1894 2003 
Q 2506 1872 2764 1633 
Q 3022 1394 3022 966 
Q 3022 478 2636 193 
Q 2250 -91 1575 -91 
Q 1294 -91 989 -36 
Q 684 19 347 128 
L 347 722 
Q 666 556 975 473 
Q 1284 391 1588 391 
Q 1994 391 2212 530 
Q 2431 669 2431 922 
Q 2431 1156 2273 1281 
Q 2116 1406 1581 1522 
L 1381 1569 
Q 847 1681 609 1914 
Q 372 2147 372 2553 
Q 372 3047 722 3315 
Q 1072 3584 1716 3584 
Q 2034 3584 2315 3537 
Q 2597 3491 2834 3397 
z
" transform="scale(0.015625)"/>
      </defs>
      <use xlink:href="#DejaVuSans-23"/>
      <use xlink:href="#DejaVuSans-20" x="83.789062"/>
      <use xlink:href="#DejaVuSans-4e" x="115.576172"/>
      <use xlink:href="#DejaVuSans-65" x="190.380859"/>
      <use xlink:href="#DejaVuSans-75" x="251.904297"/>
      <use xlink:href="#DejaVuSans-72" x="315.283203"/>
      <use xlink:href="#DejaVuSans-6f" x="354.146484"/>
      <use xlink:href="#DejaVuSans-6e" x="415.328125"/>
      <use xlink:href="#DejaVuSans-73" x="478.707031"/>
     </g>
    </g>
   </g>
   <g id="matplotlib.axis_2">
    <g id="ytick_1">
     <g id="line2d_7">
      <defs>
       <path id="mfb4a325da2" d="M 0 0 
L -3.5 0 
" style="stroke: #000000; stroke-width: 0.8"/>
      </defs>
      <g>
       <use xlink:href="#mfb4a325da2" x="46.965625" y="188.638125" style="stroke: #000000; stroke-width: 0.8"/>
      </g>
     </g>
     <g id="text_8">
      <!-- 0 -->
      <g transform="translate(33.603125 192.437344) scale(0.1 -0.1)">
       <use xlink:href="#DejaVuSans-30"/>
      </g>
     </g>
    </g>
    <g id="ytick_2">
     <g id="line2d_8">
      <g>
       <use xlink:href="#mfb4a325da2" x="46.965625" y="133.198125" style="stroke: #000000; stroke-width: 0.8"/>
      </g>
     </g>
     <g id="text_9">
      <!-- 100 -->
      <g transform="translate(20.878125 136.997344) scale(0.1 -0.1)">
       <use xlink:href="#DejaVuSans-31"/>
       <use xlink:href="#DejaVuSans-30" x="63.623047"/>
       <use xlink:href="#DejaVuSans-30" x="127.246094"/>
      </g>
     </g>
    </g>
    <g id="ytick_3">
     <g id="line2d_9">
      <g>
       <use xlink:href="#mfb4a325da2" x="46.965625" y="77.758125" style="stroke: #000000; stroke-width: 0.8"/>
      </g>
     </g>
     <g id="text_10">
      <!-- 200 -->
      <g transform="translate(20.878125 81.557344) scale(0.1 -0.1)">
       <use xlink:href="#DejaVuSans-32"/>
       <use xlink:href="#DejaVuSans-30" x="63.623047"/>
       <use xlink:href="#DejaVuSans-30" x="127.246094"/>
      </g>
     </g>
    </g>
    <g id="ytick_4">
     <g id="line2d_10">
      <g>
       <use xlink:href="#mfb4a325da2" x="46.965625" y="22.318125" style="stroke: #000000; stroke-width: 0.8"/>
      </g>
     </g>
     <g id="text_11">
      <!-- 300 -->
      <g transform="translate(20.878125 26.117344) scale(0.1 -0.1)">
       <defs>
        <path id="DejaVuSans-33" d="M 2597 2516 
Q 3050 2419 3304 2112 
Q 3559 1806 3559 1356 
Q 3559 666 3084 287 
Q 2609 -91 1734 -91 
Q 1441 -91 1130 -33 
Q 819 25 488 141 
L 488 750 
Q 750 597 1062 519 
Q 1375 441 1716 441 
Q 2309 441 2620 675 
Q 2931 909 2931 1356 
Q 2931 1769 2642 2001 
Q 2353 2234 1838 2234 
L 1294 2234 
L 1294 2753 
L 1863 2753 
Q 2328 2753 2575 2939 
Q 2822 3125 2822 3475 
Q 2822 3834 2567 4026 
Q 2313 4219 1838 4219 
Q 1578 4219 1281 4162 
Q 984 4106 628 3988 
L 628 4550 
Q 988 4650 1302 4700 
Q 1616 4750 1894 4750 
Q 2613 4750 3031 4423 
Q 3450 4097 3450 3541 
Q 3450 3153 3228 2886 
Q 3006 2619 2597 2516 
z
" transform="scale(0.015625)"/>
       </defs>
       <use xlink:href="#DejaVuSans-33"/>
       <use xlink:href="#DejaVuSans-30" x="63.623047"/>
       <use xlink:href="#DejaVuSans-30" x="127.246094"/>
      </g>
     </g>
    </g>
    <g id="text_12">
     <!-- Frame difference -->
     <g transform="translate(14.798437 147.821094) rotate(-90) scale(0.1 -0.1)">
      <defs>
       <path id="DejaVuSans-46" d="M 628 4666 
L 3309 4666 
L 3309 4134 
L 1259 4134 
L 1259 2759 
L 3109 2759 
L 3109 2228 
L 1259 2228 
L 1259 0 
L 628 0 
L 628 4666 
z
" transform="scale(0.015625)"/>
       <path id="DejaVuSans-61" d="M 2194 1759 
Q 1497 1759 1228 1600 
Q 959 1441 959 1056 
Q 959 750 1161 570 
Q 1363 391 1709 391 
Q 2188 391 2477 730 
Q 2766 1069 2766 1631 
L 2766 1759 
L 2194 1759 
z
M 3341 1997 
L 3341 0 
L 2766 0 
L 2766 531 
Q 2569 213 2275 61 
Q 1981 -91 1556 -91 
Q 1019 -91 701 211 
Q 384 513 384 1019 
Q 384 1609 779 1909 
Q 1175 2209 1959 2209 
L 2766 2209 
L 2766 2266 
Q 2766 2663 2505 2880 
Q 2244 3097 1772 3097 
Q 1472 3097 1187 3025 
Q 903 2953 641 2809 
L 641 3341 
Q 956 3463 1253 3523 
Q 1550 3584 1831 3584 
Q 2591 3584 2966 3190 
Q 3341 2797 3341 1997 
z
" transform="scale(0.015625)"/>
       <path id="DejaVuSans-6d" d="M 3328 2828 
Q 3544 3216 3844 3400 
Q 4144 3584 4550 3584 
Q 5097 3584 5394 3201 
Q 5691 2819 5691 2113 
L 5691 0 
L 5113 0 
L 5113 2094 
Q 5113 2597 4934 2840 
Q 4756 3084 4391 3084 
Q 3944 3084 3684 2787 
Q 3425 2491 3425 1978 
L 3425 0 
L 2847 0 
L 2847 2094 
Q 2847 2600 2669 2842 
Q 2491 3084 2119 3084 
Q 1678 3084 1418 2786 
Q 1159 2488 1159 1978 
L 1159 0 
L 581 0 
L 581 3500 
L 1159 3500 
L 1159 2956 
Q 1356 3278 1631 3431 
Q 1906 3584 2284 3584 
Q 2666 3584 2933 3390 
Q 3200 3197 3328 2828 
z
" transform="scale(0.015625)"/>
       <path id="DejaVuSans-64" d="M 2906 2969 
L 2906 4863 
L 3481 4863 
L 3481 0 
L 2906 0 
L 2906 525 
Q 2725 213 2448 61 
Q 2172 -91 1784 -91 
Q 1150 -91 751 415 
Q 353 922 353 1747 
Q 353 2572 751 3078 
Q 1150 3584 1784 3584 
Q 2172 3584 2448 3432 
Q 2725 3281 2906 2969 
z
M 947 1747 
Q 947 1113 1208 752 
Q 1469 391 1925 391 
Q 2381 391 2643 752 
Q 2906 1113 2906 1747 
Q 2906 2381 2643 2742 
Q 2381 3103 1925 3103 
Q 1469 3103 1208 2742 
Q 947 2381 947 1747 
z
" transform="scale(0.015625)"/>
       <path id="DejaVuSans-69" d="M 603 3500 
L 1178 3500 
L 1178 0 
L 603 0 
L 603 3500 
z
M 603 4863 
L 1178 4863 
L 1178 4134 
L 603 4134 
L 603 4863 
z
" transform="scale(0.015625)"/>
       <path id="DejaVuSans-66" d="M 2375 4863 
L 2375 4384 
L 1825 4384 
Q 1516 4384 1395 4259 
Q 1275 4134 1275 3809 
L 1275 3500 
L 2222 3500 
L 2222 3053 
L 1275 3053 
L 1275 0 
L 697 0 
L 697 3053 
L 147 3053 
L 147 3500 
L 697 3500 
L 697 3744 
Q 697 4328 969 4595 
Q 1241 4863 1831 4863 
L 2375 4863 
z
" transform="scale(0.015625)"/>
       <path id="DejaVuSans-63" d="M 3122 3366 
L 3122 2828 
Q 2878 2963 2633 3030 
Q 2388 3097 2138 3097 
Q 1578 3097 1268 2742 
Q 959 2388 959 1747 
Q 959 1106 1268 751 
Q 1578 397 2138 397 
Q 2388 397 2633 464 
Q 2878 531 3122 666 
L 3122 134 
Q 2881 22 2623 -34 
Q 2366 -91 2075 -91 
Q 1284 -91 818 406 
Q 353 903 353 1747 
Q 353 2603 823 3093 
Q 1294 3584 2113 3584 
Q 2378 3584 2631 3529 
Q 2884 3475 3122 3366 
z
" transform="scale(0.015625)"/>
      </defs>
      <use xlink:href="#DejaVuSans-46"/>
      <use xlink:href="#DejaVuSans-72" x="50.269531"/>
      <use xlink:href="#DejaVuSans-61" x="91.382812"/>
      <use xlink:href="#DejaVuSans-6d" x="152.662109"/>
      <use xlink:href="#DejaVuSans-65" x="250.074219"/>
      <use xlink:href="#DejaVuSans-20" x="311.597656"/>
      <use xlink:href="#DejaVuSans-64" x="343.384766"/>
      <use xlink:href="#DejaVuSans-69" x="406.861328"/>
      <use xlink:href="#DejaVuSans-66" x="434.644531"/>
      <use xlink:href="#DejaVuSans-66" x="469.849609"/>
      <use xlink:href="#DejaVuSans-65" x="505.054688"/>
      <use xlink:href="#DejaVuSans-72" x="566.578125"/>
      <use xlink:href="#DejaVuSans-65" x="605.441406"/>
      <use xlink:href="#DejaVuSans-6e" x="666.964844"/>
      <use xlink:href="#DejaVuSans-63" x="730.34375"/>
      <use xlink:href="#DejaVuSans-65" x="785.324219"/>
     </g>
    </g>
   </g>
   <g id="LineCollection_1">
    <path d="M 52.291989 61.362573 
L 52.291989 53.661656 
" clip-path="url(#p228c854b87)" style="fill: none; stroke: #000000; stroke-opacity: 0.7; stroke-width: 1.5"/>
    <path d="M 54.444055 101.648323 
L 54.444055 96.579519 
" clip-path="url(#p228c854b87)" style="fill: none; stroke: #000000; stroke-opacity: 0.7; stroke-width: 1.5"/>
    <path d="M 56.596121 127.13511 
L 56.596121 115.476641 
" clip-path="url(#p228c854b87)" style="fill: none; stroke: #000000; stroke-opacity: 0.7; stroke-width: 1.5"/>
    <path d="M 61.976286 151.428388 
L 61.976286 146.661617 
" clip-path="url(#p228c854b87)" style="fill: none; stroke: #000000; stroke-opacity: 0.7; stroke-width: 1.5"/>
    <path d="M 72.736617 171.073297 
L 72.736617 166.066795 
" clip-path="url(#p228c854b87)" style="fill: none; stroke: #000000; stroke-opacity: 0.7; stroke-width: 1.5"/>
    <path d="M 94.257278 178.380257 
L 94.257278 174.271516 
" clip-path="url(#p228c854b87)" style="fill: none; stroke: #000000; stroke-opacity: 0.7; stroke-width: 1.5"/>
    <path d="M 115.777939 179.174336 
L 115.777939 176.858168 
" clip-path="url(#p228c854b87)" style="fill: none; stroke: #000000; stroke-opacity: 0.7; stroke-width: 1.5"/>
    <path d="M 137.2986 181.15259 
L 137.2986 178.529899 
" clip-path="url(#p228c854b87)" style="fill: none; stroke: #000000; stroke-opacity: 0.7; stroke-width: 1.5"/>
    <path d="M 148.058931 181.437177 
L 148.058931 178.96751 
" clip-path="url(#p228c854b87)" style="fill: none; stroke: #000000; stroke-opacity: 0.7; stroke-width: 1.5"/>
    <path d="M 158.819261 182.399932 
L 158.819261 180.550438 
" clip-path="url(#p228c854b87)" style="fill: none; stroke: #000000; stroke-opacity: 0.7; stroke-width: 1.5"/>
   </g>
   <g id="LineCollection_2">
    <path d="M 52.291989 79.160526 
L 52.291989 69.469891 
" clip-path="url(#p228c854b87)" style="fill: none; stroke: #000000; stroke-opacity: 0.3; stroke-width: 1.5"/>
    <path d="M 54.444055 130.072 
L 54.444055 115.565296 
" clip-path="url(#p228c854b87)" style="fill: none; stroke: #000000; stroke-opacity: 0.3; stroke-width: 1.5"/>
    <path d="M 56.596121 150.584439 
L 56.596121 131.982858 
" clip-path="url(#p228c854b87)" style="fill: none; stroke: #000000; stroke-opacity: 0.3; stroke-width: 1.5"/>
    <path d="M 61.976286 168.891528 
L 61.976286 164.163684 
" clip-path="url(#p228c854b87)" style="fill: none; stroke: #000000; stroke-opacity: 0.3; stroke-width: 1.5"/>
    <path d="M 72.736617 179.085595 
L 72.736617 177.404228 
" clip-path="url(#p228c854b87)" style="fill: none; stroke: #000000; stroke-opacity: 0.3; stroke-width: 1.5"/>
    <path d="M 94.257278 180.302168 
L 94.257278 178.539666 
" clip-path="url(#p228c854b87)" style="fill: none; stroke: #000000; stroke-opacity: 0.3; stroke-width: 1.5"/>
    <path d="M 115.777939 182.647036 
L 115.777939 181.926678 
" clip-path="url(#p228c854b87)" style="fill: none; stroke: #000000; stroke-opacity: 0.3; stroke-width: 1.5"/>
    <path d="M 137.2986 182.965862 
L 137.2986 182.21375 
" clip-path="url(#p228c854b87)" style="fill: none; stroke: #000000; stroke-opacity: 0.3; stroke-width: 1.5"/>
    <path d="M 148.058931 182.331682 
L 148.058931 182.019964 
" clip-path="url(#p228c854b87)" style="fill: none; stroke: #000000; stroke-opacity: 0.3; stroke-width: 1.5"/>
    <path d="M 158.819261 182.639029 
L 158.819261 182.376788 
" clip-path="url(#p228c854b87)" style="fill: none; stroke: #000000; stroke-opacity: 0.3; stroke-width: 1.5"/>
   </g>
   <g id="LineCollection_3">
    <path d="M 52.291989 64.467708 
L 52.291989 56.416529 
" clip-path="url(#p228c854b87)" style="fill: none; stroke: #9932eb; stroke-width: 1.5"/>
    <path d="M 54.444055 116.110433 
L 54.444055 101.591756 
" clip-path="url(#p228c854b87)" style="fill: none; stroke: #9932eb; stroke-width: 1.5"/>
    <path d="M 56.596121 141.810454 
L 56.596121 127.351204 
" clip-path="url(#p228c854b87)" style="fill: none; stroke: #9932eb; stroke-width: 1.5"/>
    <path d="M 61.976286 165.697839 
L 61.976286 158.468739 
" clip-path="url(#p228c854b87)" style="fill: none; stroke: #9932eb; stroke-width: 1.5"/>
    <path d="M 72.736617 181.061825 
L 72.736617 180.629502 
" clip-path="url(#p228c854b87)" style="fill: none; stroke: #9932eb; stroke-width: 1.5"/>
    <path d="M 94.257278 183.589446 
L 94.257278 181.357872 
" clip-path="url(#p228c854b87)" style="fill: none; stroke: #9932eb; stroke-width: 1.5"/>
    <path d="M 115.777939 185.66043 
L 115.777939 184.131666 
" clip-path="url(#p228c854b87)" style="fill: none; stroke: #9932eb; stroke-width: 1.5"/>
    <path d="M 137.2986 185.689187 
L 137.2986 184.570391 
" clip-path="url(#p228c854b87)" style="fill: none; stroke: #9932eb; stroke-width: 1.5"/>
    <path d="M 148.058931 186.190169 
L 148.058931 185.862586 
" clip-path="url(#p228c854b87)" style="fill: none; stroke: #9932eb; stroke-width: 1.5"/>
    <path d="M 158.819261 186.120426 
L 158.819261 185.888408 
" clip-path="url(#p228c854b87)" style="fill: none; stroke: #9932eb; stroke-width: 1.5"/>
   </g>
   <g id="LineCollection_4">
    <path d="M 52.291989 53.119227 
L 52.291989 44.143135 
" clip-path="url(#p228c854b87)" style="fill: none; stroke: #9932eb; stroke-width: 1.5"/>
    <path d="M 54.444055 104.334894 
L 54.444055 93.569856 
" clip-path="url(#p228c854b87)" style="fill: none; stroke: #9932eb; stroke-width: 1.5"/>
    <path d="M 56.596121 140.301679 
L 56.596121 127.859473 
" clip-path="url(#p228c854b87)" style="fill: none; stroke: #9932eb; stroke-width: 1.5"/>
    <path d="M 61.976286 167.753226 
L 61.976286 161.137518 
" clip-path="url(#p228c854b87)" style="fill: none; stroke: #9932eb; stroke-width: 1.5"/>
    <path d="M 72.736617 179.857151 
L 72.736617 176.656635 
" clip-path="url(#p228c854b87)" style="fill: none; stroke: #9932eb; stroke-width: 1.5"/>
    <path d="M 94.257278 184.314747 
L 94.257278 182.834709 
" clip-path="url(#p228c854b87)" style="fill: none; stroke: #9932eb; stroke-width: 1.5"/>
    <path d="M 115.777939 184.712027 
L 115.777939 183.326071 
" clip-path="url(#p228c854b87)" style="fill: none; stroke: #9932eb; stroke-width: 1.5"/>
    <path d="M 137.2986 185.75533 
L 137.2986 185.492128 
" clip-path="url(#p228c854b87)" style="fill: none; stroke: #9932eb; stroke-width: 1.5"/>
    <path d="M 148.058931 185.981574 
L 148.058931 185.882932 
" clip-path="url(#p228c854b87)" style="fill: none; stroke: #9932eb; stroke-width: 1.5"/>
    <path d="M 158.819261 186.166795 
L 158.819261 185.990003 
" clip-path="url(#p228c854b87)" style="fill: none; stroke: #9932eb; stroke-width: 1.5"/>
   </g>
   <g id="line2d_11">
    <path d="M 52.291989 57.512115 
L 54.444055 99.113921 
L 56.596121 121.305875 
L 61.976286 149.045002 
L 72.736617 168.570046 
L 94.257278 176.325887 
L 115.777939 178.016252 
L 137.2986 179.841245 
L 148.058931 180.202344 
L 158.819261 181.475185 
" clip-path="url(#p228c854b87)" style="fill: none; stroke-dasharray: 5.55,2.4; stroke-dashoffset: 0; stroke: #000000; stroke-opacity: 0.7; stroke-width: 1.5"/>
   </g>
   <g id="line2d_12">
    <path d="M 52.291989 74.315209 
L 54.444055 122.818648 
L 56.596121 141.283649 
L 61.976286 166.527606 
L 72.736617 178.244911 
L 94.257278 179.420917 
L 115.777939 182.286857 
L 137.2986 182.589806 
L 148.058931 182.175823 
L 158.819261 182.507909 
" clip-path="url(#p228c854b87)" style="fill: none; stroke-dasharray: 5.55,2.4; stroke-dashoffset: 0; stroke: #000000; stroke-opacity: 0.3; stroke-width: 1.5"/>
   </g>
   <g id="line2d_13">
    <path d="M 52.291989 60.442119 
L 54.444055 108.851095 
L 56.596121 134.580829 
L 61.976286 162.083289 
L 72.736617 180.845663 
L 94.257278 182.473659 
L 115.777939 184.896048 
L 137.2986 185.129789 
L 148.058931 186.026377 
L 158.819261 186.004417 
" clip-path="url(#p228c854b87)" style="fill: none; stroke: #9932eb; stroke-width: 1.5; stroke-linecap: square"/>
   </g>
   <g id="line2d_14">
    <path d="M 52.291989 48.631181 
L 54.444055 98.952375 
L 56.596121 134.080576 
L 61.976286 164.445372 
L 72.736617 178.256893 
L 94.257278 183.574728 
L 115.777939 184.019049 
L 137.2986 185.623729 
L 148.058931 185.932253 
L 158.819261 186.078399 
" clip-path="url(#p228c854b87)" style="fill: none; stroke-dasharray: 1.5,2.475; stroke-dashoffset: 0; stroke: #9932eb; stroke-width: 1.5"/>
   </g>
   <g id="patch_3">
    <path d="M 46.965625 188.638125 
L 46.965625 22.318125 
" style="fill: none; stroke: #000000; stroke-width: 0.8; stroke-linejoin: miter; stroke-linecap: square"/>
   </g>
   <g id="patch_4">
    <path d="M 52.291989 188.638125 
L 158.819261 188.638125 
" style="fill: none; stroke: #000000; stroke-width: 0.8; stroke-linejoin: miter; stroke-linecap: square"/>
   </g>
   <g id="text_13">
    <!-- Mean frame error -->
    <g transform="translate(53.079063 16.318125) scale(0.12 -0.12)">
     <defs>
      <path id="DejaVuSans-4d" d="M 628 4666 
L 1569 4666 
L 2759 1491 
L 3956 4666 
L 4897 4666 
L 4897 0 
L 4281 0 
L 4281 4097 
L 3078 897 
L 2444 897 
L 1241 4097 
L 1241 0 
L 628 0 
L 628 4666 
z
" transform="scale(0.015625)"/>
     </defs>
     <use xlink:href="#DejaVuSans-4d"/>
     <use xlink:href="#DejaVuSans-65" x="86.279297"/>
     <use xlink:href="#DejaVuSans-61" x="147.802734"/>
     <use xlink:href="#DejaVuSans-6e" x="209.082031"/>
     <use xlink:href="#DejaVuSans-20" x="272.460938"/>
     <use xlink:href="#DejaVuSans-66" x="304.248047"/>
     <use xlink:href="#DejaVuSans-72" x="339.453125"/>
     <use xlink:href="#DejaVuSans-61" x="380.566406"/>
     <use xlink:href="#DejaVuSans-6d" x="441.845703"/>
     <use xlink:href="#DejaVuSans-65" x="539.257812"/>
     <use xlink:href="#DejaVuSans-20" x="600.78125"/>
     <use xlink:href="#DejaVuSans-65" x="632.568359"/>
     <use xlink:href="#DejaVuSans-72" x="694.091797"/>
     <use xlink:href="#DejaVuSans-72" x="733.455078"/>
     <use xlink:href="#DejaVuSans-6f" x="772.318359"/>
     <use xlink:href="#DejaVuSans-72" x="833.5"/>
    </g>
   </g>
   <g id="legend_1">
    <g id="text_14">
     <!-- NP, 10 frames -->
     <g transform="translate(79.434922 37.413563) scale(0.1 -0.1)">
      <defs>
       <path id="DejaVuSans-50" d="M 1259 4147 
L 1259 2394 
L 2053 2394 
Q 2494 2394 2734 2622 
Q 2975 2850 2975 3272 
Q 2975 3691 2734 3919 
Q 2494 4147 2053 4147 
L 1259 4147 
z
M 628 4666 
L 2053 4666 
Q 2838 4666 3239 4311 
Q 3641 3956 3641 3272 
Q 3641 2581 3239 2228 
Q 2838 1875 2053 1875 
L 1259 1875 
L 1259 0 
L 628 0 
L 628 4666 
z
" transform="scale(0.015625)"/>
       <path id="DejaVuSans-2c" d="M 750 794 
L 1409 794 
L 1409 256 
L 897 -744 
L 494 -744 
L 750 256 
L 750 794 
z
" transform="scale(0.015625)"/>
      </defs>
      <use xlink:href="#DejaVuSans-4e"/>
      <use xlink:href="#DejaVuSans-50" x="74.804688"/>
      <use xlink:href="#DejaVuSans-2c" x="135.107422"/>
      <use xlink:href="#DejaVuSans-20" x="166.894531"/>
      <use xlink:href="#DejaVuSans-31" x="198.681641"/>
      <use xlink:href="#DejaVuSans-30" x="262.304688"/>
      <use xlink:href="#DejaVuSans-20" x="325.927734"/>
      <use xlink:href="#DejaVuSans-66" x="357.714844"/>
      <use xlink:href="#DejaVuSans-72" x="392.919922"/>
      <use xlink:href="#DejaVuSans-61" x="434.033203"/>
      <use xlink:href="#DejaVuSans-6d" x="495.3125"/>
      <use xlink:href="#DejaVuSans-65" x="592.724609"/>
      <use xlink:href="#DejaVuSans-73" x="654.248047"/>
     </g>
    </g>
    <g id="LineCollection_5">
     <path d="M 77.019031 51.237248 
L 77.019031 42.907248 
" style="fill: none; stroke: #000000; stroke-opacity: 0.7; stroke-width: 1.5"/>
    </g>
    <g id="line2d_15">
     <path d="M 72.854031 47.072248 
L 81.184031 47.072248 
" style="fill: none; stroke-dasharray: 5.55,2.4; stroke-dashoffset: 0; stroke: #000000; stroke-opacity: 0.7; stroke-width: 1.5"/>
    </g>
    <g id="line2d_16"/>
    <g id="text_15">
     <!-- kNN baseline -->
     <g transform="translate(87.848031 49.987748) scale(0.0833 -0.0833)">
      <defs>
       <path id="DejaVuSans-6b" d="M 581 4863 
L 1159 4863 
L 1159 1991 
L 2875 3500 
L 3609 3500 
L 1753 1863 
L 3688 0 
L 2938 0 
L 1159 1709 
L 1159 0 
L 581 0 
L 581 4863 
z
" transform="scale(0.015625)"/>
       <path id="DejaVuSans-62" d="M 3116 1747 
Q 3116 2381 2855 2742 
Q 2594 3103 2138 3103 
Q 1681 3103 1420 2742 
Q 1159 2381 1159 1747 
Q 1159 1113 1420 752 
Q 1681 391 2138 391 
Q 2594 391 2855 752 
Q 3116 1113 3116 1747 
z
M 1159 2969 
Q 1341 3281 1617 3432 
Q 1894 3584 2278 3584 
Q 2916 3584 3314 3078 
Q 3713 2572 3713 1747 
Q 3713 922 3314 415 
Q 2916 -91 2278 -91 
Q 1894 -91 1617 61 
Q 1341 213 1159 525 
L 1159 0 
L 581 0 
L 581 4863 
L 1159 4863 
L 1159 2969 
z
" transform="scale(0.015625)"/>
       <path id="DejaVuSans-6c" d="M 603 4863 
L 1178 4863 
L 1178 0 
L 603 0 
L 603 4863 
z
" transform="scale(0.015625)"/>
      </defs>
      <use xlink:href="#DejaVuSans-6b"/>
      <use xlink:href="#DejaVuSans-4e" x="57.910156"/>
      <use xlink:href="#DejaVuSans-4e" x="132.714844"/>
      <use xlink:href="#DejaVuSans-20" x="207.519531"/>
      <use xlink:href="#DejaVuSans-62" x="239.306641"/>
      <use xlink:href="#DejaVuSans-61" x="302.783203"/>
      <use xlink:href="#DejaVuSans-73" x="364.0625"/>
      <use xlink:href="#DejaVuSans-65" x="416.162109"/>
      <use xlink:href="#DejaVuSans-6c" x="477.685547"/>
      <use xlink:href="#DejaVuSans-69" x="505.46875"/>
      <use xlink:href="#DejaVuSans-6e" x="533.251953"/>
      <use xlink:href="#DejaVuSans-65" x="596.630859"/>
     </g>
    </g>
    <g id="LineCollection_6">
     <path d="M 77.019031 63.464127 
L 77.019031 55.134127 
" style="fill: none; stroke: #000000; stroke-opacity: 0.3; stroke-width: 1.5"/>
    </g>
    <g id="line2d_17">
     <path d="M 72.854031 59.299127 
L 81.184031 59.299127 
" style="fill: none; stroke-dasharray: 5.55,2.4; stroke-dashoffset: 0; stroke: #000000; stroke-opacity: 0.3; stroke-width: 1.5"/>
    </g>
    <g id="line2d_18"/>
    <g id="text_16">
     <!-- Bayes baseline -->
     <g transform="translate(87.848031 62.214627) scale(0.0833 -0.0833)">
      <defs>
       <path id="DejaVuSans-42" d="M 1259 2228 
L 1259 519 
L 2272 519 
Q 2781 519 3026 730 
Q 3272 941 3272 1375 
Q 3272 1813 3026 2020 
Q 2781 2228 2272 2228 
L 1259 2228 
z
M 1259 4147 
L 1259 2741 
L 2194 2741 
Q 2656 2741 2882 2914 
Q 3109 3088 3109 3444 
Q 3109 3797 2882 3972 
Q 2656 4147 2194 4147 
L 1259 4147 
z
M 628 4666 
L 2241 4666 
Q 2963 4666 3353 4366 
Q 3744 4066 3744 3513 
Q 3744 3084 3544 2831 
Q 3344 2578 2956 2516 
Q 3422 2416 3680 2098 
Q 3938 1781 3938 1306 
Q 3938 681 3513 340 
Q 3088 0 2303 0 
L 628 0 
L 628 4666 
z
" transform="scale(0.015625)"/>
       <path id="DejaVuSans-79" d="M 2059 -325 
Q 1816 -950 1584 -1140 
Q 1353 -1331 966 -1331 
L 506 -1331 
L 506 -850 
L 844 -850 
Q 1081 -850 1212 -737 
Q 1344 -625 1503 -206 
L 1606 56 
L 191 3500 
L 800 3500 
L 1894 763 
L 2988 3500 
L 3597 3500 
L 2059 -325 
z
" transform="scale(0.015625)"/>
      </defs>
      <use xlink:href="#DejaVuSans-42"/>
      <use xlink:href="#DejaVuSans-61" x="68.603516"/>
      <use xlink:href="#DejaVuSans-79" x="129.882812"/>
      <use xlink:href="#DejaVuSans-65" x="189.0625"/>
      <use xlink:href="#DejaVuSans-73" x="250.585938"/>
      <use xlink:href="#DejaVuSans-20" x="302.685547"/>
      <use xlink:href="#DejaVuSans-62" x="334.472656"/>
      <use xlink:href="#DejaVuSans-61" x="397.949219"/>
      <use xlink:href="#DejaVuSans-73" x="459.228516"/>
      <use xlink:href="#DejaVuSans-65" x="511.328125"/>
      <use xlink:href="#DejaVuSans-6c" x="572.851562"/>
      <use xlink:href="#DejaVuSans-69" x="600.634766"/>
      <use xlink:href="#DejaVuSans-6e" x="628.417969"/>
      <use xlink:href="#DejaVuSans-65" x="691.796875"/>
     </g>
    </g>
    <g id="LineCollection_7">
     <path d="M 77.019031 75.691005 
L 77.019031 67.361005 
" style="fill: none; stroke: #9932eb; stroke-width: 1.5"/>
    </g>
    <g id="line2d_19">
     <path d="M 72.854031 71.526005 
L 81.184031 71.526005 
" style="fill: none; stroke: #9932eb; stroke-width: 1.5; stroke-linecap: square"/>
    </g>
    <g id="line2d_20"/>
    <g id="text_17">
     <!-- kNN CEBRA -->
     <g transform="translate(87.848031 74.441505) scale(0.0833 -0.0833)">
      <defs>
       <path id="DejaVuSans-43" d="M 4122 4306 
L 4122 3641 
Q 3803 3938 3442 4084 
Q 3081 4231 2675 4231 
Q 1875 4231 1450 3742 
Q 1025 3253 1025 2328 
Q 1025 1406 1450 917 
Q 1875 428 2675 428 
Q 3081 428 3442 575 
Q 3803 722 4122 1019 
L 4122 359 
Q 3791 134 3420 21 
Q 3050 -91 2638 -91 
Q 1578 -91 968 557 
Q 359 1206 359 2328 
Q 359 3453 968 4101 
Q 1578 4750 2638 4750 
Q 3056 4750 3426 4639 
Q 3797 4528 4122 4306 
z
" transform="scale(0.015625)"/>
       <path id="DejaVuSans-45" d="M 628 4666 
L 3578 4666 
L 3578 4134 
L 1259 4134 
L 1259 2753 
L 3481 2753 
L 3481 2222 
L 1259 2222 
L 1259 531 
L 3634 531 
L 3634 0 
L 628 0 
L 628 4666 
z
" transform="scale(0.015625)"/>
       <path id="DejaVuSans-52" d="M 2841 2188 
Q 3044 2119 3236 1894 
Q 3428 1669 3622 1275 
L 4263 0 
L 3584 0 
L 2988 1197 
Q 2756 1666 2539 1819 
Q 2322 1972 1947 1972 
L 1259 1972 
L 1259 0 
L 628 0 
L 628 4666 
L 2053 4666 
Q 2853 4666 3247 4331 
Q 3641 3997 3641 3322 
Q 3641 2881 3436 2590 
Q 3231 2300 2841 2188 
z
M 1259 4147 
L 1259 2491 
L 2053 2491 
Q 2509 2491 2742 2702 
Q 2975 2913 2975 3322 
Q 2975 3731 2742 3939 
Q 2509 4147 2053 4147 
L 1259 4147 
z
" transform="scale(0.015625)"/>
       <path id="DejaVuSans-41" d="M 2188 4044 
L 1331 1722 
L 3047 1722 
L 2188 4044 
z
M 1831 4666 
L 2547 4666 
L 4325 0 
L 3669 0 
L 3244 1197 
L 1141 1197 
L 716 0 
L 50 0 
L 1831 4666 
z
" transform="scale(0.015625)"/>
      </defs>
      <use xlink:href="#DejaVuSans-6b"/>
      <use xlink:href="#DejaVuSans-4e" x="57.910156"/>
      <use xlink:href="#DejaVuSans-4e" x="132.714844"/>
      <use xlink:href="#DejaVuSans-20" x="207.519531"/>
      <use xlink:href="#DejaVuSans-43" x="239.306641"/>
      <use xlink:href="#DejaVuSans-45" x="309.130859"/>
      <use xlink:href="#DejaVuSans-42" x="372.314453"/>
      <use xlink:href="#DejaVuSans-52" x="440.917969"/>
      <use xlink:href="#DejaVuSans-41" x="506.400391"/>
     </g>
    </g>
    <g id="LineCollection_8">
     <path d="M 77.019031 87.917883 
L 77.019031 79.587883 
" style="fill: none; stroke: #9932eb; stroke-width: 1.5"/>
    </g>
    <g id="line2d_21">
     <path d="M 72.854031 83.752883 
L 81.184031 83.752883 
" style="fill: none; stroke-dasharray: 1.5,2.475; stroke-dashoffset: 0; stroke: #9932eb; stroke-width: 1.5"/>
    </g>
    <g id="line2d_22"/>
    <g id="text_18">
     <!-- kNN CEBRA joint -->
     <g transform="translate(87.848031 86.668383) scale(0.0833 -0.0833)">
      <defs>
       <path id="DejaVuSans-6a" d="M 603 3500 
L 1178 3500 
L 1178 -63 
Q 1178 -731 923 -1031 
Q 669 -1331 103 -1331 
L -116 -1331 
L -116 -844 
L 38 -844 
Q 366 -844 484 -692 
Q 603 -541 603 -63 
L 603 3500 
z
M 603 4863 
L 1178 4863 
L 1178 4134 
L 603 4134 
L 603 4863 
z
" transform="scale(0.015625)"/>
       <path id="DejaVuSans-74" d="M 1172 4494 
L 1172 3500 
L 2356 3500 
L 2356 3053 
L 1172 3053 
L 1172 1153 
Q 1172 725 1289 603 
Q 1406 481 1766 481 
L 2356 481 
L 2356 0 
L 1766 0 
Q 1100 0 847 248 
Q 594 497 594 1153 
L 594 3053 
L 172 3053 
L 172 3500 
L 594 3500 
L 594 4494 
L 1172 4494 
z
" transform="scale(0.015625)"/>
      </defs>
      <use xlink:href="#DejaVuSans-6b"/>
      <use xlink:href="#DejaVuSans-4e" x="57.910156"/>
      <use xlink:href="#DejaVuSans-4e" x="132.714844"/>
      <use xlink:href="#DejaVuSans-20" x="207.519531"/>
      <use xlink:href="#DejaVuSans-43" x="239.306641"/>
      <use xlink:href="#DejaVuSans-45" x="309.130859"/>
      <use xlink:href="#DejaVuSans-42" x="372.314453"/>
      <use xlink:href="#DejaVuSans-52" x="440.917969"/>
      <use xlink:href="#DejaVuSans-41" x="506.400391"/>
      <use xlink:href="#DejaVuSans-20" x="574.808594"/>
      <use xlink:href="#DejaVuSans-6a" x="606.595703"/>
      <use xlink:href="#DejaVuSans-6f" x="634.378906"/>
      <use xlink:href="#DejaVuSans-69" x="695.560547"/>
      <use xlink:href="#DejaVuSans-6e" x="723.34375"/>
      <use xlink:href="#DejaVuSans-74" x="786.722656"/>
     </g>
    </g>
   </g>
  </g>
 </g>
 <defs>
  <clipPath id="p228c854b87">
   <rect x="46.965625" y="22.318125" width="117.18" height="166.32"/>
  </clipPath>
 </defs>
</svg>
