<?xml version="1.0" encoding="utf-8" standalone="no"?>
<!DOCTYPE svg PUBLIC "-//W3C//DTD SVG 1.1//EN"
  "http://www.w3.org/Graphics/SVG/1.1/DTD/svg11.dtd">
<svg xmlns:xlink="http://www.w3.org/1999/xlink" width="179.691798pt" height="247.83746pt" viewBox="0 0 179.691798 247.83746" xmlns="http://www.w3.org/2000/svg" version="1.1">
 <metadata>
  <rdf:RDF xmlns:dc="http://purl.org/dc/elements/1.1/" xmlns:cc="http://creativecommons.org/ns#" xmlns:rdf="http://www.w3.org/1999/02/22-rdf-syntax-ns#">
   <cc:Work>
    <dc:type rdf:resource="http://purl.org/dc/dcmitype/StillImage"/>
    <dc:date>2025-06-06T15:20:36.934547</dc:date>
    <dc:format>image/svg+xml</dc:format>
    <dc:creator>
     <cc:Agent>
      <dc:title>Matplotlib v3.9.4, https://matplotlib.org/</dc:title>
     </cc:Agent>
    </dc:creator>
   </cc:Work>
  </rdf:RDF>
 </metadata>
 <defs>
  <style type="text/css">*{stroke-linejoin: round; stroke-linecap: butt}</style>
 </defs>
 <g id="figure_1">
  <g id="patch_1">
   <path d="M 0 247.83746 
L 179.691798 247.83746 
L 179.691798 -0 
L 0 -0 
L 0 247.83746 
z
" style="fill: none"/>
  </g>
  <g id="axes_1">
   <g id="patch_2">
    <path d="M 48.218494 195.12 
L 165.398494 195.12 
L 165.398494 28.8 
L 48.218494 28.8 
L 48.218494 195.12 
z
" style="fill: none"/>
   </g>
   <g id="matplotlib.axis_1">
    <g id="xtick_1">
     <g id="line2d_1">
      <defs>
       <path id="m0bceb7e179" d="M 0 0 
L 0 3.5 
" style="stroke: #000000; stroke-width: 0.8"/>
      </defs>
      <g>
       <use xlink:href="#m0bceb7e179" x="53.544857" y="195.12" style="stroke: #000000; stroke-width: 0.8"/>
      </g>
     </g>
     <g id="text_1">
      <!-- 10 -->
      <g transform="translate(50.997063 216.49084) rotate(-45) scale(0.1 -0.1)">
       <defs>
        <path id="DejaVuSans-31" d="M 794 531 
L 1825 531 
L 1825 4091 
L 703 3866 
L 703 4441 
L 1819 4666 
L 2450 4666 
L 2450 531 
L 3481 531 
L 3481 0 
L 794 0 
L 794 531 
z
" transform="scale(0.015625)"/>
        <path id="DejaVuSans-30" d="M 2034 4250 
Q 1547 4250 1301 3770 
Q 1056 3291 1056 2328 
Q 1056 1369 1301 889 
Q 1547 409 2034 409 
Q 2525 409 2770 889 
Q 3016 1369 3016 2328 
Q 3016 3291 2770 3770 
Q 2525 4250 2034 4250 
z
M 2034 4750 
Q 2819 4750 3233 4129 
Q 3647 3509 3647 2328 
Q 3647 1150 3233 529 
Q 2819 -91 2034 -91 
Q 1250 -91 836 529 
Q 422 1150 422 2328 
Q 422 3509 836 4129 
Q 1250 4750 2034 4750 
z
" transform="scale(0.015625)"/>
       </defs>
       <use xlink:href="#DejaVuSans-31"/>
       <use xlink:href="#DejaVuSans-30" x="63.623047"/>
      </g>
     </g>
    </g>
    <g id="xtick_2">
     <g id="line2d_2">
      <g>
       <use xlink:href="#m0bceb7e179" x="73.989485" y="195.12" style="stroke: #000000; stroke-width: 0.8"/>
      </g>
     </g>
     <g id="text_2">
      <!-- 200 -->
      <g transform="translate(69.192208 220.989807) rotate(-45) scale(0.1 -0.1)">
       <defs>
        <path id="DejaVuSans-32" d="M 1228 531 
L 3431 531 
L 3431 0 
L 469 0 
L 469 531 
Q 828 903 1448 1529 
Q 2069 2156 2228 2338 
Q 2531 2678 2651 2914 
Q 2772 3150 2772 3378 
Q 2772 3750 2511 3984 
Q 2250 4219 1831 4219 
Q 1534 4219 1204 4116 
Q 875 4013 500 3803 
L 500 4441 
Q 881 4594 1212 4672 
Q 1544 4750 1819 4750 
Q 2544 4750 2975 4387 
Q 3406 4025 3406 3419 
Q 3406 3131 3298 2873 
Q 3191 2616 2906 2266 
Q 2828 2175 2409 1742 
Q 1991 1309 1228 531 
z
" transform="scale(0.015625)"/>
       </defs>
       <use xlink:href="#DejaVuSans-32"/>
       <use xlink:href="#DejaVuSans-30" x="63.623047"/>
       <use xlink:href="#DejaVuSans-30" x="127.246094"/>
      </g>
     </g>
    </g>
    <g id="xtick_3">
     <g id="line2d_3">
      <g>
       <use xlink:href="#m0bceb7e179" x="95.510146" y="195.12" style="stroke: #000000; stroke-width: 0.8"/>
      </g>
     </g>
     <g id="text_3">
      <!-- 400 -->
      <g transform="translate(90.712869 220.989807) rotate(-45) scale(0.1 -0.1)">
       <defs>
        <path id="DejaVuSans-34" d="M 2419 4116 
L 825 1625 
L 2419 1625 
L 2419 4116 
z
M 2253 4666 
L 3047 4666 
L 3047 1625 
L 3713 1625 
L 3713 1100 
L 3047 1100 
L 3047 0 
L 2419 0 
L 2419 1100 
L 313 1100 
L 313 1709 
L 2253 4666 
z
" transform="scale(0.015625)"/>
       </defs>
       <use xlink:href="#DejaVuSans-34"/>
       <use xlink:href="#DejaVuSans-30" x="63.623047"/>
       <use xlink:href="#DejaVuSans-30" x="127.246094"/>
      </g>
     </g>
    </g>
    <g id="xtick_4">
     <g id="line2d_4">
      <g>
       <use xlink:href="#m0bceb7e179" x="117.030808" y="195.12" style="stroke: #000000; stroke-width: 0.8"/>
      </g>
     </g>
     <g id="text_4">
      <!-- 600 -->
      <g transform="translate(112.23353 220.989807) rotate(-45) scale(0.1 -0.1)">
       <defs>
        <path id="DejaVuSans-36" d="M 2113 2584 
Q 1688 2584 1439 2293 
Q 1191 2003 1191 1497 
Q 1191 994 1439 701 
Q 1688 409 2113 409 
Q 2538 409 2786 701 
Q 3034 994 3034 1497 
Q 3034 2003 2786 2293 
Q 2538 2584 2113 2584 
z
M 3366 4563 
L 3366 3988 
Q 3128 4100 2886 4159 
Q 2644 4219 2406 4219 
Q 1781 4219 1451 3797 
Q 1122 3375 1075 2522 
Q 1259 2794 1537 2939 
Q 1816 3084 2150 3084 
Q 2853 3084 3261 2657 
Q 3669 2231 3669 1497 
Q 3669 778 3244 343 
Q 2819 -91 2113 -91 
Q 1303 -91 875 529 
Q 447 1150 447 2328 
Q 447 3434 972 4092 
Q 1497 4750 2381 4750 
Q 2619 4750 2861 4703 
Q 3103 4656 3366 4563 
z
" transform="scale(0.015625)"/>
       </defs>
       <use xlink:href="#DejaVuSans-36"/>
       <use xlink:href="#DejaVuSans-30" x="63.623047"/>
       <use xlink:href="#DejaVuSans-30" x="127.246094"/>
      </g>
     </g>
    </g>
    <g id="xtick_5">
     <g id="line2d_5">
      <g>
       <use xlink:href="#m0bceb7e179" x="138.551469" y="195.12" style="stroke: #000000; stroke-width: 0.8"/>
      </g>
     </g>
     <g id="text_5">
      <!-- 800 -->
      <g transform="translate(133.754191 220.989807) rotate(-45) scale(0.1 -0.1)">
       <defs>
        <path id="DejaVuSans-38" d="M 2034 2216 
Q 1584 2216 1326 1975 
Q 1069 1734 1069 1313 
Q 1069 891 1326 650 
Q 1584 409 2034 409 
Q 2484 409 2743 651 
Q 3003 894 3003 1313 
Q 3003 1734 2745 1975 
Q 2488 2216 2034 2216 
z
M 1403 2484 
Q 997 2584 770 2862 
Q 544 3141 544 3541 
Q 544 4100 942 4425 
Q 1341 4750 2034 4750 
Q 2731 4750 3128 4425 
Q 3525 4100 3525 3541 
Q 3525 3141 3298 2862 
Q 3072 2584 2669 2484 
Q 3125 2378 3379 2068 
Q 3634 1759 3634 1313 
Q 3634 634 3220 271 
Q 2806 -91 2034 -91 
Q 1263 -91 848 271 
Q 434 634 434 1313 
Q 434 1759 690 2068 
Q 947 2378 1403 2484 
z
M 1172 3481 
Q 1172 3119 1398 2916 
Q 1625 2713 2034 2713 
Q 2441 2713 2670 2916 
Q 2900 3119 2900 3481 
Q 2900 3844 2670 4047 
Q 2441 4250 2034 4250 
Q 1625 4250 1398 4047 
Q 1172 3844 1172 3481 
z
" transform="scale(0.015625)"/>
       </defs>
       <use xlink:href="#DejaVuSans-38"/>
       <use xlink:href="#DejaVuSans-30" x="63.623047"/>
       <use xlink:href="#DejaVuSans-30" x="127.246094"/>
      </g>
     </g>
    </g>
    <g id="xtick_6">
     <g id="line2d_6">
      <g>
       <use xlink:href="#m0bceb7e179" x="160.07213" y="195.12" style="stroke: #000000; stroke-width: 0.8"/>
      </g>
     </g>
     <g id="text_6">
      <!-- 1000 -->
      <g transform="translate(153.025369 225.488774) rotate(-45) scale(0.1 -0.1)">
       <use xlink:href="#DejaVuSans-31"/>
       <use xlink:href="#DejaVuSans-30" x="63.623047"/>
       <use xlink:href="#DejaVuSans-30" x="127.246094"/>
       <use xlink:href="#DejaVuSans-30" x="190.869141"/>
      </g>
     </g>
    </g>
    <g id="text_7">
     <!-- # Neurons -->
     <g transform="translate(80.267869 238.557773) scale(0.1 -0.1)">
      <defs>
       <path id="DejaVuSans-23" d="M 3272 2816 
L 2363 2816 
L 2100 1772 
L 3016 1772 
L 3272 2816 
z
M 2803 4594 
L 2478 3297 
L 3391 3297 
L 3719 4594 
L 4219 4594 
L 3897 3297 
L 4872 3297 
L 4872 2816 
L 3775 2816 
L 3519 1772 
L 4513 1772 
L 4513 1294 
L 3397 1294 
L 3072 0 
L 2572 0 
L 2894 1294 
L 1978 1294 
L 1656 0 
L 1153 0 
L 1478 1294 
L 494 1294 
L 494 1772 
L 1594 1772 
L 1856 2816 
L 850 2816 
L 850 3297 
L 1978 3297 
L 2297 4594 
L 2803 4594 
z
" transform="scale(0.015625)"/>
       <path id="DejaVuSans-20" transform="scale(0.015625)"/>
       <path id="DejaVuSans-4e" d="M 628 4666 
L 1478 4666 
L 3547 763 
L 3547 4666 
L 4159 4666 
L 4159 0 
L 3309 0 
L 1241 3903 
L 1241 0 
L 628 0 
L 628 4666 
z
" transform="scale(0.015625)"/>
       <path id="DejaVuSans-65" d="M 3597 1894 
L 3597 1613 
L 953 1613 
Q 991 1019 1311 708 
Q 1631 397 2203 397 
Q 2534 397 2845 478 
Q 3156 559 3463 722 
L 3463 178 
Q 3153 47 2828 -22 
Q 2503 -91 2169 -91 
Q 1331 -91 842 396 
Q 353 884 353 1716 
Q 353 2575 817 3079 
Q 1281 3584 2069 3584 
Q 2775 3584 3186 3129 
Q 3597 2675 3597 1894 
z
M 3022 2063 
Q 3016 2534 2758 2815 
Q 2500 3097 2075 3097 
Q 1594 3097 1305 2825 
Q 1016 2553 972 2059 
L 3022 2063 
z
" transform="scale(0.015625)"/>
       <path id="DejaVuSans-75" d="M 544 1381 
L 544 3500 
L 1119 3500 
L 1119 1403 
Q 1119 906 1312 657 
Q 1506 409 1894 409 
Q 2359 409 2629 706 
Q 2900 1003 2900 1516 
L 2900 3500 
L 3475 3500 
L 3475 0 
L 2900 0 
L 2900 538 
Q 2691 219 2414 64 
Q 2138 -91 1772 -91 
Q 1169 -91 856 284 
Q 544 659 544 1381 
z
M 1991 3584 
L 1991 3584 
z
" transform="scale(0.015625)"/>
       <path id="DejaVuSans-72" d="M 2631 2963 
Q 2534 3019 2420 3045 
Q 2306 3072 2169 3072 
Q 1681 3072 1420 2755 
Q 1159 2438 1159 1844 
L 1159 0 
L 581 0 
L 581 3500 
L 1159 3500 
L 1159 2956 
Q 1341 3275 1631 3429 
Q 1922 3584 2338 3584 
Q 2397 3584 2469 3576 
Q 2541 3569 2628 3553 
L 2631 2963 
z
" transform="scale(0.015625)"/>
       <path id="DejaVuSans-6f" d="M 1959 3097 
Q 1497 3097 1228 2736 
Q 959 2375 959 1747 
Q 959 1119 1226 758 
Q 1494 397 1959 397 
Q 2419 397 2687 759 
Q 2956 1122 2956 1747 
Q 2956 2369 2687 2733 
Q 2419 3097 1959 3097 
z
M 1959 3584 
Q 2709 3584 3137 3096 
Q 3566 2609 3566 1747 
Q 3566 888 3137 398 
Q 2709 -91 1959 -91 
Q 1206 -91 779 398 
Q 353 888 353 1747 
Q 353 2609 779 3096 
Q 1206 3584 1959 3584 
z
" transform="scale(0.015625)"/>
       <path id="DejaVuSans-6e" d="M 3513 2113 
L 3513 0 
L 2938 0 
L 2938 2094 
Q 2938 2591 2744 2837 
Q 2550 3084 2163 3084 
Q 1697 3084 1428 2787 
Q 1159 2491 1159 1978 
L 1159 0 
L 581 0 
L 581 3500 
L 1159 3500 
L 1159 2956 
Q 1366 3272 1645 3428 
Q 1925 3584 2291 3584 
Q 2894 3584 3203 3211 
Q 3513 2838 3513 2113 
z
" transform="scale(0.015625)"/>
       <path id="DejaVuSans-73" d="M 2834 3397 
L 2834 2853 
Q 2591 2978 2328 3040 
Q 2066 3103 1784 3103 
Q 1356 3103 1142 2972 
Q 928 2841 928 2578 
Q 928 2378 1081 2264 
Q 1234 2150 1697 2047 
L 1894 2003 
Q 2506 1872 2764 1633 
Q 3022 1394 3022 966 
Q 3022 478 2636 193 
Q 2250 -91 1575 -91 
Q 1294 -91 989 -36 
Q 684 19 347 128 
L 347 722 
Q 666 556 975 473 
Q 1284 391 1588 391 
Q 1994 391 2212 530 
Q 2431 669 2431 922 
Q 2431 1156 2273 1281 
Q 2116 1406 1581 1522 
L 1381 1569 
Q 847 1681 609 1914 
Q 372 2147 372 2553 
Q 372 3047 722 3315 
Q 1072 3584 1716 3584 
Q 2034 3584 2315 3537 
Q 2597 3491 2834 3397 
z
" transform="scale(0.015625)"/>
      </defs>
      <use xlink:href="#DejaVuSans-23"/>
      <use xlink:href="#DejaVuSans-20" x="83.789062"/>
      <use xlink:href="#DejaVuSans-4e" x="115.576172"/>
      <use xlink:href="#DejaVuSans-65" x="190.380859"/>
      <use xlink:href="#DejaVuSans-75" x="251.904297"/>
      <use xlink:href="#DejaVuSans-72" x="315.283203"/>
      <use xlink:href="#DejaVuSans-6f" x="354.146484"/>
      <use xlink:href="#DejaVuSans-6e" x="415.328125"/>
      <use xlink:href="#DejaVuSans-73" x="478.707031"/>
     </g>
    </g>
   </g>
   <g id="matplotlib.axis_2">
    <g id="ytick_1">
     <g id="line2d_7">
      <defs>
       <path id="m36fa914d05" d="M 0 0 
L -3.5 0 
" style="stroke: #000000; stroke-width: 0.8"/>
      </defs>
      <g>
       <use xlink:href="#m36fa914d05" x="48.218494" y="184.725" style="stroke: #000000; stroke-width: 0.8"/>
      </g>
     </g>
     <g id="text_8">
      <!-- 25 -->
      <g transform="translate(30.749999 195.296622) rotate(-45) scale(0.1 -0.1)">
       <defs>
        <path id="DejaVuSans-35" d="M 691 4666 
L 3169 4666 
L 3169 4134 
L 1269 4134 
L 1269 2991 
Q 1406 3038 1543 3061 
Q 1681 3084 1819 3084 
Q 2600 3084 3056 2656 
Q 3513 2228 3513 1497 
Q 3513 744 3044 326 
Q 2575 -91 1722 -91 
Q 1428 -91 1123 -41 
Q 819 9 494 109 
L 494 744 
Q 775 591 1075 516 
Q 1375 441 1709 441 
Q 2250 441 2565 725 
Q 2881 1009 2881 1497 
Q 2881 1984 2565 2268 
Q 2250 2553 1709 2553 
Q 1456 2553 1204 2497 
Q 953 2441 691 2322 
L 691 4666 
z
" transform="scale(0.015625)"/>
       </defs>
       <use xlink:href="#DejaVuSans-32"/>
       <use xlink:href="#DejaVuSans-35" x="63.623047"/>
      </g>
     </g>
    </g>
    <g id="ytick_2">
     <g id="line2d_8">
      <g>
       <use xlink:href="#m36fa914d05" x="48.218494" y="132.75" style="stroke: #000000; stroke-width: 0.8"/>
      </g>
     </g>
     <g id="text_9">
      <!-- 50 -->
      <g transform="translate(30.749999 143.321622) rotate(-45) scale(0.1 -0.1)">
       <use xlink:href="#DejaVuSans-35"/>
       <use xlink:href="#DejaVuSans-30" x="63.623047"/>
      </g>
     </g>
    </g>
    <g id="ytick_3">
     <g id="line2d_9">
      <g>
       <use xlink:href="#m36fa914d05" x="48.218494" y="80.775" style="stroke: #000000; stroke-width: 0.8"/>
      </g>
     </g>
     <g id="text_10">
      <!-- 75 -->
      <g transform="translate(30.749999 91.346622) rotate(-45) scale(0.1 -0.1)">
       <defs>
        <path id="DejaVuSans-37" d="M 525 4666 
L 3525 4666 
L 3525 4397 
L 1831 0 
L 1172 0 
L 2766 4134 
L 525 4134 
L 525 4666 
z
" transform="scale(0.015625)"/>
       </defs>
       <use xlink:href="#DejaVuSans-37"/>
       <use xlink:href="#DejaVuSans-35" x="63.623047"/>
      </g>
     </g>
    </g>
    <g id="ytick_4">
     <g id="line2d_10">
      <g>
       <use xlink:href="#m36fa914d05" x="48.218494" y="28.8" style="stroke: #000000; stroke-width: 0.8"/>
      </g>
     </g>
     <g id="text_11">
      <!-- 100 -->
      <g transform="translate(26.251032 43.870589) rotate(-45) scale(0.1 -0.1)">
       <use xlink:href="#DejaVuSans-31"/>
       <use xlink:href="#DejaVuSans-30" x="63.623047"/>
       <use xlink:href="#DejaVuSans-30" x="127.246094"/>
      </g>
     </g>
    </g>
    <g id="text_12">
     <!-- Acc (%) -->
     <g transform="translate(14.798438 131.032656) rotate(-90) scale(0.1 -0.1)">
      <defs>
       <path id="DejaVuSans-41" d="M 2188 4044 
L 1331 1722 
L 3047 1722 
L 2188 4044 
z
M 1831 4666 
L 2547 4666 
L 4325 0 
L 3669 0 
L 3244 1197 
L 1141 1197 
L 716 0 
L 50 0 
L 1831 4666 
z
" transform="scale(0.015625)"/>
       <path id="DejaVuSans-63" d="M 3122 3366 
L 3122 2828 
Q 2878 2963 2633 3030 
Q 2388 3097 2138 3097 
Q 1578 3097 1268 2742 
Q 959 2388 959 1747 
Q 959 1106 1268 751 
Q 1578 397 2138 397 
Q 2388 397 2633 464 
Q 2878 531 3122 666 
L 3122 134 
Q 2881 22 2623 -34 
Q 2366 -91 2075 -91 
Q 1284 -91 818 406 
Q 353 903 353 1747 
Q 353 2603 823 3093 
Q 1294 3584 2113 3584 
Q 2378 3584 2631 3529 
Q 2884 3475 3122 3366 
z
" transform="scale(0.015625)"/>
       <path id="DejaVuSans-28" d="M 1984 4856 
Q 1566 4138 1362 3434 
Q 1159 2731 1159 2009 
Q 1159 1288 1364 580 
Q 1569 -128 1984 -844 
L 1484 -844 
Q 1016 -109 783 600 
Q 550 1309 550 2009 
Q 550 2706 781 3412 
Q 1013 4119 1484 4856 
L 1984 4856 
z
" transform="scale(0.015625)"/>
       <path id="DejaVuSans-25" d="M 4653 2053 
Q 4381 2053 4226 1822 
Q 4072 1591 4072 1178 
Q 4072 772 4226 539 
Q 4381 306 4653 306 
Q 4919 306 5073 539 
Q 5228 772 5228 1178 
Q 5228 1588 5073 1820 
Q 4919 2053 4653 2053 
z
M 4653 2450 
Q 5147 2450 5437 2106 
Q 5728 1763 5728 1178 
Q 5728 594 5436 251 
Q 5144 -91 4653 -91 
Q 4153 -91 3862 251 
Q 3572 594 3572 1178 
Q 3572 1766 3864 2108 
Q 4156 2450 4653 2450 
z
M 1428 4353 
Q 1159 4353 1004 4120 
Q 850 3888 850 3481 
Q 850 3069 1003 2837 
Q 1156 2606 1428 2606 
Q 1700 2606 1854 2837 
Q 2009 3069 2009 3481 
Q 2009 3884 1853 4118 
Q 1697 4353 1428 4353 
z
M 4250 4750 
L 4750 4750 
L 1831 -91 
L 1331 -91 
L 4250 4750 
z
M 1428 4750 
Q 1922 4750 2215 4408 
Q 2509 4066 2509 3481 
Q 2509 2891 2217 2550 
Q 1925 2209 1428 2209 
Q 931 2209 642 2551 
Q 353 2894 353 3481 
Q 353 4063 643 4406 
Q 934 4750 1428 4750 
z
" transform="scale(0.015625)"/>
       <path id="DejaVuSans-29" d="M 513 4856 
L 1013 4856 
Q 1481 4119 1714 3412 
Q 1947 2706 1947 2009 
Q 1947 1309 1714 600 
Q 1481 -109 1013 -844 
L 513 -844 
Q 928 -128 1133 580 
Q 1338 1288 1338 2009 
Q 1338 2731 1133 3434 
Q 928 4138 513 4856 
z
" transform="scale(0.015625)"/>
      </defs>
      <use xlink:href="#DejaVuSans-41"/>
      <use xlink:href="#DejaVuSans-63" x="66.658203"/>
      <use xlink:href="#DejaVuSans-63" x="121.638672"/>
      <use xlink:href="#DejaVuSans-20" x="176.619141"/>
      <use xlink:href="#DejaVuSans-28" x="208.40625"/>
      <use xlink:href="#DejaVuSans-25" x="247.419922"/>
      <use xlink:href="#DejaVuSans-29" x="342.439453"/>
     </g>
    </g>
   </g>
   <g id="LineCollection_1">
    <path d="M 53.544857 160.286015 
L 53.544857 157.142785 
" clip-path="url(#pf466541258)" style="fill: none; stroke: #000000; stroke-opacity: 0.7; stroke-width: 1.5"/>
    <path d="M 55.696923 150.042571 
L 55.696923 147.889829 
" clip-path="url(#pf466541258)" style="fill: none; stroke: #000000; stroke-opacity: 0.7; stroke-width: 1.5"/>
    <path d="M 57.848989 145.693051 
L 57.848989 140.781749 
" clip-path="url(#pf466541258)" style="fill: none; stroke: #000000; stroke-opacity: 0.7; stroke-width: 1.5"/>
    <path d="M 63.229155 134.279501 
L 63.229155 131.312899 
" clip-path="url(#pf466541258)" style="fill: none; stroke: #000000; stroke-opacity: 0.7; stroke-width: 1.5"/>
    <path d="M 73.989485 113.299078 
L 73.989485 107.386922 
" clip-path="url(#pf466541258)" style="fill: none; stroke: #000000; stroke-opacity: 0.7; stroke-width: 1.5"/>
    <path d="M 95.510146 94.694604 
L 95.510146 88.661796 
" clip-path="url(#pf466541258)" style="fill: none; stroke: #000000; stroke-opacity: 0.7; stroke-width: 1.5"/>
    <path d="M 117.030808 84.71484 
L 117.030808 81.17796 
" clip-path="url(#pf466541258)" style="fill: none; stroke: #000000; stroke-opacity: 0.7; stroke-width: 1.5"/>
    <path d="M 138.551469 78.517231 
L 138.551469 74.901569 
" clip-path="url(#pf466541258)" style="fill: none; stroke: #000000; stroke-opacity: 0.7; stroke-width: 1.5"/>
    <path d="M 149.311799 75.816216 
L 149.311799 72.890184 
" clip-path="url(#pf466541258)" style="fill: none; stroke: #000000; stroke-opacity: 0.7; stroke-width: 1.5"/>
    <path d="M 160.07213 72.937406 
L 160.07213 71.333794 
" clip-path="url(#pf466541258)" style="fill: none; stroke: #000000; stroke-opacity: 0.7; stroke-width: 1.5"/>
   </g>
   <g id="LineCollection_2">
    <path d="M 53.544857 153.96021 
L 53.544857 153.85899 
" clip-path="url(#pf466541258)" style="fill: none; stroke: #000000; stroke-opacity: 0.3; stroke-width: 1.5"/>
    <path d="M 55.696923 153.816274 
L 55.696923 153.356126 
" clip-path="url(#pf466541258)" style="fill: none; stroke: #000000; stroke-opacity: 0.3; stroke-width: 1.5"/>
    <path d="M 57.848989 153.435041 
L 57.848989 151.612159 
" clip-path="url(#pf466541258)" style="fill: none; stroke: #000000; stroke-opacity: 0.3; stroke-width: 1.5"/>
    <path d="M 63.229155 150.170607 
L 63.229155 143.511393 
" clip-path="url(#pf466541258)" style="fill: none; stroke: #000000; stroke-opacity: 0.3; stroke-width: 1.5"/>
    <path d="M 73.989485 138.927385 
L 73.989485 125.925815 
" clip-path="url(#pf466541258)" style="fill: none; stroke: #000000; stroke-opacity: 0.3; stroke-width: 1.5"/>
    <path d="M 95.510146 110.04681 
L 95.510146 104.35599 
" clip-path="url(#pf466541258)" style="fill: none; stroke: #000000; stroke-opacity: 0.3; stroke-width: 1.5"/>
    <path d="M 117.030808 95.044555 
L 117.030808 92.931845 
" clip-path="url(#pf466541258)" style="fill: none; stroke: #000000; stroke-opacity: 0.3; stroke-width: 1.5"/>
    <path d="M 138.551469 89.003747 
L 138.551469 87.422653 
" clip-path="url(#pf466541258)" style="fill: none; stroke: #000000; stroke-opacity: 0.3; stroke-width: 1.5"/>
    <path d="M 149.311799 88.15795 
L 149.311799 84.11045 
" clip-path="url(#pf466541258)" style="fill: none; stroke: #000000; stroke-opacity: 0.3; stroke-width: 1.5"/>
    <path d="M 160.07213 85.16759 
L 160.07213 81.00241 
" clip-path="url(#pf466541258)" style="fill: none; stroke: #000000; stroke-opacity: 0.3; stroke-width: 1.5"/>
   </g>
   <g id="LineCollection_3">
    <path d="M 53.544857 153.085123 
L 53.544857 150.021677 
" clip-path="url(#pf466541258)" style="fill: none; stroke: #9932eb; stroke-width: 1.5"/>
    <path d="M 55.696923 147.831933 
L 55.696923 144.002067 
" clip-path="url(#pf466541258)" style="fill: none; stroke: #9932eb; stroke-width: 1.5"/>
    <path d="M 57.848989 141.474161 
L 57.848989 137.793439 
" clip-path="url(#pf466541258)" style="fill: none; stroke: #9932eb; stroke-width: 1.5"/>
    <path d="M 63.229155 134.030665 
L 63.229155 127.773335 
" clip-path="url(#pf466541258)" style="fill: none; stroke: #9932eb; stroke-width: 1.5"/>
    <path d="M 73.989485 98.293829 
L 73.989485 93.840571 
" clip-path="url(#pf466541258)" style="fill: none; stroke: #9932eb; stroke-width: 1.5"/>
    <path d="M 95.510146 86.554442 
L 95.510146 81.648358 
" clip-path="url(#pf466541258)" style="fill: none; stroke: #9932eb; stroke-width: 1.5"/>
    <path d="M 117.030808 74.9612 
L 117.030808 70.9732 
" clip-path="url(#pf466541258)" style="fill: none; stroke: #9932eb; stroke-width: 1.5"/>
    <path d="M 138.551469 64.506914 
L 138.551469 63.686686 
" clip-path="url(#pf466541258)" style="fill: none; stroke: #9932eb; stroke-width: 1.5"/>
    <path d="M 149.311799 66.916937 
L 149.311799 61.184263 
" clip-path="url(#pf466541258)" style="fill: none; stroke: #9932eb; stroke-width: 1.5"/>
    <path d="M 160.07213 54.698776 
L 160.07213 52.982024 
" clip-path="url(#pf466541258)" style="fill: none; stroke: #9932eb; stroke-width: 1.5"/>
   </g>
   <g id="LineCollection_4">
    <path d="M 53.544857 178.147795 
L 53.544857 166.723805 
" clip-path="url(#pf466541258)" style="fill: none; stroke: #9932eb; stroke-width: 1.5"/>
    <path d="M 55.696923 131.644868 
L 55.696923 118.539832 
" clip-path="url(#pf466541258)" style="fill: none; stroke: #9932eb; stroke-width: 1.5"/>
    <path d="M 57.848989 106.51216 
L 57.848989 92.27504 
" clip-path="url(#pf466541258)" style="fill: none; stroke: #9932eb; stroke-width: 1.5"/>
    <path d="M 63.229155 69.323135 
L 63.229155 64.529965 
" clip-path="url(#pf466541258)" style="fill: none; stroke: #9932eb; stroke-width: 1.5"/>
    <path d="M 73.989485 52.362902 
L 73.989485 48.988498 
" clip-path="url(#pf466541258)" style="fill: none; stroke: #9932eb; stroke-width: 1.5"/>
    <path d="M 95.510146 45.178131 
L 95.510146 43.907169 
" clip-path="url(#pf466541258)" style="fill: none; stroke: #9932eb; stroke-width: 1.5"/>
    <path d="M 117.030808 42.605228 
L 117.030808 40.936072 
" clip-path="url(#pf466541258)" style="fill: none; stroke: #9932eb; stroke-width: 1.5"/>
    <path d="M 138.551469 41.142715 
L 138.551469 39.534185 
" clip-path="url(#pf466541258)" style="fill: none; stroke: #9932eb; stroke-width: 1.5"/>
    <path d="M 149.311799 39.549149 
L 149.311799 38.910151 
" clip-path="url(#pf466541258)" style="fill: none; stroke: #9932eb; stroke-width: 1.5"/>
    <path d="M 160.07213 39.939712 
L 160.07213 38.796788 
" clip-path="url(#pf466541258)" style="fill: none; stroke: #9932eb; stroke-width: 1.5"/>
   </g>
   <g id="line2d_11">
    <path d="M 53.544857 158.7144 
L 55.696923 148.9662 
L 57.848989 143.2374 
L 63.229155 132.7962 
L 73.989485 110.343 
L 95.510146 91.6782 
L 117.030808 82.9464 
L 138.551469 76.7094 
L 149.311799 74.3532 
L 160.07213 72.1356 
" clip-path="url(#pf466541258)" style="fill: none; stroke-dasharray: 5.55,2.4; stroke-dashoffset: 0; stroke: #000000; stroke-opacity: 0.7; stroke-width: 1.5"/>
   </g>
   <g id="line2d_12">
    <path d="M 53.544857 153.9096 
L 55.696923 153.5862 
L 57.848989 152.5236 
L 63.229155 146.841 
L 73.989485 132.4266 
L 95.510146 107.2014 
L 117.030808 93.9882 
L 138.551469 88.2132 
L 149.311799 86.1342 
L 160.07213 83.085 
" clip-path="url(#pf466541258)" style="fill: none; stroke-dasharray: 5.55,2.4; stroke-dashoffset: 0; stroke: #000000; stroke-opacity: 0.3; stroke-width: 1.5"/>
   </g>
   <g id="line2d_13">
    <path d="M 53.544857 151.5534 
L 55.696923 145.917 
L 57.848989 139.6338 
L 63.229155 130.902 
L 73.989485 96.0672 
L 95.510146 84.1014 
L 117.030808 72.9672 
L 138.551469 64.0968 
L 149.311799 64.0506 
L 160.07213 53.8404 
" clip-path="url(#pf466541258)" style="fill: none; stroke: #9932eb; stroke-width: 1.5; stroke-linecap: square"/>
   </g>
   <g id="line2d_14">
    <path d="M 53.544857 172.4358 
L 55.696923 125.09235 
L 57.848989 99.3936 
L 63.229155 66.92655 
L 73.989485 50.6757 
L 95.510146 44.54265 
L 117.030808 41.77065 
L 138.551469 40.33845 
L 149.311799 39.22965 
L 160.07213 39.36825 
" clip-path="url(#pf466541258)" style="fill: none; stroke-dasharray: 1.5,2.475; stroke-dashoffset: 0; stroke: #9932eb; stroke-width: 1.5"/>
   </g>
   <g id="patch_3">
    <path d="M 48.218494 184.725 
L 48.218494 28.8 
" style="fill: none; stroke: #000000; stroke-width: 0.8; stroke-linejoin: miter; stroke-linecap: square"/>
   </g>
   <g id="patch_4">
    <path d="M 53.544857 195.12 
L 160.07213 195.12 
" style="fill: none; stroke: #000000; stroke-width: 0.8; stroke-linejoin: miter; stroke-linecap: square"/>
   </g>
   <g id="legend_1">
    <g id="text_13">
     <!-- NP, 1 frame -->
     <g transform="translate(98.840556 136.6358) scale(0.1 -0.1)">
      <defs>
       <path id="DejaVuSans-50" d="M 1259 4147 
L 1259 2394 
L 2053 2394 
Q 2494 2394 2734 2622 
Q 2975 2850 2975 3272 
Q 2975 3691 2734 3919 
Q 2494 4147 2053 4147 
L 1259 4147 
z
M 628 4666 
L 2053 4666 
Q 2838 4666 3239 4311 
Q 3641 3956 3641 3272 
Q 3641 2581 3239 2228 
Q 2838 1875 2053 1875 
L 1259 1875 
L 1259 0 
L 628 0 
L 628 4666 
z
" transform="scale(0.015625)"/>
       <path id="DejaVuSans-2c" d="M 750 794 
L 1409 794 
L 1409 256 
L 897 -744 
L 494 -744 
L 750 256 
L 750 794 
z
" transform="scale(0.015625)"/>
       <path id="DejaVuSans-66" d="M 2375 4863 
L 2375 4384 
L 1825 4384 
Q 1516 4384 1395 4259 
Q 1275 4134 1275 3809 
L 1275 3500 
L 2222 3500 
L 2222 3053 
L 1275 3053 
L 1275 0 
L 697 0 
L 697 3053 
L 147 3053 
L 147 3500 
L 697 3500 
L 697 3744 
Q 697 4328 969 4595 
Q 1241 4863 1831 4863 
L 2375 4863 
z
" transform="scale(0.015625)"/>
       <path id="DejaVuSans-61" d="M 2194 1759 
Q 1497 1759 1228 1600 
Q 959 1441 959 1056 
Q 959 750 1161 570 
Q 1363 391 1709 391 
Q 2188 391 2477 730 
Q 2766 1069 2766 1631 
L 2766 1759 
L 2194 1759 
z
M 3341 1997 
L 3341 0 
L 2766 0 
L 2766 531 
Q 2569 213 2275 61 
Q 1981 -91 1556 -91 
Q 1019 -91 701 211 
Q 384 513 384 1019 
Q 384 1609 779 1909 
Q 1175 2209 1959 2209 
L 2766 2209 
L 2766 2266 
Q 2766 2663 2505 2880 
Q 2244 3097 1772 3097 
Q 1472 3097 1187 3025 
Q 903 2953 641 2809 
L 641 3341 
Q 956 3463 1253 3523 
Q 1550 3584 1831 3584 
Q 2591 3584 2966 3190 
Q 3341 2797 3341 1997 
z
" transform="scale(0.015625)"/>
       <path id="DejaVuSans-6d" d="M 3328 2828 
Q 3544 3216 3844 3400 
Q 4144 3584 4550 3584 
Q 5097 3584 5394 3201 
Q 5691 2819 5691 2113 
L 5691 0 
L 5113 0 
L 5113 2094 
Q 5113 2597 4934 2840 
Q 4756 3084 4391 3084 
Q 3944 3084 3684 2787 
Q 3425 2491 3425 1978 
L 3425 0 
L 2847 0 
L 2847 2094 
Q 2847 2600 2669 2842 
Q 2491 3084 2119 3084 
Q 1678 3084 1418 2786 
Q 1159 2488 1159 1978 
L 1159 0 
L 581 0 
L 581 3500 
L 1159 3500 
L 1159 2956 
Q 1356 3278 1631 3431 
Q 1906 3584 2284 3584 
Q 2666 3584 2933 3390 
Q 3200 3197 3328 2828 
z
" transform="scale(0.015625)"/>
      </defs>
      <use xlink:href="#DejaVuSans-4e"/>
      <use xlink:href="#DejaVuSans-50" x="74.804688"/>
      <use xlink:href="#DejaVuSans-2c" x="135.107422"/>
      <use xlink:href="#DejaVuSans-20" x="166.894531"/>
      <use xlink:href="#DejaVuSans-31" x="198.681641"/>
      <use xlink:href="#DejaVuSans-20" x="262.304688"/>
      <use xlink:href="#DejaVuSans-66" x="294.091797"/>
      <use xlink:href="#DejaVuSans-72" x="329.296875"/>
      <use xlink:href="#DejaVuSans-61" x="370.410156"/>
      <use xlink:href="#DejaVuSans-6d" x="431.689453"/>
      <use xlink:href="#DejaVuSans-65" x="529.101562"/>
     </g>
    </g>
    <g id="LineCollection_5">
     <path d="M 74.1069 150.459486 
L 74.1069 142.129486 
" style="fill: none; stroke: #000000; stroke-opacity: 0.7; stroke-width: 1.5"/>
    </g>
    <g id="line2d_15">
     <path d="M 65.7769 146.294486 
L 82.4369 146.294486 
" style="fill: none; stroke-dasharray: 5.55,2.4; stroke-dashoffset: 0; stroke: #000000; stroke-opacity: 0.7; stroke-width: 1.5"/>
    </g>
    <g id="line2d_16"/>
    <g id="text_14">
     <!-- kNN baseline -->
     <g transform="translate(89.1009 149.209986) scale(0.0833 -0.0833)">
      <defs>
       <path id="DejaVuSans-6b" d="M 581 4863 
L 1159 4863 
L 1159 1991 
L 2875 3500 
L 3609 3500 
L 1753 1863 
L 3688 0 
L 2938 0 
L 1159 1709 
L 1159 0 
L 581 0 
L 581 4863 
z
" transform="scale(0.015625)"/>
       <path id="DejaVuSans-62" d="M 3116 1747 
Q 3116 2381 2855 2742 
Q 2594 3103 2138 3103 
Q 1681 3103 1420 2742 
Q 1159 2381 1159 1747 
Q 1159 1113 1420 752 
Q 1681 391 2138 391 
Q 2594 391 2855 752 
Q 3116 1113 3116 1747 
z
M 1159 2969 
Q 1341 3281 1617 3432 
Q 1894 3584 2278 3584 
Q 2916 3584 3314 3078 
Q 3713 2572 3713 1747 
Q 3713 922 3314 415 
Q 2916 -91 2278 -91 
Q 1894 -91 1617 61 
Q 1341 213 1159 525 
L 1159 0 
L 581 0 
L 581 4863 
L 1159 4863 
L 1159 2969 
z
" transform="scale(0.015625)"/>
       <path id="DejaVuSans-6c" d="M 603 4863 
L 1178 4863 
L 1178 0 
L 603 0 
L 603 4863 
z
" transform="scale(0.015625)"/>
       <path id="DejaVuSans-69" d="M 603 3500 
L 1178 3500 
L 1178 0 
L 603 0 
L 603 3500 
z
M 603 4863 
L 1178 4863 
L 1178 4134 
L 603 4134 
L 603 4863 
z
" transform="scale(0.015625)"/>
      </defs>
      <use xlink:href="#DejaVuSans-6b"/>
      <use xlink:href="#DejaVuSans-4e" x="57.910156"/>
      <use xlink:href="#DejaVuSans-4e" x="132.714844"/>
      <use xlink:href="#DejaVuSans-20" x="207.519531"/>
      <use xlink:href="#DejaVuSans-62" x="239.306641"/>
      <use xlink:href="#DejaVuSans-61" x="302.783203"/>
      <use xlink:href="#DejaVuSans-73" x="364.0625"/>
      <use xlink:href="#DejaVuSans-65" x="416.162109"/>
      <use xlink:href="#DejaVuSans-6c" x="477.685547"/>
      <use xlink:href="#DejaVuSans-69" x="505.46875"/>
      <use xlink:href="#DejaVuSans-6e" x="533.251953"/>
      <use xlink:href="#DejaVuSans-65" x="596.630859"/>
     </g>
    </g>
    <g id="LineCollection_6">
     <path d="M 74.1069 162.686364 
L 74.1069 154.356364 
" style="fill: none; stroke: #000000; stroke-opacity: 0.3; stroke-width: 1.5"/>
    </g>
    <g id="line2d_17">
     <path d="M 65.7769 158.521364 
L 82.4369 158.521364 
" style="fill: none; stroke-dasharray: 5.55,2.4; stroke-dashoffset: 0; stroke: #000000; stroke-opacity: 0.3; stroke-width: 1.5"/>
    </g>
    <g id="line2d_18"/>
    <g id="text_15">
     <!-- Bayes baseline -->
     <g transform="translate(89.1009 161.436864) scale(0.0833 -0.0833)">
      <defs>
       <path id="DejaVuSans-42" d="M 1259 2228 
L 1259 519 
L 2272 519 
Q 2781 519 3026 730 
Q 3272 941 3272 1375 
Q 3272 1813 3026 2020 
Q 2781 2228 2272 2228 
L 1259 2228 
z
M 1259 4147 
L 1259 2741 
L 2194 2741 
Q 2656 2741 2882 2914 
Q 3109 3088 3109 3444 
Q 3109 3797 2882 3972 
Q 2656 4147 2194 4147 
L 1259 4147 
z
M 628 4666 
L 2241 4666 
Q 2963 4666 3353 4366 
Q 3744 4066 3744 3513 
Q 3744 3084 3544 2831 
Q 3344 2578 2956 2516 
Q 3422 2416 3680 2098 
Q 3938 1781 3938 1306 
Q 3938 681 3513 340 
Q 3088 0 2303 0 
L 628 0 
L 628 4666 
z
" transform="scale(0.015625)"/>
       <path id="DejaVuSans-79" d="M 2059 -325 
Q 1816 -950 1584 -1140 
Q 1353 -1331 966 -1331 
L 506 -1331 
L 506 -850 
L 844 -850 
Q 1081 -850 1212 -737 
Q 1344 -625 1503 -206 
L 1606 56 
L 191 3500 
L 800 3500 
L 1894 763 
L 2988 3500 
L 3597 3500 
L 2059 -325 
z
" transform="scale(0.015625)"/>
      </defs>
      <use xlink:href="#DejaVuSans-42"/>
      <use xlink:href="#DejaVuSans-61" x="68.603516"/>
      <use xlink:href="#DejaVuSans-79" x="129.882812"/>
      <use xlink:href="#DejaVuSans-65" x="189.0625"/>
      <use xlink:href="#DejaVuSans-73" x="250.585938"/>
      <use xlink:href="#DejaVuSans-20" x="302.685547"/>
      <use xlink:href="#DejaVuSans-62" x="334.472656"/>
      <use xlink:href="#DejaVuSans-61" x="397.949219"/>
      <use xlink:href="#DejaVuSans-73" x="459.228516"/>
      <use xlink:href="#DejaVuSans-65" x="511.328125"/>
      <use xlink:href="#DejaVuSans-6c" x="572.851562"/>
      <use xlink:href="#DejaVuSans-69" x="600.634766"/>
      <use xlink:href="#DejaVuSans-6e" x="628.417969"/>
      <use xlink:href="#DejaVuSans-65" x="691.796875"/>
     </g>
    </g>
    <g id="LineCollection_7">
     <path d="M 74.1069 174.913242 
L 74.1069 166.583242 
" style="fill: none; stroke: #9932eb; stroke-width: 1.5"/>
    </g>
    <g id="line2d_19">
     <path d="M 65.7769 170.748242 
L 82.4369 170.748242 
" style="fill: none; stroke: #9932eb; stroke-width: 1.5; stroke-linecap: square"/>
    </g>
    <g id="line2d_20"/>
    <g id="text_16">
     <!-- kNN CEBRA -->
     <g transform="translate(89.1009 173.663742) scale(0.0833 -0.0833)">
      <defs>
       <path id="DejaVuSans-43" d="M 4122 4306 
L 4122 3641 
Q 3803 3938 3442 4084 
Q 3081 4231 2675 4231 
Q 1875 4231 1450 3742 
Q 1025 3253 1025 2328 
Q 1025 1406 1450 917 
Q 1875 428 2675 428 
Q 3081 428 3442 575 
Q 3803 722 4122 1019 
L 4122 359 
Q 3791 134 3420 21 
Q 3050 -91 2638 -91 
Q 1578 -91 968 557 
Q 359 1206 359 2328 
Q 359 3453 968 4101 
Q 1578 4750 2638 4750 
Q 3056 4750 3426 4639 
Q 3797 4528 4122 4306 
z
" transform="scale(0.015625)"/>
       <path id="DejaVuSans-45" d="M 628 4666 
L 3578 4666 
L 3578 4134 
L 1259 4134 
L 1259 2753 
L 3481 2753 
L 3481 2222 
L 1259 2222 
L 1259 531 
L 3634 531 
L 3634 0 
L 628 0 
L 628 4666 
z
" transform="scale(0.015625)"/>
       <path id="DejaVuSans-52" d="M 2841 2188 
Q 3044 2119 3236 1894 
Q 3428 1669 3622 1275 
L 4263 0 
L 3584 0 
L 2988 1197 
Q 2756 1666 2539 1819 
Q 2322 1972 1947 1972 
L 1259 1972 
L 1259 0 
L 628 0 
L 628 4666 
L 2053 4666 
Q 2853 4666 3247 4331 
Q 3641 3997 3641 3322 
Q 3641 2881 3436 2590 
Q 3231 2300 2841 2188 
z
M 1259 4147 
L 1259 2491 
L 2053 2491 
Q 2509 2491 2742 2702 
Q 2975 2913 2975 3322 
Q 2975 3731 2742 3939 
Q 2509 4147 2053 4147 
L 1259 4147 
z
" transform="scale(0.015625)"/>
      </defs>
      <use xlink:href="#DejaVuSans-6b"/>
      <use xlink:href="#DejaVuSans-4e" x="57.910156"/>
      <use xlink:href="#DejaVuSans-4e" x="132.714844"/>
      <use xlink:href="#DejaVuSans-20" x="207.519531"/>
      <use xlink:href="#DejaVuSans-43" x="239.306641"/>
      <use xlink:href="#DejaVuSans-45" x="309.130859"/>
      <use xlink:href="#DejaVuSans-42" x="372.314453"/>
      <use xlink:href="#DejaVuSans-52" x="440.917969"/>
      <use xlink:href="#DejaVuSans-41" x="506.400391"/>
     </g>
    </g>
    <g id="LineCollection_8">
     <path d="M 74.1069 187.14012 
L 74.1069 178.81012 
" style="fill: none; stroke: #9932eb; stroke-width: 1.5"/>
    </g>
    <g id="line2d_21">
     <path d="M 65.7769 182.97512 
L 82.4369 182.97512 
" style="fill: none; stroke-dasharray: 1.5,2.475; stroke-dashoffset: 0; stroke: #9932eb; stroke-width: 1.5"/>
    </g>
    <g id="line2d_22"/>
    <g id="text_17">
     <!-- kNN CEBRA joint -->
     <g transform="translate(89.1009 185.89062) scale(0.0833 -0.0833)">
      <defs>
       <path id="DejaVuSans-6a" d="M 603 3500 
L 1178 3500 
L 1178 -63 
Q 1178 -731 923 -1031 
Q 669 -1331 103 -1331 
L -116 -1331 
L -116 -844 
L 38 -844 
Q 366 -844 484 -692 
Q 603 -541 603 -63 
L 603 3500 
z
M 603 4863 
L 1178 4863 
L 1178 4134 
L 603 4134 
L 603 4863 
z
" transform="scale(0.015625)"/>
       <path id="DejaVuSans-74" d="M 1172 4494 
L 1172 3500 
L 2356 3500 
L 2356 3053 
L 1172 3053 
L 1172 1153 
Q 1172 725 1289 603 
Q 1406 481 1766 481 
L 2356 481 
L 2356 0 
L 1766 0 
Q 1100 0 847 248 
Q 594 497 594 1153 
L 594 3053 
L 172 3053 
L 172 3500 
L 594 3500 
L 594 4494 
L 1172 4494 
z
" transform="scale(0.015625)"/>
      </defs>
      <use xlink:href="#DejaVuSans-6b"/>
      <use xlink:href="#DejaVuSans-4e" x="57.910156"/>
      <use xlink:href="#DejaVuSans-4e" x="132.714844"/>
      <use xlink:href="#DejaVuSans-20" x="207.519531"/>
      <use xlink:href="#DejaVuSans-43" x="239.306641"/>
      <use xlink:href="#DejaVuSans-45" x="309.130859"/>
      <use xlink:href="#DejaVuSans-42" x="372.314453"/>
      <use xlink:href="#DejaVuSans-52" x="440.917969"/>
      <use xlink:href="#DejaVuSans-41" x="506.400391"/>
      <use xlink:href="#DejaVuSans-20" x="574.808594"/>
      <use xlink:href="#DejaVuSans-6a" x="606.595703"/>
      <use xlink:href="#DejaVuSans-6f" x="634.378906"/>
      <use xlink:href="#DejaVuSans-69" x="695.560547"/>
      <use xlink:href="#DejaVuSans-6e" x="723.34375"/>
      <use xlink:href="#DejaVuSans-74" x="786.722656"/>
     </g>
    </g>
   </g>
  </g>
  <g id="text_18">
   <!-- Scene annotation -->
   <g transform="translate(52.242244 16.318125) scale(0.12 -0.12)">
    <defs>
     <path id="DejaVuSans-53" d="M 3425 4513 
L 3425 3897 
Q 3066 4069 2747 4153 
Q 2428 4238 2131 4238 
Q 1616 4238 1336 4038 
Q 1056 3838 1056 3469 
Q 1056 3159 1242 3001 
Q 1428 2844 1947 2747 
L 2328 2669 
Q 3034 2534 3370 2195 
Q 3706 1856 3706 1288 
Q 3706 609 3251 259 
Q 2797 -91 1919 -91 
Q 1588 -91 1214 -16 
Q 841 59 441 206 
L 441 856 
Q 825 641 1194 531 
Q 1563 422 1919 422 
Q 2459 422 2753 634 
Q 3047 847 3047 1241 
Q 3047 1584 2836 1778 
Q 2625 1972 2144 2069 
L 1759 2144 
Q 1053 2284 737 2584 
Q 422 2884 422 3419 
Q 422 4038 858 4394 
Q 1294 4750 2059 4750 
Q 2388 4750 2728 4690 
Q 3069 4631 3425 4513 
z
" transform="scale(0.015625)"/>
    </defs>
    <use xlink:href="#DejaVuSans-53"/>
    <use xlink:href="#DejaVuSans-63" x="63.476562"/>
    <use xlink:href="#DejaVuSans-65" x="118.457031"/>
    <use xlink:href="#DejaVuSans-6e" x="179.980469"/>
    <use xlink:href="#DejaVuSans-65" x="243.359375"/>
    <use xlink:href="#DejaVuSans-20" x="304.882812"/>
    <use xlink:href="#DejaVuSans-61" x="336.669922"/>
    <use xlink:href="#DejaVuSans-6e" x="397.949219"/>
    <use xlink:href="#DejaVuSans-6e" x="461.328125"/>
    <use xlink:href="#DejaVuSans-6f" x="524.707031"/>
    <use xlink:href="#DejaVuSans-74" x="585.888672"/>
    <use xlink:href="#DejaVuSans-61" x="625.097656"/>
    <use xlink:href="#DejaVuSans-74" x="686.376953"/>
    <use xlink:href="#DejaVuSans-69" x="725.585938"/>
    <use xlink:href="#DejaVuSans-6f" x="753.369141"/>
    <use xlink:href="#DejaVuSans-6e" x="814.550781"/>
   </g>
  </g>
 </g>
 <defs>
  <clipPath id="pf466541258">
   <rect x="48.218494" y="28.8" width="117.18" height="166.32"/>
  </clipPath>
 </defs>
</svg>
