<?xml version="1.0" encoding="utf-8" standalone="no"?>
<!DOCTYPE svg PUBLIC "-//W3C//DTD SVG 1.1//EN"
  "http://www.w3.org/Graphics/SVG/1.1/DTD/svg11.dtd">
<svg xmlns:xlink="http://www.w3.org/1999/xlink" width="183.552557pt" height="214.875469pt" viewBox="0 0 183.552557 214.875469" xmlns="http://www.w3.org/2000/svg" version="1.1">
 <metadata>
  <rdf:RDF xmlns:dc="http://purl.org/dc/elements/1.1/" xmlns:cc="http://creativecommons.org/ns#" xmlns:rdf="http://www.w3.org/1999/02/22-rdf-syntax-ns#">
   <cc:Work>
    <dc:type rdf:resource="http://purl.org/dc/dcmitype/StillImage"/>
    <dc:date>2025-06-06T15:20:38.893936</dc:date>
    <dc:format>image/svg+xml</dc:format>
    <dc:creator>
     <cc:Agent>
      <dc:title>Matplotlib v3.9.4, https://matplotlib.org/</dc:title>
     </cc:Agent>
    </dc:creator>
   </cc:Work>
  </rdf:RDF>
 </metadata>
 <defs>
  <style type="text/css">*{stroke-linejoin: round; stroke-linecap: butt}</style>
 </defs>
 <g id="figure_1">
  <g id="patch_1">
   <path d="M 0 214.875469 
L 183.552557 214.875469 
L 183.552557 0 
L 0 0 
L 0 214.875469 
z
" style="fill: none"/>
  </g>
  <g id="axes_1">
   <g id="patch_2">
    <path d="M 46.965625 177.319219 
L 172.515625 177.319219 
L 172.515625 10.999219 
L 46.965625 10.999219 
L 46.965625 177.319219 
z
" style="fill: none"/>
   </g>
   <g id="matplotlib.axis_1">
    <g id="xtick_1">
     <g id="line2d_1">
      <defs>
       <path id="m4b66d01b55" d="M 0 0 
L 0 3.5 
" style="stroke: #000000; stroke-width: 0.8"/>
      </defs>
      <g>
       <use xlink:href="#m4b66d01b55" x="52.672443" y="177.319219" style="stroke: #000000; stroke-width: 0.8"/>
      </g>
     </g>
     <g id="text_1">
      <!-- 10 -->
      <g transform="translate(46.309943 191.917656) scale(0.1 -0.1)">
       <defs>
        <path id="DejaVuSans-31" d="M 794 531 
L 1825 531 
L 1825 4091 
L 703 3866 
L 703 4441 
L 1819 4666 
L 2450 4666 
L 2450 531 
L 3481 531 
L 3481 0 
L 794 0 
L 794 531 
z
" transform="scale(0.015625)"/>
        <path id="DejaVuSans-30" d="M 2034 4250 
Q 1547 4250 1301 3770 
Q 1056 3291 1056 2328 
Q 1056 1369 1301 889 
Q 1547 409 2034 409 
Q 2525 409 2770 889 
Q 3016 1369 3016 2328 
Q 3016 3291 2770 3770 
Q 2525 4250 2034 4250 
z
M 2034 4750 
Q 2819 4750 3233 4129 
Q 3647 3509 3647 2328 
Q 3647 1150 3233 529 
Q 2819 -91 2034 -91 
Q 1250 -91 836 529 
Q 422 1150 422 2328 
Q 422 3509 836 4129 
Q 1250 4750 2034 4750 
z
" transform="scale(0.015625)"/>
       </defs>
       <use xlink:href="#DejaVuSans-31"/>
       <use xlink:href="#DejaVuSans-30" x="63.623047"/>
      </g>
     </g>
    </g>
    <g id="xtick_2">
     <g id="line2d_2">
      <g>
       <use xlink:href="#m4b66d01b55" x="80.122961" y="177.319219" style="stroke: #000000; stroke-width: 0.8"/>
      </g>
     </g>
     <g id="text_2">
      <!-- 200 -->
      <g transform="translate(70.579211 191.917656) scale(0.1 -0.1)">
       <defs>
        <path id="DejaVuSans-32" d="M 1228 531 
L 3431 531 
L 3431 0 
L 469 0 
L 469 531 
Q 828 903 1448 1529 
Q 2069 2156 2228 2338 
Q 2531 2678 2651 2914 
Q 2772 3150 2772 3378 
Q 2772 3750 2511 3984 
Q 2250 4219 1831 4219 
Q 1534 4219 1204 4116 
Q 875 4013 500 3803 
L 500 4441 
Q 881 4594 1212 4672 
Q 1544 4750 1819 4750 
Q 2544 4750 2975 4387 
Q 3406 4025 3406 3419 
Q 3406 3131 3298 2873 
Q 3191 2616 2906 2266 
Q 2828 2175 2409 1742 
Q 1991 1309 1228 531 
z
" transform="scale(0.015625)"/>
       </defs>
       <use xlink:href="#DejaVuSans-32"/>
       <use xlink:href="#DejaVuSans-30" x="63.623047"/>
       <use xlink:href="#DejaVuSans-30" x="127.246094"/>
      </g>
     </g>
    </g>
    <g id="xtick_3">
     <g id="line2d_3">
      <g>
       <use xlink:href="#m4b66d01b55" x="109.018243" y="177.319219" style="stroke: #000000; stroke-width: 0.8"/>
      </g>
     </g>
     <g id="text_3">
      <!-- 400 -->
      <g transform="translate(99.474493 191.917656) scale(0.1 -0.1)">
       <defs>
        <path id="DejaVuSans-34" d="M 2419 4116 
L 825 1625 
L 2419 1625 
L 2419 4116 
z
M 2253 4666 
L 3047 4666 
L 3047 1625 
L 3713 1625 
L 3713 1100 
L 3047 1100 
L 3047 0 
L 2419 0 
L 2419 1100 
L 313 1100 
L 313 1709 
L 2253 4666 
z
" transform="scale(0.015625)"/>
       </defs>
       <use xlink:href="#DejaVuSans-34"/>
       <use xlink:href="#DejaVuSans-30" x="63.623047"/>
       <use xlink:href="#DejaVuSans-30" x="127.246094"/>
      </g>
     </g>
    </g>
    <g id="xtick_4">
     <g id="line2d_4">
      <g>
       <use xlink:href="#m4b66d01b55" x="137.913525" y="177.319219" style="stroke: #000000; stroke-width: 0.8"/>
      </g>
     </g>
     <g id="text_4">
      <!-- 600 -->
      <g transform="translate(128.369775 191.917656) scale(0.1 -0.1)">
       <defs>
        <path id="DejaVuSans-36" d="M 2113 2584 
Q 1688 2584 1439 2293 
Q 1191 2003 1191 1497 
Q 1191 994 1439 701 
Q 1688 409 2113 409 
Q 2538 409 2786 701 
Q 3034 994 3034 1497 
Q 3034 2003 2786 2293 
Q 2538 2584 2113 2584 
z
M 3366 4563 
L 3366 3988 
Q 3128 4100 2886 4159 
Q 2644 4219 2406 4219 
Q 1781 4219 1451 3797 
Q 1122 3375 1075 2522 
Q 1259 2794 1537 2939 
Q 1816 3084 2150 3084 
Q 2853 3084 3261 2657 
Q 3669 2231 3669 1497 
Q 3669 778 3244 343 
Q 2819 -91 2113 -91 
Q 1303 -91 875 529 
Q 447 1150 447 2328 
Q 447 3434 972 4092 
Q 1497 4750 2381 4750 
Q 2619 4750 2861 4703 
Q 3103 4656 3366 4563 
z
" transform="scale(0.015625)"/>
       </defs>
       <use xlink:href="#DejaVuSans-36"/>
       <use xlink:href="#DejaVuSans-30" x="63.623047"/>
       <use xlink:href="#DejaVuSans-30" x="127.246094"/>
      </g>
     </g>
    </g>
    <g id="xtick_5">
     <g id="line2d_5">
      <g>
       <use xlink:href="#m4b66d01b55" x="166.808807" y="177.319219" style="stroke: #000000; stroke-width: 0.8"/>
      </g>
     </g>
     <g id="text_5">
      <!-- 800 -->
      <g transform="translate(157.265057 191.917656) scale(0.1 -0.1)">
       <defs>
        <path id="DejaVuSans-38" d="M 2034 2216 
Q 1584 2216 1326 1975 
Q 1069 1734 1069 1313 
Q 1069 891 1326 650 
Q 1584 409 2034 409 
Q 2484 409 2743 651 
Q 3003 894 3003 1313 
Q 3003 1734 2745 1975 
Q 2488 2216 2034 2216 
z
M 1403 2484 
Q 997 2584 770 2862 
Q 544 3141 544 3541 
Q 544 4100 942 4425 
Q 1341 4750 2034 4750 
Q 2731 4750 3128 4425 
Q 3525 4100 3525 3541 
Q 3525 3141 3298 2862 
Q 3072 2584 2669 2484 
Q 3125 2378 3379 2068 
Q 3634 1759 3634 1313 
Q 3634 634 3220 271 
Q 2806 -91 2034 -91 
Q 1263 -91 848 271 
Q 434 634 434 1313 
Q 434 1759 690 2068 
Q 947 2378 1403 2484 
z
M 1172 3481 
Q 1172 3119 1398 2916 
Q 1625 2713 2034 2713 
Q 2441 2713 2670 2916 
Q 2900 3119 2900 3481 
Q 2900 3844 2670 4047 
Q 2441 4250 2034 4250 
Q 1625 4250 1398 4047 
Q 1172 3844 1172 3481 
z
" transform="scale(0.015625)"/>
       </defs>
       <use xlink:href="#DejaVuSans-38"/>
       <use xlink:href="#DejaVuSans-30" x="63.623047"/>
       <use xlink:href="#DejaVuSans-30" x="127.246094"/>
      </g>
     </g>
    </g>
    <g id="text_6">
     <!-- # Neurons -->
     <g transform="translate(83.2 205.595781) scale(0.1 -0.1)">
      <defs>
       <path id="DejaVuSans-23" d="M 3272 2816 
L 2363 2816 
L 2100 1772 
L 3016 1772 
L 3272 2816 
z
M 2803 4594 
L 2478 3297 
L 3391 3297 
L 3719 4594 
L 4219 4594 
L 3897 3297 
L 4872 3297 
L 4872 2816 
L 3775 2816 
L 3519 1772 
L 4513 1772 
L 4513 1294 
L 3397 1294 
L 3072 0 
L 2572 0 
L 2894 1294 
L 1978 1294 
L 1656 0 
L 1153 0 
L 1478 1294 
L 494 1294 
L 494 1772 
L 1594 1772 
L 1856 2816 
L 850 2816 
L 850 3297 
L 1978 3297 
L 2297 4594 
L 2803 4594 
z
" transform="scale(0.015625)"/>
       <path id="DejaVuSans-20" transform="scale(0.015625)"/>
       <path id="DejaVuSans-4e" d="M 628 4666 
L 1478 4666 
L 3547 763 
L 3547 4666 
L 4159 4666 
L 4159 0 
L 3309 0 
L 1241 3903 
L 1241 0 
L 628 0 
L 628 4666 
z
" transform="scale(0.015625)"/>
       <path id="DejaVuSans-65" d="M 3597 1894 
L 3597 1613 
L 953 1613 
Q 991 1019 1311 708 
Q 1631 397 2203 397 
Q 2534 397 2845 478 
Q 3156 559 3463 722 
L 3463 178 
Q 3153 47 2828 -22 
Q 2503 -91 2169 -91 
Q 1331 -91 842 396 
Q 353 884 353 1716 
Q 353 2575 817 3079 
Q 1281 3584 2069 3584 
Q 2775 3584 3186 3129 
Q 3597 2675 3597 1894 
z
M 3022 2063 
Q 3016 2534 2758 2815 
Q 2500 3097 2075 3097 
Q 1594 3097 1305 2825 
Q 1016 2553 972 2059 
L 3022 2063 
z
" transform="scale(0.015625)"/>
       <path id="DejaVuSans-75" d="M 544 1381 
L 544 3500 
L 1119 3500 
L 1119 1403 
Q 1119 906 1312 657 
Q 1506 409 1894 409 
Q 2359 409 2629 706 
Q 2900 1003 2900 1516 
L 2900 3500 
L 3475 3500 
L 3475 0 
L 2900 0 
L 2900 538 
Q 2691 219 2414 64 
Q 2138 -91 1772 -91 
Q 1169 -91 856 284 
Q 544 659 544 1381 
z
M 1991 3584 
L 1991 3584 
z
" transform="scale(0.015625)"/>
       <path id="DejaVuSans-72" d="M 2631 2963 
Q 2534 3019 2420 3045 
Q 2306 3072 2169 3072 
Q 1681 3072 1420 2755 
Q 1159 2438 1159 1844 
L 1159 0 
L 581 0 
L 581 3500 
L 1159 3500 
L 1159 2956 
Q 1341 3275 1631 3429 
Q 1922 3584 2338 3584 
Q 2397 3584 2469 3576 
Q 2541 3569 2628 3553 
L 2631 2963 
z
" transform="scale(0.015625)"/>
       <path id="DejaVuSans-6f" d="M 1959 3097 
Q 1497 3097 1228 2736 
Q 959 2375 959 1747 
Q 959 1119 1226 758 
Q 1494 397 1959 397 
Q 2419 397 2687 759 
Q 2956 1122 2956 1747 
Q 2956 2369 2687 2733 
Q 2419 3097 1959 3097 
z
M 1959 3584 
Q 2709 3584 3137 3096 
Q 3566 2609 3566 1747 
Q 3566 888 3137 398 
Q 2709 -91 1959 -91 
Q 1206 -91 779 398 
Q 353 888 353 1747 
Q 353 2609 779 3096 
Q 1206 3584 1959 3584 
z
" transform="scale(0.015625)"/>
       <path id="DejaVuSans-6e" d="M 3513 2113 
L 3513 0 
L 2938 0 
L 2938 2094 
Q 2938 2591 2744 2837 
Q 2550 3084 2163 3084 
Q 1697 3084 1428 2787 
Q 1159 2491 1159 1978 
L 1159 0 
L 581 0 
L 581 3500 
L 1159 3500 
L 1159 2956 
Q 1366 3272 1645 3428 
Q 1925 3584 2291 3584 
Q 2894 3584 3203 3211 
Q 3513 2838 3513 2113 
z
" transform="scale(0.015625)"/>
       <path id="DejaVuSans-73" d="M 2834 3397 
L 2834 2853 
Q 2591 2978 2328 3040 
Q 2066 3103 1784 3103 
Q 1356 3103 1142 2972 
Q 928 2841 928 2578 
Q 928 2378 1081 2264 
Q 1234 2150 1697 2047 
L 1894 2003 
Q 2506 1872 2764 1633 
Q 3022 1394 3022 966 
Q 3022 478 2636 193 
Q 2250 -91 1575 -91 
Q 1294 -91 989 -36 
Q 684 19 347 128 
L 347 722 
Q 666 556 975 473 
Q 1284 391 1588 391 
Q 1994 391 2212 530 
Q 2431 669 2431 922 
Q 2431 1156 2273 1281 
Q 2116 1406 1581 1522 
L 1381 1569 
Q 847 1681 609 1914 
Q 372 2147 372 2553 
Q 372 3047 722 3315 
Q 1072 3584 1716 3584 
Q 2034 3584 2315 3537 
Q 2597 3491 2834 3397 
z
" transform="scale(0.015625)"/>
      </defs>
      <use xlink:href="#DejaVuSans-23"/>
      <use xlink:href="#DejaVuSans-20" x="83.789062"/>
      <use xlink:href="#DejaVuSans-4e" x="115.576172"/>
      <use xlink:href="#DejaVuSans-65" x="190.380859"/>
      <use xlink:href="#DejaVuSans-75" x="251.904297"/>
      <use xlink:href="#DejaVuSans-72" x="315.283203"/>
      <use xlink:href="#DejaVuSans-6f" x="354.146484"/>
      <use xlink:href="#DejaVuSans-6e" x="415.328125"/>
      <use xlink:href="#DejaVuSans-73" x="478.707031"/>
     </g>
    </g>
   </g>
   <g id="matplotlib.axis_2">
    <g id="ytick_1">
     <g id="line2d_6">
      <defs>
       <path id="mf49fd806e0" d="M 0 0 
L -3.5 0 
" style="stroke: #000000; stroke-width: 0.8"/>
      </defs>
      <g>
       <use xlink:href="#mf49fd806e0" x="46.965625" y="177.319219" style="stroke: #000000; stroke-width: 0.8"/>
      </g>
     </g>
     <g id="text_7">
      <!-- 0 -->
      <g transform="translate(33.603125 181.118438) scale(0.1 -0.1)">
       <use xlink:href="#DejaVuSans-30"/>
      </g>
     </g>
    </g>
    <g id="ytick_2">
     <g id="line2d_7">
      <g>
       <use xlink:href="#mf49fd806e0" x="46.965625" y="135.739219" style="stroke: #000000; stroke-width: 0.8"/>
      </g>
     </g>
     <g id="text_8">
      <!-- 25 -->
      <g transform="translate(27.240625 139.538438) scale(0.1 -0.1)">
       <defs>
        <path id="DejaVuSans-35" d="M 691 4666 
L 3169 4666 
L 3169 4134 
L 1269 4134 
L 1269 2991 
Q 1406 3038 1543 3061 
Q 1681 3084 1819 3084 
Q 2600 3084 3056 2656 
Q 3513 2228 3513 1497 
Q 3513 744 3044 326 
Q 2575 -91 1722 -91 
Q 1428 -91 1123 -41 
Q 819 9 494 109 
L 494 744 
Q 775 591 1075 516 
Q 1375 441 1709 441 
Q 2250 441 2565 725 
Q 2881 1009 2881 1497 
Q 2881 1984 2565 2268 
Q 2250 2553 1709 2553 
Q 1456 2553 1204 2497 
Q 953 2441 691 2322 
L 691 4666 
z
" transform="scale(0.015625)"/>
       </defs>
       <use xlink:href="#DejaVuSans-32"/>
       <use xlink:href="#DejaVuSans-35" x="63.623047"/>
      </g>
     </g>
    </g>
    <g id="ytick_3">
     <g id="line2d_8">
      <g>
       <use xlink:href="#mf49fd806e0" x="46.965625" y="94.159219" style="stroke: #000000; stroke-width: 0.8"/>
      </g>
     </g>
     <g id="text_9">
      <!-- 50 -->
      <g transform="translate(27.240625 97.958438) scale(0.1 -0.1)">
       <use xlink:href="#DejaVuSans-35"/>
       <use xlink:href="#DejaVuSans-30" x="63.623047"/>
      </g>
     </g>
    </g>
    <g id="ytick_4">
     <g id="line2d_9">
      <g>
       <use xlink:href="#mf49fd806e0" x="46.965625" y="52.579219" style="stroke: #000000; stroke-width: 0.8"/>
      </g>
     </g>
     <g id="text_10">
      <!-- 75 -->
      <g transform="translate(27.240625 56.378437) scale(0.1 -0.1)">
       <defs>
        <path id="DejaVuSans-37" d="M 525 4666 
L 3525 4666 
L 3525 4397 
L 1831 0 
L 1172 0 
L 2766 4134 
L 525 4134 
L 525 4666 
z
" transform="scale(0.015625)"/>
       </defs>
       <use xlink:href="#DejaVuSans-37"/>
       <use xlink:href="#DejaVuSans-35" x="63.623047"/>
      </g>
     </g>
    </g>
    <g id="ytick_5">
     <g id="line2d_10">
      <g>
       <use xlink:href="#mf49fd806e0" x="46.965625" y="10.999219" style="stroke: #000000; stroke-width: 0.8"/>
      </g>
     </g>
     <g id="text_11">
      <!-- 100 -->
      <g transform="translate(20.878125 14.798438) scale(0.1 -0.1)">
       <use xlink:href="#DejaVuSans-31"/>
       <use xlink:href="#DejaVuSans-30" x="63.623047"/>
       <use xlink:href="#DejaVuSans-30" x="127.246094"/>
      </g>
     </g>
    </g>
    <g id="text_12">
     <!-- Acc (%, 1s time window) -->
     <g transform="translate(14.798437 155.639688) rotate(-90) scale(0.1 -0.1)">
      <defs>
       <path id="DejaVuSans-41" d="M 2188 4044 
L 1331 1722 
L 3047 1722 
L 2188 4044 
z
M 1831 4666 
L 2547 4666 
L 4325 0 
L 3669 0 
L 3244 1197 
L 1141 1197 
L 716 0 
L 50 0 
L 1831 4666 
z
" transform="scale(0.015625)"/>
       <path id="DejaVuSans-63" d="M 3122 3366 
L 3122 2828 
Q 2878 2963 2633 3030 
Q 2388 3097 2138 3097 
Q 1578 3097 1268 2742 
Q 959 2388 959 1747 
Q 959 1106 1268 751 
Q 1578 397 2138 397 
Q 2388 397 2633 464 
Q 2878 531 3122 666 
L 3122 134 
Q 2881 22 2623 -34 
Q 2366 -91 2075 -91 
Q 1284 -91 818 406 
Q 353 903 353 1747 
Q 353 2603 823 3093 
Q 1294 3584 2113 3584 
Q 2378 3584 2631 3529 
Q 2884 3475 3122 3366 
z
" transform="scale(0.015625)"/>
       <path id="DejaVuSans-28" d="M 1984 4856 
Q 1566 4138 1362 3434 
Q 1159 2731 1159 2009 
Q 1159 1288 1364 580 
Q 1569 -128 1984 -844 
L 1484 -844 
Q 1016 -109 783 600 
Q 550 1309 550 2009 
Q 550 2706 781 3412 
Q 1013 4119 1484 4856 
L 1984 4856 
z
" transform="scale(0.015625)"/>
       <path id="DejaVuSans-25" d="M 4653 2053 
Q 4381 2053 4226 1822 
Q 4072 1591 4072 1178 
Q 4072 772 4226 539 
Q 4381 306 4653 306 
Q 4919 306 5073 539 
Q 5228 772 5228 1178 
Q 5228 1588 5073 1820 
Q 4919 2053 4653 2053 
z
M 4653 2450 
Q 5147 2450 5437 2106 
Q 5728 1763 5728 1178 
Q 5728 594 5436 251 
Q 5144 -91 4653 -91 
Q 4153 -91 3862 251 
Q 3572 594 3572 1178 
Q 3572 1766 3864 2108 
Q 4156 2450 4653 2450 
z
M 1428 4353 
Q 1159 4353 1004 4120 
Q 850 3888 850 3481 
Q 850 3069 1003 2837 
Q 1156 2606 1428 2606 
Q 1700 2606 1854 2837 
Q 2009 3069 2009 3481 
Q 2009 3884 1853 4118 
Q 1697 4353 1428 4353 
z
M 4250 4750 
L 4750 4750 
L 1831 -91 
L 1331 -91 
L 4250 4750 
z
M 1428 4750 
Q 1922 4750 2215 4408 
Q 2509 4066 2509 3481 
Q 2509 2891 2217 2550 
Q 1925 2209 1428 2209 
Q 931 2209 642 2551 
Q 353 2894 353 3481 
Q 353 4063 643 4406 
Q 934 4750 1428 4750 
z
" transform="scale(0.015625)"/>
       <path id="DejaVuSans-2c" d="M 750 794 
L 1409 794 
L 1409 256 
L 897 -744 
L 494 -744 
L 750 256 
L 750 794 
z
" transform="scale(0.015625)"/>
       <path id="DejaVuSans-74" d="M 1172 4494 
L 1172 3500 
L 2356 3500 
L 2356 3053 
L 1172 3053 
L 1172 1153 
Q 1172 725 1289 603 
Q 1406 481 1766 481 
L 2356 481 
L 2356 0 
L 1766 0 
Q 1100 0 847 248 
Q 594 497 594 1153 
L 594 3053 
L 172 3053 
L 172 3500 
L 594 3500 
L 594 4494 
L 1172 4494 
z
" transform="scale(0.015625)"/>
       <path id="DejaVuSans-69" d="M 603 3500 
L 1178 3500 
L 1178 0 
L 603 0 
L 603 3500 
z
M 603 4863 
L 1178 4863 
L 1178 4134 
L 603 4134 
L 603 4863 
z
" transform="scale(0.015625)"/>
       <path id="DejaVuSans-6d" d="M 3328 2828 
Q 3544 3216 3844 3400 
Q 4144 3584 4550 3584 
Q 5097 3584 5394 3201 
Q 5691 2819 5691 2113 
L 5691 0 
L 5113 0 
L 5113 2094 
Q 5113 2597 4934 2840 
Q 4756 3084 4391 3084 
Q 3944 3084 3684 2787 
Q 3425 2491 3425 1978 
L 3425 0 
L 2847 0 
L 2847 2094 
Q 2847 2600 2669 2842 
Q 2491 3084 2119 3084 
Q 1678 3084 1418 2786 
Q 1159 2488 1159 1978 
L 1159 0 
L 581 0 
L 581 3500 
L 1159 3500 
L 1159 2956 
Q 1356 3278 1631 3431 
Q 1906 3584 2284 3584 
Q 2666 3584 2933 3390 
Q 3200 3197 3328 2828 
z
" transform="scale(0.015625)"/>
       <path id="DejaVuSans-77" d="M 269 3500 
L 844 3500 
L 1563 769 
L 2278 3500 
L 2956 3500 
L 3675 769 
L 4391 3500 
L 4966 3500 
L 4050 0 
L 3372 0 
L 2619 2869 
L 1863 0 
L 1184 0 
L 269 3500 
z
" transform="scale(0.015625)"/>
       <path id="DejaVuSans-64" d="M 2906 2969 
L 2906 4863 
L 3481 4863 
L 3481 0 
L 2906 0 
L 2906 525 
Q 2725 213 2448 61 
Q 2172 -91 1784 -91 
Q 1150 -91 751 415 
Q 353 922 353 1747 
Q 353 2572 751 3078 
Q 1150 3584 1784 3584 
Q 2172 3584 2448 3432 
Q 2725 3281 2906 2969 
z
M 947 1747 
Q 947 1113 1208 752 
Q 1469 391 1925 391 
Q 2381 391 2643 752 
Q 2906 1113 2906 1747 
Q 2906 2381 2643 2742 
Q 2381 3103 1925 3103 
Q 1469 3103 1208 2742 
Q 947 2381 947 1747 
z
" transform="scale(0.015625)"/>
       <path id="DejaVuSans-29" d="M 513 4856 
L 1013 4856 
Q 1481 4119 1714 3412 
Q 1947 2706 1947 2009 
Q 1947 1309 1714 600 
Q 1481 -109 1013 -844 
L 513 -844 
Q 928 -128 1133 580 
Q 1338 1288 1338 2009 
Q 1338 2731 1133 3434 
Q 928 4138 513 4856 
z
" transform="scale(0.015625)"/>
      </defs>
      <use xlink:href="#DejaVuSans-41"/>
      <use xlink:href="#DejaVuSans-63" x="66.658203"/>
      <use xlink:href="#DejaVuSans-63" x="121.638672"/>
      <use xlink:href="#DejaVuSans-20" x="176.619141"/>
      <use xlink:href="#DejaVuSans-28" x="208.40625"/>
      <use xlink:href="#DejaVuSans-25" x="247.419922"/>
      <use xlink:href="#DejaVuSans-2c" x="342.439453"/>
      <use xlink:href="#DejaVuSans-20" x="374.226562"/>
      <use xlink:href="#DejaVuSans-31" x="406.013672"/>
      <use xlink:href="#DejaVuSans-73" x="469.636719"/>
      <use xlink:href="#DejaVuSans-20" x="521.736328"/>
      <use xlink:href="#DejaVuSans-74" x="553.523438"/>
      <use xlink:href="#DejaVuSans-69" x="592.732422"/>
      <use xlink:href="#DejaVuSans-6d" x="620.515625"/>
      <use xlink:href="#DejaVuSans-65" x="717.927734"/>
      <use xlink:href="#DejaVuSans-20" x="779.451172"/>
      <use xlink:href="#DejaVuSans-77" x="811.238281"/>
      <use xlink:href="#DejaVuSans-69" x="893.025391"/>
      <use xlink:href="#DejaVuSans-6e" x="920.808594"/>
      <use xlink:href="#DejaVuSans-64" x="984.1875"/>
      <use xlink:href="#DejaVuSans-6f" x="1047.664062"/>
      <use xlink:href="#DejaVuSans-77" x="1108.845703"/>
      <use xlink:href="#DejaVuSans-29" x="1190.632812"/>
     </g>
    </g>
   </g>
   <g id="LineCollection_1">
    <path d="M 52.672443 163.488365 
L 52.672443 159.857273 
" clip-path="url(#p29fef21e0e)" style="fill: none; stroke: #49e7dd; stroke-width: 1.5"/>
    <path d="M 55.561971 129.512281 
L 55.561971 127.058956 
" clip-path="url(#p29fef21e0e)" style="fill: none; stroke: #49e7dd; stroke-width: 1.5"/>
    <path d="M 58.4515 112.749617 
L 58.4515 107.939621 
" clip-path="url(#p29fef21e0e)" style="fill: none; stroke: #49e7dd; stroke-width: 1.5"/>
    <path d="M 65.67532 84.431365 
L 65.67532 74.996673 
" clip-path="url(#p29fef21e0e)" style="fill: none; stroke: #49e7dd; stroke-width: 1.5"/>
    <path d="M 80.122961 48.450182 
L 80.122961 40.661455 
" clip-path="url(#p29fef21e0e)" style="fill: none; stroke: #49e7dd; stroke-width: 1.5"/>
    <path d="M 109.018243 38.62732 
L 109.018243 30.587517 
" clip-path="url(#p29fef21e0e)" style="fill: none; stroke: #49e7dd; stroke-width: 1.5"/>
    <path d="M 137.913525 25.884197 
L 137.913525 22.17104 
" clip-path="url(#p29fef21e0e)" style="fill: none; stroke: #49e7dd; stroke-width: 1.5"/>
    <path d="M 166.808807 26.169731 
L 166.808807 22.717107 
" clip-path="url(#p29fef21e0e)" style="fill: none; stroke: #49e7dd; stroke-width: 1.5"/>
   </g>
   <g id="LineCollection_2">
    <path d="M 52.672443 156.931422 
L 52.672443 152.369416 
" clip-path="url(#p29fef21e0e)" style="fill: none; stroke: #a7d1f9; stroke-width: 1.5"/>
    <path d="M 55.561971 138.780601 
L 55.561971 127.492636 
" clip-path="url(#p29fef21e0e)" style="fill: none; stroke: #a7d1f9; stroke-width: 1.5"/>
    <path d="M 58.4515 110.721462 
L 58.4515 101.251376 
" clip-path="url(#p29fef21e0e)" style="fill: none; stroke: #a7d1f9; stroke-width: 1.5"/>
    <path d="M 65.67532 76.578696 
L 65.67532 65.539742 
" clip-path="url(#p29fef21e0e)" style="fill: none; stroke: #a7d1f9; stroke-width: 1.5"/>
    <path d="M 80.122961 46.094775 
L 80.122961 43.294063 
" clip-path="url(#p29fef21e0e)" style="fill: none; stroke: #a7d1f9; stroke-width: 1.5"/>
    <path d="M 109.018243 28.410708 
L 109.018243 26.851729 
" clip-path="url(#p29fef21e0e)" style="fill: none; stroke: #a7d1f9; stroke-width: 1.5"/>
    <path d="M 137.913525 27.726664 
L 137.913525 24.763774 
" clip-path="url(#p29fef21e0e)" style="fill: none; stroke: #a7d1f9; stroke-width: 1.5"/>
    <path d="M 166.808807 25.880903 
L 166.808807 25.531535 
" clip-path="url(#p29fef21e0e)" style="fill: none; stroke: #a7d1f9; stroke-width: 1.5"/>
   </g>
   <g id="LineCollection_3">
    <path d="M 52.672443 162.208684 
L 52.672443 158.026154 
" clip-path="url(#p29fef21e0e)" style="fill: none; stroke: #10ccf5; stroke-width: 1.5"/>
    <path d="M 55.561971 149.813658 
L 55.561971 145.319179 
" clip-path="url(#p29fef21e0e)" style="fill: none; stroke: #10ccf5; stroke-width: 1.5"/>
    <path d="M 58.4515 141.576515 
L 58.4515 137.263122 
" clip-path="url(#p29fef21e0e)" style="fill: none; stroke: #10ccf5; stroke-width: 1.5"/>
    <path d="M 65.67532 114.350683 
L 65.67532 110.558154 
" clip-path="url(#p29fef21e0e)" style="fill: none; stroke: #10ccf5; stroke-width: 1.5"/>
    <path d="M 80.122961 85.506379 
L 80.122961 81.067259 
" clip-path="url(#p29fef21e0e)" style="fill: none; stroke: #10ccf5; stroke-width: 1.5"/>
    <path d="M 109.018243 70.309655 
L 109.018243 69.221582 
" clip-path="url(#p29fef21e0e)" style="fill: none; stroke: #10ccf5; stroke-width: 1.5"/>
    <path d="M 137.913525 65.723566 
L 137.913525 59.485672 
" clip-path="url(#p29fef21e0e)" style="fill: none; stroke: #10ccf5; stroke-width: 1.5"/>
    <path d="M 166.808807 64.619943 
L 166.808807 56.585294 
" clip-path="url(#p29fef21e0e)" style="fill: none; stroke: #10ccf5; stroke-width: 1.5"/>
   </g>
   <g id="LineCollection_4">
    <path d="M 52.672443 154.73283 
L 52.672443 148.562008 
" clip-path="url(#p29fef21e0e)" style="fill: none; stroke: #9932eb; stroke-width: 1.5"/>
    <path d="M 55.561971 130.589254 
L 55.561971 117.019183 
" clip-path="url(#p29fef21e0e)" style="fill: none; stroke: #9932eb; stroke-width: 1.5"/>
    <path d="M 58.4515 107.766246 
L 58.4515 99.401792 
" clip-path="url(#p29fef21e0e)" style="fill: none; stroke: #9932eb; stroke-width: 1.5"/>
    <path d="M 65.67532 65.090714 
L 65.67532 64.245723 
" clip-path="url(#p29fef21e0e)" style="fill: none; stroke: #9932eb; stroke-width: 1.5"/>
    <path d="M 80.122961 34.361848 
L 80.122961 32.35819 
" clip-path="url(#p29fef21e0e)" style="fill: none; stroke: #9932eb; stroke-width: 1.5"/>
    <path d="M 109.018243 25.147107 
L 109.018243 19.766531 
" clip-path="url(#p29fef21e0e)" style="fill: none; stroke: #9932eb; stroke-width: 1.5"/>
    <path d="M 137.913525 22.13731 
L 137.913525 19.634727 
" clip-path="url(#p29fef21e0e)" style="fill: none; stroke: #9932eb; stroke-width: 1.5"/>
    <path d="M 166.808807 18.982871 
L 166.808807 17.922766 
" clip-path="url(#p29fef21e0e)" style="fill: none; stroke: #9932eb; stroke-width: 1.5"/>
   </g>
   <g id="LineCollection_5">
    <path d="M 52.672443 161.155529 
L 52.672443 158.155308 
" clip-path="url(#p29fef21e0e)" style="fill: none; stroke: #99f7ca; stroke-width: 1.5"/>
    <path d="M 55.561971 142.923778 
L 55.561971 137.548259 
" clip-path="url(#p29fef21e0e)" style="fill: none; stroke: #99f7ca; stroke-width: 1.5"/>
    <path d="M 58.4515 126.094008 
L 58.4515 122.00723 
" clip-path="url(#p29fef21e0e)" style="fill: none; stroke: #99f7ca; stroke-width: 1.5"/>
    <path d="M 65.67532 105.752537 
L 65.67532 95.1939 
" clip-path="url(#p29fef21e0e)" style="fill: none; stroke: #99f7ca; stroke-width: 1.5"/>
    <path d="M 80.122961 79.13806 
L 80.122961 72.405177 
" clip-path="url(#p29fef21e0e)" style="fill: none; stroke: #99f7ca; stroke-width: 1.5"/>
    <path d="M 109.018243 61.052153 
L 109.018243 58.058685 
" clip-path="url(#p29fef21e0e)" style="fill: none; stroke: #99f7ca; stroke-width: 1.5"/>
    <path d="M 137.913525 46.845852 
L 137.913525 46.054186 
" clip-path="url(#p29fef21e0e)" style="fill: none; stroke: #99f7ca; stroke-width: 1.5"/>
    <path d="M 166.808807 43.868811 
L 166.808807 39.390826 
" clip-path="url(#p29fef21e0e)" style="fill: none; stroke: #99f7ca; stroke-width: 1.5"/>
   </g>
   <g id="LineCollection_6">
    <path d="M 52.672443 160.888934 
L 52.672443 152.015504 
" clip-path="url(#p29fef21e0e)" style="fill: none; stroke: #9ef19d; stroke-width: 1.5"/>
    <path d="M 55.561971 136.270405 
L 55.561971 123.196032 
" clip-path="url(#p29fef21e0e)" style="fill: none; stroke: #9ef19d; stroke-width: 1.5"/>
    <path d="M 58.4515 123.929367 
L 58.4515 116.50267 
" clip-path="url(#p29fef21e0e)" style="fill: none; stroke: #9ef19d; stroke-width: 1.5"/>
    <path d="M 65.67532 85.706474 
L 65.67532 73.475164 
" clip-path="url(#p29fef21e0e)" style="fill: none; stroke: #9ef19d; stroke-width: 1.5"/>
    <path d="M 80.122961 63.465315 
L 80.122961 56.877522 
" clip-path="url(#p29fef21e0e)" style="fill: none; stroke: #9ef19d; stroke-width: 1.5"/>
    <path d="M 109.018243 48.068558 
L 109.018243 44.061479 
" clip-path="url(#p29fef21e0e)" style="fill: none; stroke: #9ef19d; stroke-width: 1.5"/>
    <path d="M 137.913525 40.983675 
L 137.913525 39.657962 
" clip-path="url(#p29fef21e0e)" style="fill: none; stroke: #9ef19d; stroke-width: 1.5"/>
    <path d="M 166.808807 38.771043 
L 166.808807 37.373795 
" clip-path="url(#p29fef21e0e)" style="fill: none; stroke: #9ef19d; stroke-width: 1.5"/>
   </g>
   <g id="line2d_11">
    <path d="M 52.672443 161.672819 
L 55.561971 128.285619 
L 58.4515 110.344619 
L 65.67532 79.714019 
L 80.122961 44.555819 
L 109.018243 34.607419 
L 137.913525 24.027619 
L 166.808807 24.443419 
" clip-path="url(#p29fef21e0e)" style="fill: none; stroke: #49e7dd; stroke-width: 1.5; stroke-linecap: square"/>
   </g>
   <g id="line2d_12">
    <path d="M 52.672443 154.650419 
L 55.561971 133.136619 
L 58.4515 105.986419 
L 65.67532 71.059219 
L 80.122961 44.694419 
L 109.018243 27.631219 
L 137.913525 26.245219 
L 166.808807 25.706219 
" clip-path="url(#p29fef21e0e)" style="fill: none; stroke: #a7d1f9; stroke-width: 1.5; stroke-linecap: square"/>
   </g>
   <g id="line2d_13">
    <path d="M 52.672443 160.117419 
L 55.561971 147.566419 
L 58.4515 139.419819 
L 65.67532 112.454419 
L 80.122961 83.286819 
L 109.018243 69.765619 
L 137.913525 62.604619 
L 166.808807 60.602619 
" clip-path="url(#p29fef21e0e)" style="fill: none; stroke: #10ccf5; stroke-width: 1.5; stroke-linecap: square"/>
   </g>
   <g id="line2d_14">
    <path d="M 52.672443 151.647419 
L 55.561971 123.804219 
L 58.4515 103.584019 
L 65.67532 64.668219 
L 80.122961 33.360019 
L 109.018243 22.456819 
L 137.913525 20.886019 
L 166.808807 18.452819 
" clip-path="url(#p29fef21e0e)" style="fill: none; stroke: #9932eb; stroke-width: 1.5; stroke-linecap: square"/>
   </g>
   <g id="line2d_15">
    <path d="M 52.672443 159.655419 
L 55.561971 140.236019 
L 58.4515 124.050619 
L 65.67532 100.473219 
L 80.122961 75.771619 
L 109.018243 59.555419 
L 137.913525 46.450019 
L 166.808807 41.629819 
" clip-path="url(#p29fef21e0e)" style="fill: none; stroke: #99f7ca; stroke-width: 1.5; stroke-linecap: square"/>
   </g>
   <g id="line2d_16">
    <path d="M 52.672443 156.452219 
L 55.561971 129.733219 
L 58.4515 120.216019 
L 65.67532 79.590819 
L 80.122961 60.171419 
L 109.018243 46.065019 
L 137.913525 40.320819 
L 166.808807 38.072419 
" clip-path="url(#p29fef21e0e)" style="fill: none; stroke: #9ef19d; stroke-width: 1.5; stroke-linecap: square"/>
   </g>
   <g id="patch_3">
    <path d="M 46.965625 177.319219 
L 46.965625 10.999219 
" style="fill: none; stroke: #000000; stroke-width: 0.8; stroke-linejoin: miter; stroke-linecap: square"/>
   </g>
   <g id="patch_4">
    <path d="M 52.672443 177.319219 
L 166.808807 177.319219 
" style="fill: none; stroke: #000000; stroke-width: 0.8; stroke-linejoin: miter; stroke-linecap: square"/>
   </g>
   <g id="legend_1">
    <g id="text_13">
     <!-- Area -->
     <g transform="translate(128.429705 94.381263) scale(0.1 -0.1)">
      <defs>
       <path id="DejaVuSans-61" d="M 2194 1759 
Q 1497 1759 1228 1600 
Q 959 1441 959 1056 
Q 959 750 1161 570 
Q 1363 391 1709 391 
Q 2188 391 2477 730 
Q 2766 1069 2766 1631 
L 2766 1759 
L 2194 1759 
z
M 3341 1997 
L 3341 0 
L 2766 0 
L 2766 531 
Q 2569 213 2275 61 
Q 1981 -91 1556 -91 
Q 1019 -91 701 211 
Q 384 513 384 1019 
Q 384 1609 779 1909 
Q 1175 2209 1959 2209 
L 2766 2209 
L 2766 2266 
Q 2766 2663 2505 2880 
Q 2244 3097 1772 3097 
Q 1472 3097 1187 3025 
Q 903 2953 641 2809 
L 641 3341 
Q 956 3463 1253 3523 
Q 1550 3584 1831 3584 
Q 2591 3584 2966 3190 
Q 3341 2797 3341 1997 
z
" transform="scale(0.015625)"/>
      </defs>
      <use xlink:href="#DejaVuSans-41"/>
      <use xlink:href="#DejaVuSans-72" x="68.408203"/>
      <use xlink:href="#DejaVuSans-65" x="107.271484"/>
      <use xlink:href="#DejaVuSans-61" x="168.794922"/>
     </g>
    </g>
    <g id="LineCollection_7">
     <path d="M 123.178597 108.204948 
L 123.178597 99.874948 
" style="fill: none; stroke: #49e7dd; stroke-width: 1.5"/>
    </g>
    <g id="line2d_17">
     <path d="M 114.848597 104.039948 
L 131.508597 104.039948 
" style="fill: none; stroke: #49e7dd; stroke-width: 1.5; stroke-linecap: square"/>
    </g>
    <g id="line2d_18"/>
    <g id="text_14">
     <!-- VISal -->
     <g transform="translate(138.172597 106.955448) scale(0.0833 -0.0833)">
      <defs>
       <path id="DejaVuSans-56" d="M 1831 0 
L 50 4666 
L 709 4666 
L 2188 738 
L 3669 4666 
L 4325 4666 
L 2547 0 
L 1831 0 
z
" transform="scale(0.015625)"/>
       <path id="DejaVuSans-49" d="M 628 4666 
L 1259 4666 
L 1259 0 
L 628 0 
L 628 4666 
z
" transform="scale(0.015625)"/>
       <path id="DejaVuSans-53" d="M 3425 4513 
L 3425 3897 
Q 3066 4069 2747 4153 
Q 2428 4238 2131 4238 
Q 1616 4238 1336 4038 
Q 1056 3838 1056 3469 
Q 1056 3159 1242 3001 
Q 1428 2844 1947 2747 
L 2328 2669 
Q 3034 2534 3370 2195 
Q 3706 1856 3706 1288 
Q 3706 609 3251 259 
Q 2797 -91 1919 -91 
Q 1588 -91 1214 -16 
Q 841 59 441 206 
L 441 856 
Q 825 641 1194 531 
Q 1563 422 1919 422 
Q 2459 422 2753 634 
Q 3047 847 3047 1241 
Q 3047 1584 2836 1778 
Q 2625 1972 2144 2069 
L 1759 2144 
Q 1053 2284 737 2584 
Q 422 2884 422 3419 
Q 422 4038 858 4394 
Q 1294 4750 2059 4750 
Q 2388 4750 2728 4690 
Q 3069 4631 3425 4513 
z
" transform="scale(0.015625)"/>
       <path id="DejaVuSans-6c" d="M 603 4863 
L 1178 4863 
L 1178 0 
L 603 0 
L 603 4863 
z
" transform="scale(0.015625)"/>
      </defs>
      <use xlink:href="#DejaVuSans-56"/>
      <use xlink:href="#DejaVuSans-49" x="68.408203"/>
      <use xlink:href="#DejaVuSans-53" x="97.900391"/>
      <use xlink:href="#DejaVuSans-61" x="161.376953"/>
      <use xlink:href="#DejaVuSans-6c" x="222.65625"/>
     </g>
    </g>
    <g id="LineCollection_8">
     <path d="M 123.178597 120.431827 
L 123.178597 112.101827 
" style="fill: none; stroke: #a7d1f9; stroke-width: 1.5"/>
    </g>
    <g id="line2d_19">
     <path d="M 114.848597 116.266827 
L 131.508597 116.266827 
" style="fill: none; stroke: #a7d1f9; stroke-width: 1.5; stroke-linecap: square"/>
    </g>
    <g id="line2d_20"/>
    <g id="text_15">
     <!-- VISl -->
     <g transform="translate(138.172597 119.182327) scale(0.0833 -0.0833)">
      <use xlink:href="#DejaVuSans-56"/>
      <use xlink:href="#DejaVuSans-49" x="68.408203"/>
      <use xlink:href="#DejaVuSans-53" x="97.900391"/>
      <use xlink:href="#DejaVuSans-6c" x="161.376953"/>
     </g>
    </g>
    <g id="LineCollection_9">
     <path d="M 123.178597 132.658705 
L 123.178597 124.328705 
" style="fill: none; stroke: #10ccf5; stroke-width: 1.5"/>
    </g>
    <g id="line2d_21">
     <path d="M 114.848597 128.493705 
L 131.508597 128.493705 
" style="fill: none; stroke: #10ccf5; stroke-width: 1.5; stroke-linecap: square"/>
    </g>
    <g id="line2d_22"/>
    <g id="text_16">
     <!-- VISrl -->
     <g transform="translate(138.172597 131.409205) scale(0.0833 -0.0833)">
      <use xlink:href="#DejaVuSans-56"/>
      <use xlink:href="#DejaVuSans-49" x="68.408203"/>
      <use xlink:href="#DejaVuSans-53" x="97.900391"/>
      <use xlink:href="#DejaVuSans-72" x="161.376953"/>
      <use xlink:href="#DejaVuSans-6c" x="202.490234"/>
     </g>
    </g>
    <g id="LineCollection_10">
     <path d="M 123.178597 144.885583 
L 123.178597 136.555583 
" style="fill: none; stroke: #9932eb; stroke-width: 1.5"/>
    </g>
    <g id="line2d_23">
     <path d="M 114.848597 140.720583 
L 131.508597 140.720583 
" style="fill: none; stroke: #9932eb; stroke-width: 1.5; stroke-linecap: square"/>
    </g>
    <g id="line2d_24"/>
    <g id="text_17">
     <!-- VISp -->
     <g transform="translate(138.172597 143.636083) scale(0.0833 -0.0833)">
      <defs>
       <path id="DejaVuSans-70" d="M 1159 525 
L 1159 -1331 
L 581 -1331 
L 581 3500 
L 1159 3500 
L 1159 2969 
Q 1341 3281 1617 3432 
Q 1894 3584 2278 3584 
Q 2916 3584 3314 3078 
Q 3713 2572 3713 1747 
Q 3713 922 3314 415 
Q 2916 -91 2278 -91 
Q 1894 -91 1617 61 
Q 1341 213 1159 525 
z
M 3116 1747 
Q 3116 2381 2855 2742 
Q 2594 3103 2138 3103 
Q 1681 3103 1420 2742 
Q 1159 2381 1159 1747 
Q 1159 1113 1420 752 
Q 1681 391 2138 391 
Q 2594 391 2855 752 
Q 3116 1113 3116 1747 
z
" transform="scale(0.015625)"/>
      </defs>
      <use xlink:href="#DejaVuSans-56"/>
      <use xlink:href="#DejaVuSans-49" x="68.408203"/>
      <use xlink:href="#DejaVuSans-53" x="97.900391"/>
      <use xlink:href="#DejaVuSans-70" x="161.376953"/>
     </g>
    </g>
    <g id="LineCollection_11">
     <path d="M 123.178597 157.112461 
L 123.178597 148.782461 
" style="fill: none; stroke: #99f7ca; stroke-width: 1.5"/>
    </g>
    <g id="line2d_25">
     <path d="M 114.848597 152.947461 
L 131.508597 152.947461 
" style="fill: none; stroke: #99f7ca; stroke-width: 1.5; stroke-linecap: square"/>
    </g>
    <g id="line2d_26"/>
    <g id="text_18">
     <!-- VISam -->
     <g transform="translate(138.172597 155.862961) scale(0.0833 -0.0833)">
      <use xlink:href="#DejaVuSans-56"/>
      <use xlink:href="#DejaVuSans-49" x="68.408203"/>
      <use xlink:href="#DejaVuSans-53" x="97.900391"/>
      <use xlink:href="#DejaVuSans-61" x="161.376953"/>
      <use xlink:href="#DejaVuSans-6d" x="222.65625"/>
     </g>
    </g>
    <g id="LineCollection_12">
     <path d="M 123.178597 169.339339 
L 123.178597 161.009339 
" style="fill: none; stroke: #9ef19d; stroke-width: 1.5"/>
    </g>
    <g id="line2d_27">
     <path d="M 114.848597 165.174339 
L 131.508597 165.174339 
" style="fill: none; stroke: #9ef19d; stroke-width: 1.5; stroke-linecap: square"/>
    </g>
    <g id="line2d_28"/>
    <g id="text_19">
     <!-- VISpm -->
     <g transform="translate(138.172597 168.089839) scale(0.0833 -0.0833)">
      <use xlink:href="#DejaVuSans-56"/>
      <use xlink:href="#DejaVuSans-49" x="68.408203"/>
      <use xlink:href="#DejaVuSans-53" x="97.900391"/>
      <use xlink:href="#DejaVuSans-70" x="161.376953"/>
      <use xlink:href="#DejaVuSans-6d" x="224.853516"/>
     </g>
    </g>
   </g>
  </g>
 </g>
 <defs>
  <clipPath id="p29fef21e0e">
   <rect x="46.965625" y="10.999219" width="125.55" height="166.32"/>
  </clipPath>
 </defs>
</svg>
